<?xml version="1.0" encoding="utf-8"?>
<!-- Generator: Adobe Illustrator 27.0.0, SVG Export Plug-In . SVG Version: 6.00 Build 0)  -->
<svg version="1.1" id="Layer_1" xmlns="http://www.w3.org/2000/svg" xmlns:xlink="http://www.w3.org/1999/xlink" x="0px" y="0px"
	 viewBox="0 0 2500 1909.4" style="enable-background:new 0 0 2500 1909.4;" xml:space="preserve">
<style type="text/css">
	.st0{fill:#AEC7E6;}
	.st1{fill:#E9F0F7;}
	.st2{fill:#DAAC71;}
	.st3{fill:#E07985;}
	.st4{fill:#ED8A8A;}
	.st5{fill:#F2A29B;}
	.st6{fill:#FFC5B3;}
	.st7{fill:#114077;}
	.st8{fill:#0C3461;}
	.st9{fill:#4373A0;}
</style>
<g>
	<g>
		<path class="st0" d="M1111.6,1806.9c-2-7.3-9.5-11.6-16.8-9.7l-31.7,8.5l0,0c18.2-4.9,29-23.6,24.1-41.7l0,0l0,0
			c-0.4-1.6-1-3.2-1.6-4.7c0,0,0,0,0-0.1c-0.1-0.1-0.1-0.3-0.2-0.4c-2-4.4-4.8-8.2-8.2-11.3l0,0c0,0-0.1-0.1-0.2-0.1
			c-0.2-0.1-0.3-0.3-0.5-0.4c-0.8-0.7-1.7-1.4-2.6-2c-0.3-0.2-0.6-0.4-0.9-0.6c-1.9-1.4-4.6-3.4-7.8-5.6
			c-12.7-8.9-35.1-23.6-64.9-38.9l-3.4-12.7c7-1.9,11.1-9.1,9.3-16.1c-1.9-7-9.1-11.1-16.1-9.3c0,0-57.2-10.5-115.2-226.8l14.9-4
			c3.7-1,6.6-3.3,8.3-6.4c1.8-3,2.3-6.7,1.4-10.4l0,0c-2-7.3-9.5-11.6-16.8-9.7l-9.6,2.6c0.5-0.1,1-0.3,1.4-0.5c0,0,0.1,0,0.1-0.1
			l0,0c0.7-0.4,1.4-0.8,1.9-1.4c2.1-2,3.1-5.1,2.3-8.2l0,0c-1.2-4.4-5.7-7-10.1-5.8l-3-11.1l0,0c0.3-0.1,0.5-0.2,0.8-0.3
			c0.5-0.3,0.9-0.6,1.3-1c0.2-0.2,0.3-0.4,0.4-0.6c0.3-0.5,0.4-1,0.5-1.5c0-0.1,0-0.1,0-0.2c0-0.5,0-0.9-0.1-1.4l0,0l0,0
			c-0.6-2.2-2.8-3.5-5-2.9l-3-11.1c0-0.1,0-0.1-0.1-0.2c-0.1-0.6-0.3-1.2-0.4-1.8c0-0.2-0.1-0.4-0.1-0.5c-0.1-0.6-0.2-1.3-0.3-1.9
			c0-0.2,0-0.4-0.1-0.6c-0.1-0.7-0.1-1.3-0.1-2c0-0.2,0-0.3,0-0.5c0-0.6,0-1.3,0-1.9c0-0.1,0-0.2,0-0.4c0-0.7,0.1-1.5,0.1-2.2
			c0-0.2,0-0.3,0-0.5c0.1-0.7,0.1-1.5,0.2-2.3c0-0.1,0-0.3,0.1-0.4c0.2-1.7,0.5-3.4,0.9-5.2c0,0,0,0,0-0.1
			c4.4-22.5,17.5-51.1,8.8-83.5c-5.4-20.3-28.7-14-38-11.5l-35.5,9.5l-15.9-59.3l34.6-9.3l-8.8-32.7l-34.6,9.3l-9.3-34.6l-32.7,8.8
			l9.3,34.6l-34.6,9.3l8.8,32.7l34.6-9.3l15.9,59.3l-35.5,9.5c-9.3,2.5-32.6,8.7-27.2,29c9.4,35.1,38.7,53.6,52.9,72.2
			c0,0,0,0.1,0.1,0.1c0.5,0.7,1,1.4,1.5,2c0,0.1,0.1,0.1,0.1,0.2c0.5,0.7,0.9,1.4,1.3,2v0.1c0.4,0.7,0.8,1.3,1.1,2
			c0,0.1,0.1,0.1,0.1,0.2c0.3,0.6,0.7,1.3,1,1.9c0.1,0.1,0.1,0.3,0.2,0.4c0.3,0.6,0.5,1.3,0.8,1.9c0,0.1,0.1,0.2,0.1,0.4
			c0.2,0.7,0.4,1.3,0.6,2l0,0l3,11.1c-2.2,0.6-3.5,2.8-2.9,5l0,0l0,0c0.1,0.4,0.3,0.7,0.4,1c0.7,1.1,1.8,1.8,3,2
			c0.5,0.1,1,0,1.6-0.1l0,0l1.3,4.8l1.7,6.3c-4.4,1.2-7,5.7-5.8,10.1l0,0c1.2,4.4,5.7,7,10.1,5.8l-9.6,2.6c-7.3,2-11.6,9.5-9.7,16.8
			l0,0c0.8,2.9,2.5,5.4,4.7,7.1c3.3,2.6,7.7,3.7,12.1,2.6l14.9-4c58,216.3,13.7,254,13.7,254l0,0c-7,1.9-11.1,9.1-9.3,16.1
			c1.9,7,9.1,11.1,16.1,9.3l3.4,12.7c-22.3,34.5-35.3,62.7-40.3,74.2c-0.1,0.3-0.2,0.5-0.3,0.8c-0.2,0.3-0.3,0.7-0.5,1
			c-0.5,1-0.9,2-1.2,3c-0.1,0.2-0.2,0.4-0.2,0.6c0,0.1-0.1,0.2-0.1,0.2l0,0c-1.4,4.4-2,9.2-1.5,14c0,0.1,0,0.2,0,0.4
			c0,0.1,0,0.1,0,0.2c0.2,1.6,0.5,3.2,0.9,4.8l0,0l0,0c4.9,18.2,23.6,29,41.7,24.1l-31.7,8.5c-7.3,2-11.6,9.5-9.7,16.8l0,0
			c0.2,0.7,0.4,1.3,0.7,1.9c0.6,1.5,1.5,2.8,2.6,4c3.3,3.5,8.5,5.2,13.5,3.8l318.3-85.3c5.9-1.6,9.9-6.8,10.1-12.7
			C1112.1,1809.7,1112,1808.3,1111.6,1806.9z"/>
		<path class="st0" d="M2495.2,397.1L2317.5,27.5c-11.6-24.1-40.6-34.3-64.7-22.7l-571.7,274.9l13,27.1l-12.1,5.8l0,0l-53.2,25.6
			l18.8,39.1l-357.1,32.8L971.2,594.5l64.5,407.5c39,15.3,71.4,8.8,95.8-14c2-0.5,3.9-1.1,5.9-1.7l-0.4,1.4l-0.7,2.4
			c-2-0.5-4.1,0.7-4.7,2.7l0,0l0,0c-0.1,0.3-0.1,0.7-0.1,1c0,1.2,0.6,2.3,1.5,3c0.4,0.3,0.8,0.5,1.3,0.6l0,0l-2.8,10.4
			c-4.1-1.1-8.3,1.3-9.4,5.4l0,0c-1.1,4.1,1.3,8.3,5.4,9.4l0,0l-9-2.4c-6.8-1.8-13.8,2.2-15.6,9c-0.7,2.7-0.5,5.4,0.4,7.9
			c1.4,3.7,4.5,6.6,8.6,7.7l13.9,3.7c-53.9,201.2-105.7,205.9-105.7,205.9l0,0c-6.5-1.7-13.2,2.1-14.9,8.6l0,0
			c-1.7,6.5,2.1,13.2,8.6,14.9l-3.2,11.8c-31.9,16.4-54.7,32.1-65.1,39.6c-0.9,0.7-1.8,1.3-2.5,1.8c-1.3,0.9-2.5,1.8-3.7,2.8
			c-0.1,0.1-0.1,0.1-0.1,0.1l0,0c-4.4,4-7.7,9.2-9.4,15.3c-4.5,16.9,5.5,34.3,22.4,38.8l0,0l-29.5-7.9c-6.8-1.8-13.8,2.2-15.6,9
			s2.2,13.8,9,15.6l296,79.3c6.8,1.8,13.8-2.2,15.6-9c1.8-6.8-2.2-13.8-9-15.6l-29.5-7.9h0.1c16.9,4.5,34.3-5.5,38.8-22.4
			c1.6-6.1,1.3-12.3-0.5-17.9l0,0c0,0,0-0.1-0.1-0.2c-0.5-1.5-1.1-2.9-1.8-4.3c-4.4-10.2-16.6-36.8-37.8-69.7l3.2-11.8
			c6.5,1.7,13.2-2.1,14.9-8.6l0,0c1.7-6.5-2.1-13.2-8.6-14.9l0,0c0,0-42.6-30,11.4-231.1l13.8,3.7c3.4,0.9,6.8,0.4,9.7-1.3
			c2.8-1.6,5-4.3,5.9-7.7l0,0c1.8-6.8-2.2-13.8-9-15.6l-8.9-2.4c0.5,0.1,1,0.2,1.5,0.2c0,0,0,0,0.1,0c0,0,0,0,0.1,0
			c0.7,0,1.5,0,2.2-0.2c2.7-0.6,4.9-2.7,5.6-5.5c1.1-4.1-1.3-8.3-5.4-9.4l2.8-10.4l0,0c0.3,0.1,0.5,0.1,0.8,0.1c0.1,0,0.2,0,0.3,0
			c0.7,1.8,1.5,3.5,2.4,5.2l164.3-78.9c254-122,359.1-208.1,402.6-259.7l24.8,51.7l65.3-31.4l13.1,27.2l571.7-274.9
			C2496.6,450.2,2506.8,421.3,2495.2,397.1z M1359.3,824.6l-69,33.1l0,0l0,0c-13.3,6.4-25,14.8-34.9,24.7l-25.7-250.5l30.4-15.6
			l6.4-2.2c28.6-6.9,61.4,10.1,99.8,90C1391.6,756.6,1388.4,810.4,1359.3,824.6z"/>
	</g>
	<g>
		<g>
			<g>
				<g>
					<g>
						<polygon class="st1" points="806.5,1153.6 771.9,1162.9 762.6,1128.3 729.9,1137.1 739.1,1171.7 704.5,1180.9 713.3,1213.7 
							747.9,1204.4 764.9,1268 797.7,1259.2 780.6,1195.6 815.2,1186.4 						"/>
						
							<rect x="762.2" y="1247.6" transform="matrix(0.9659 -0.2588 0.2588 0.9659 -298.4288 244.4432)" class="st0" width="33.9" height="16.2"/>
					</g>
					<path class="st1" d="M832,1245.5l-103.7,27.8c-9.3,2.5-32.6,8.7-27.2,29c11.6,43.3,53.4,61.2,59.9,85.4l4.1,15.1l99.8-26.8
						l-4.1-15.1c-6.5-24.2,20.8-60.6,9.2-103.9C864.6,1236.7,841.3,1243,832,1245.5z"/>
					<g>
						<g>
							<path class="st1" d="M1101.9,1823.7L783.7,1909c-7.3,2-14.8-2.4-16.8-9.7l0,0c-2-7.3,2.4-14.8,9.7-16.8l318.3-85.3
								c7.3-2,14.8,2.4,16.8,9.7l0,0C1113.6,1814.2,1109.2,1821.7,1101.9,1823.7z"/>
							<path class="st0" d="M783.7,1909l318.3-85.3c7.3-2,11.6-9.5,9.7-16.8L767,1899.3C768.8,1906.6,776.4,1910.9,783.7,1909z"/>
							<path class="st2" d="M1077.2,1747.5L1077.2,1747.5C1077.2,1747.5,1077.2,1747.4,1077.2,1747.5c-1.4-1.2-2.7-2.2-4.1-3.1
								c-9.6-7.1-35.3-25.4-72.7-44.6l-95.4,25.6l-95.4,25.6c-22.8,35.3-35.9,64-40.6,74.9c-0.7,1.5-1.4,3-1.9,4.6
								c0,0.1-0.1,0.2-0.1,0.2l0,0c-2,6-2.3,12.7-0.5,19.3c4.9,18.2,23.6,29,41.7,24.1l254.9-68.3c18.2-4.9,29-23.6,24.1-41.7
								C1085.5,1757.4,1081.9,1751.8,1077.2,1747.5z"/>
							<path class="st1" d="M1087.3,1764c4.9,18.2-5.9,36.9-24.1,41.7l-255,68.3c-18.2,4.9-36.9-5.9-41.7-24.1
								c-1.8-6.6-1.4-13.2,0.5-19.3l0,0c0,0,0-0.1,0.1-0.2c0.5-1.6,1.2-3.1,1.9-4.6c0.4-0.9,0.8-1.9,1.3-3
								c5.6-12.6,18.4-39.4,39.3-71.9l190.8-51.1c37.4,19.2,63.1,37.4,72.7,44.6c1.4,0.9,2.7,1.9,4,3c0.1,0.1,0.2,0.1,0.2,0.1l0,0
								C1081.9,1751.8,1085.5,1757.4,1087.3,1764z"/>
							
								<rect x="804.6" y="1712.5" transform="matrix(0.9659 -0.2588 0.2588 0.9659 -414.1177 292.3509)" class="st1" width="197.5" height="13.1"/>
							
								<rect x="804.6" y="1712.5" transform="matrix(0.9659 -0.2588 0.2588 0.9659 -414.1177 292.3509)" class="st0" width="197.5" height="13.1"/>
							<g>
								<path class="st1" d="M990.2,1661.8l-190.8,51.1c-7,1.9-11.1,9.1-9.3,16.1l0,0c1.9,7,9.1,11.1,16.1,9.3l190.8-51.1
									c7-1.9,11.1-9.1,9.3-16.1l0,0C1004.4,1664.1,997.2,1659.9,990.2,1661.8z"/>
								<path class="st0" d="M1006.3,1671.1c1.9,7-2.3,14.2-9.3,16.1l-190.8,51.1c-3.5,0.9-7,0.4-9.9-1.3c-2.9-1.7-5.2-4.5-6.1-8
									L1006.3,1671.1z"/>
							</g>
							<path class="st0" d="M1077.2,1747.5L1077.2,1747.5C1077.2,1747.5,1077.2,1747.4,1077.2,1747.5c-1.4-1.2-2.7-2.2-4.1-3.1
								c-0.8-0.6-1.7-1.2-2.7-1.9c0,0,18.8,34.6-12.7,43s-127.5,34.2-127.5,34.2s-96,25.7-127.5,34.2c-31.5,8.4-32.5-30.9-32.5-30.9
								c-0.5,1.1-0.9,2.1-1.3,3c-0.7,1.5-1.4,3-1.9,4.6c0,0.1-0.1,0.2-0.1,0.2l0,0c-2,6-2.3,12.7-0.5,19.3
								c4.9,18.2,23.6,29,41.7,24.1l127.5-34.2l127.5-34.2c18.2-4.9,29-23.6,24.1-41.7C1085.5,1757.4,1081.9,1751.8,1077.2,1747.5z"
								/>
						</g>
						<path class="st1" d="M875.1,1435l-44.6,12l-44.6,12c58,216.3,13.7,254,13.7,254l95.4-25.6l95.4-25.6
							C990.2,1661.8,933,1651.3,875.1,1435z"/>
					</g>
					
						<rect x="763.3" y="1373.8" transform="matrix(0.9659 -0.2588 0.2588 0.9659 -331.8285 258.2585)" class="st1" width="103.4" height="31.3"/>
					
						<rect x="765.3" y="1389.1" transform="matrix(0.9659 -0.2588 0.2588 0.9659 -333.6942 259.0521)" class="st1" width="103.4" height="15.7"/>
					
						<rect x="765.9" y="1393.2" transform="matrix(0.9659 -0.2588 0.2588 0.9659 -334.1966 259.2512)" class="st0" width="103.4" height="11.5"/>
					<path class="st1" d="M866,1380l-99.8,26.8c-2.2,0.6-4.5-0.7-5-2.9l0,0c-0.6-2.2,0.7-4.5,2.9-5l99.8-26.8c2.2-0.6,4.5,0.7,5,2.9
						l0,0C869.5,1377.2,868.2,1379.4,866,1380z"/>
					<path class="st0" d="M868.9,1375c0.3,1.1,0.1,2.2-0.4,3.1s-1.4,1.6-2.5,1.9l-99.8,26.8c-2.2,0.6-4.5-0.7-5-2.9L868.9,1375z"/>
					<g>
						<path class="st1" d="M890,1431l-119.1,31.9c-7.3,2-14.8-2.4-16.8-9.7l0,0c-2-7.3,2.4-14.8,9.7-16.8l119.1-31.9
							c7.3-2,14.8,2.4,16.8,9.7l0,0C901.6,1421.5,897.3,1429,890,1431z"/>
						<path class="st0" d="M899.7,1414.2c1,3.7,0.4,7.4-1.4,10.4c-1.8,3-4.7,5.4-8.3,6.4l-119.1,31.9c-7.3,2-14.8-2.4-16.8-9.7
							L899.7,1414.2z"/>
					</g>
					<g>
						<path class="st1" d="M873.3,1407.1l-99.8,26.8c-4.4,1.2-8.9-1.4-10.1-5.8l0,0c-1.2-4.4,1.4-8.9,5.8-10.1l99.8-26.8
							c4.4-1.2,8.9,1.4,10.1,5.8l0,0C880.3,1401.4,877.7,1405.9,873.3,1407.1z"/>
						<path class="st0" d="M879.1,1397c0.6,2.2,0.2,4.4-0.8,6.3c-1.1,1.8-2.8,3.3-5,3.9l-99.8,26.8c-4.4,1.2-8.9-1.4-10.1-5.8
							L879.1,1397z"/>
					</g>
					<path class="st0" d="M869.5,1307.5c-4.8,21.2-12.4,39.4-8.6,53.4l3,11.2l-99.8,26.8l-3-11.2c-3.8-14-19.4-26-34.2-42
						c1.8,1.6,31.7,27.6,80.3,14.6C855.8,1347.2,868.7,1309.8,869.5,1307.5z"/>
				</g>
			</g>
		</g>
		<g>
			<g id="XMLID_25_">
				<path id="XMLID_29_" class="st3" d="M1063.2,547.6l64.5,407.5c60.4,23.7,104.8-4.8,128.5-65.2l-26.4-258l121.4-62.2l0,0
					l12.2-5.5l-71.5-148.8L1063.2,547.6z"/>
				<path id="XMLID_28_" class="st4" d="M1034.9,561.2l64.5,407.5c60.4,23.7,104.8-4.8,128.5-65.2l-26.4-258l121.4-62.2l0,0
					l40.7-18.5l-72.8-151.6L1034.9,561.2z"/>
				<path id="XMLID_27_" class="st5" d="M1006.7,574.7l64.5,407.5c60.4,23.7,104.8-4.8,128.5-65.2l-26.4-258l121.4-62.2l0,0
					l40.7-18.5l-72.8-151.6L1006.7,574.7z"/>
				<path id="XMLID_26_" class="st6" d="M971.2,594.5l64.5,407.5c60.4,23.7,104.8-4.8,128.5-65.2l-26.4-258l121.4-62.2l0,0l7.4-2.5
					l23.9-204L971.2,594.5z"/>
			</g>
			<g>
				<path class="st7" d="M1268.6,925.8l-121.3-32.5l14.2-7.1l11.5-5.8l18.2-9.1l20.1-10c6.3-3.1,13.9-1.1,17.8,4.8l12.4,18.7
					l11.2,16.9l7.1,10.7L1268.6,925.8z"/>
				<g>
					<g>
						<g>
							<path class="st7" d="M1212.3,1484.5l-296-79.3c-6.8-1.8-10.8-8.8-9-15.6l0,0c1.8-6.8,8.8-10.8,15.6-9l296,79.3
								c6.8,1.8,10.8,8.8,9,15.6l0,0C1226.1,1482.2,1219.1,1486.3,1212.3,1484.5z"/>
							<path class="st8" d="M916.3,1405.2l296,79.3c6.8,1.8,13.8-2.2,15.6-9l-320.6-85.9C905.5,1396.3,909.5,1403.3,916.3,1405.2z"
								/>
							<path class="st7" d="M1228.3,1429.6c-4.5,16.9-21.9,26.9-38.8,22.4l-237.1-63.5c-16.9-4.5-26.9-21.9-22.4-38.8
								c1.6-6.1,5-11.3,9.4-15.3l0,0l0.1-0.1c1.2-1,2.4-2,3.7-2.8c0.7-0.5,1.5-1.1,2.5-1.8c10.4-7.6,33.2-23.2,65.1-39.6l177.4,47.5
								c21.2,32.9,33.4,59.5,37.8,69.7c0.7,1.4,1.3,2.8,1.8,4.3c0,0.1,0.1,0.2,0.1,0.2l0,0
								C1229.6,1417.2,1229.9,1423.4,1228.3,1429.6z"/>
							
								<rect x="1094.9" y="1215.9" transform="matrix(0.2588 -0.9659 0.9659 0.2588 -447.1132 2032.8328)" class="st7" width="12.2" height="183.7"/>
							
								<rect x="1094.9" y="1215.9" transform="matrix(0.2588 -0.9659 0.9659 0.2588 -447.1132 2032.8328)" class="st8" width="12.2" height="183.7"/>
							<g>
								<path class="st7" d="M1197.6,1302.1l-177.4-47.5c-6.5-1.7-13.2,2.1-14.9,8.6l0,0c-1.7,6.5,2.1,13.2,8.6,14.9l177.4,47.5
									c6.5,1.7,13.2-2.1,14.9-8.6l0,0C1208,1310.6,1204.1,1303.9,1197.6,1302.1z"/>
								<path class="st8" d="M1206.2,1317.1c-1.7,6.5-8.4,10.4-14.9,8.6l-177.4-47.5c-3.3-0.9-5.8-3-7.4-5.7c-1.6-2.7-2.1-6-1.2-9.2
									L1206.2,1317.1z"/>
							</g>
							<path class="st8" d="M1227.8,1411.6L1227.8,1411.6c0,0,0-0.1,0-0.2c-0.5-1.5-1.1-2.9-1.8-4.3c-0.4-0.8-0.8-1.8-1.2-2.8
								c0,0-0.9,36.6-30.2,28.8c-29.3-7.9-118.5-31.8-118.5-31.8s-89.2-23.9-118.5-31.8s-11.8-40-11.8-40c-0.9,0.7-1.8,1.3-2.5,1.8
								c-1.3,0.9-2.5,1.8-3.7,2.8c-0.1,0.1-0.1,0.1-0.1,0.1l0,0c-4.4,4-7.7,9.2-9.4,15.3c-4.5,16.9,5.5,34.3,22.4,38.8l118.5,31.8
								l118.5,31.8c16.9,4.5,34.3-5.5,38.8-22.4C1229.9,1423.4,1229.6,1417.2,1227.8,1411.6z"/>
						</g>
						<path class="st7" d="M1209,1071l-41.5-11.1l-41.5-11.1c-53.9,201.2-105.7,205.9-105.7,205.9l88.7,23.8l88.7,23.8
							C1197.6,1302.1,1155.1,1272.2,1209,1071z"/>
					</g>
					
						<rect x="1164.3" y="954.6" transform="matrix(0.2588 -0.9659 0.9659 0.2588 -91.8559 1885.5814)" class="st7" width="36.8" height="96.1"/>
					
						<rect x="1172.5" y="965.3" transform="matrix(0.2588 -0.9659 0.9659 0.2588 -104.329 1890.7145)" class="st7" width="14.6" height="96.1"/>
					
						<rect x="1174" y="967.1" transform="matrix(0.2588 -0.9659 0.9659 0.2588 -106.4856 1891.6013)" class="st8" width="10.7" height="96.1"/>
					
						<rect x="1178.8" y="949.4" transform="matrix(0.2588 -0.9659 0.9659 0.2588 -85.7397 1883.063)" class="st8" width="10.7" height="96.1"/>
					<g>
						<path class="st7" d="M1227.2,1022.5l-92.9-24.9c-2-0.5-3.3-2.6-2.7-4.7l0,0c0.5-2,2.6-3.3,4.7-2.7l92.9,24.9
							c2,0.5,3.3,2.6,2.7,4.7l0,0C1231.4,1021.8,1229.3,1023,1227.2,1022.5z"/>
						<path class="st8" d="M1231.9,1019.8c-0.3,1-0.9,1.8-1.8,2.3s-1.9,0.6-2.9,0.4l-92.9-24.9c-2-0.5-3.2-2.7-2.7-4.7
							L1231.9,1019.8z"/>
					</g>
					<g>
						<path class="st7" d="M1232,1004.7l-92.9-24.9c-2-0.5-3.3-2.6-2.7-4.7l0,0c0.5-2,2.6-3.3,4.7-2.7l92.9,24.9
							c2,0.5,3.3,2.6,2.7,4.7l0,0C1236.1,1004.1,1234,1005.3,1232,1004.7z"/>
						<path class="st8" d="M1236.7,1002c-0.3,1-0.9,1.8-1.8,2.3s-1.9,0.6-2.9,0.4l-92.9-24.9c-2-0.5-3.2-2.7-2.7-4.7L1236.7,1002z"
							/>
					</g>
					<g>
						<path class="st7" d="M1222.8,1074.7L1112,1045c-6.8-1.8-10.8-8.8-9-15.6l0,0c1.8-6.8,8.8-10.8,15.6-9l110.8,29.7
							c6.8,1.8,10.8,8.8,9,15.6l0,0C1236.6,1072.5,1229.6,1076.5,1222.8,1074.7z"/>
						<path class="st8" d="M1238.4,1065.7c-0.9,3.4-3.1,6.1-5.9,7.7s-6.3,2.2-9.7,1.3l-110.7-29.7c-6.8-1.8-10.8-8.8-9-15.6
							L1238.4,1065.7z"/>
					</g>
					<g>
						<path class="st7" d="M1220.5,1047.7l-92.9-24.9c-4.1-1.1-6.5-5.3-5.4-9.4l0,0c1.1-4.1,5.3-6.5,9.4-5.4l92.9,24.9
							c4.1,1.1,6.5,5.3,5.4,9.4l0,0C1228.8,1046.4,1224.6,1048.8,1220.5,1047.7z"/>
						<path class="st8" d="M1229.9,1042.3c-0.5,2-1.9,3.7-3.6,4.7s-3.8,1.3-5.8,0.8l-92.9-24.9c-4.1-1.1-6.5-5.3-5.4-9.4
							L1229.9,1042.3z"/>
					</g>
				</g>
				<path class="st8" d="M1268.6,925.8l-121.3-32.5l14.2-7.1l5.1,9.9c0.2,0.4,0.5,0.5,0.7,0.6c0.4,0.1,1,0,1.3-0.5l6.7-11.7
					c-0.3-0.3-0.5-0.6-0.7-0.9c-0.2-0.2-0.3-0.4-0.4-0.5c-0.2-0.4-0.4-0.8-0.6-1.2l-0.2-0.4c-0.2-0.4-0.3-0.7-0.4-1.1l18.2-9.1
					c1.4,1.9,2.2,4.3,2,6.8c0,0.7-0.1,1.4-0.3,2.1c-0.8,2.8-2.7,5.2-5.3,6.5l4.9,16.3c0.2,0.6,0.6,0.7,0.8,0.8
					c0.2,0.1,0.7,0.1,1.1-0.3l11.8-12.8c-1.9-2.5-2.5-5.8-1.7-8.8c0.1-0.2,0.1-0.4,0.2-0.6c1.8-5.2,7.2-8.2,12.5-6.8
					c5.5,1.5,8.8,7.2,7.3,12.7c-0.8,3-3,5.5-5.9,6.8l3.9,17c0.1,0.6,0.6,0.8,0.8,0.9c0.2,0.1,0.7,0.1,1.1-0.3l12.4-11.6
					c-1.6-2.5-2.1-5.4-1.3-8.2v-0.1l0.1-0.2c0.1-0.5,0.4-1.1,0.6-1.6c1.1-2.2,3-3.9,5.1-4.8l11.2,16.9c-0.3,0.3-0.6,0.5-0.9,0.8
					l-0.4,0.3c-0.4,0.2-0.7,0.5-1.1,0.7c-0.1,0.1-0.3,0.1-0.4,0.2c-0.5,0.2-0.8,0.4-1.2,0.5l-0.1,13.4c0,0.6,0.4,1,0.9,1.1
					c0.2,0.1,0.5,0.1,0.9-0.2l9.4-6L1268.6,925.8z"/>
				<g>
					<path class="st7" d="M1271.5,907.2l-20.2,12.9c-1.9,1.2-4.5-0.2-4.4-2.4l0.1-18.1c0-2.5-3-3.9-4.9-2.1l-16.4,15.4
						c-1.6,1.5-4.3,0.7-4.8-1.5l-5-21.8c-0.5-2.3-3.4-3-4.9-1.3l-15.2,16.4c-1.5,1.6-4.2,1-4.9-1.1l-6.5-21.5
						c-0.7-2.4-4-2.8-5.3-0.6l-8.9,15.7c-1.1,2-4,1.9-5.1-0.1l-11-21.3c-1.3-2.6-5.2-1.8-5.4,1.1l-1.6,19.4l-6,76.2l92.9,24.9
						l33.4-68.9l0,0l8.4-17.6C1277,908.2,1274,905.6,1271.5,907.2z"/>
					<g>
						<circle class="st7" cx="1151.2" cy="870.6" r="8.6"/>
						<path class="st8" d="M1148.3,875c-2.4-0.6-4.3-2.1-5.6-3.9c0.2,3.6,2.6,6.9,6.3,7.9c4.6,1.2,9.3-1.5,10.5-6.1
							c0.2-0.9,0.3-1.7,0.2-2.6C1157.5,874.1,1152.9,876.2,1148.3,875z"/>
					</g>
					<g>
						<circle class="st7" cx="1214.7" cy="884.6" r="8.6"/>
						<path class="st8" d="M1213.6,888.5c-3.4-0.9-6-3.5-7.1-6.6c-0.1,0.2-0.2,0.4-0.2,0.5c-1.2,4.6,1.5,9.3,6.1,10.5
							s9.3-1.5,10.5-6.1c0-0.2,0.1-0.4,0.1-0.6C1220.6,888.5,1217.1,889.4,1213.6,888.5z"/>
					</g>
					<g>
						<circle class="st7" cx="1182.9" cy="877.6" r="8.6"/>
						<path class="st8" d="M1180.8,881.7c-2.8-0.8-5.1-2.7-6.4-5.1c-0.5,4.2,2.1,8.2,6.3,9.3c4.6,1.2,9.3-1.5,10.5-6.1
							c0.2-0.6,0.2-1.2,0.3-1.7C1189.1,881.2,1184.9,882.8,1180.8,881.7z"/>
					</g>
					<g>
						<circle class="st2" cx="1276.6" cy="904.2" r="8.6"/>
						<g>
							<circle class="st7" cx="1276.6" cy="904.2" r="8.6"/>
							<path class="st8" d="M1276.9,909.4c2.4,0.6,4.8,0.3,6.8-0.6c-2,3.1-5.7,4.7-9.4,3.7c-4.6-1.2-7.3-6-6.1-10.5
								c0.2-0.9,0.6-1.6,1.1-2.4C1269.4,904.1,1272.4,908.2,1276.9,909.4z"/>
						</g>
					</g>
					<g>
						<circle class="st7" cx="1245.6" cy="894.4" r="8.6"/>
						<path class="st8" d="M1245.5,899c2.8,0.8,5.7,0.2,8.1-1.2c-1.7,3.9-5.9,6.1-10.1,4.9c-4.6-1.2-7.3-6-6.1-10.5
							c0.2-0.6,0.4-1.1,0.6-1.6C1238.5,894.5,1241.4,897.9,1245.5,899z"/>
					</g>
				</g>
				<circle class="st7" cx="1222.8" cy="854.3" r="15.8"/>
				<path class="st8" d="M1220.3,863.5c-5.9-1.6-10.6-5.5-13.2-10.5c-0.6,7.5,4.1,14.5,11.6,16.6s15.2-1.7,18.3-8.5
					C1232.2,864,1226.2,865.1,1220.3,863.5z"/>
				<path class="st8" d="M1191.5,969.9c-37.9-10.1-47.5-34.3-47.5-34.3l-2.9,36.9l46.4,12.4l46.4,12.4l15.9-33.4
					C1249.9,963.9,1229.4,980,1191.5,969.9z"/>
			</g>
			<g id="XMLID_13_">
				<path id="XMLID_24_" class="st6" d="M1290.5,410.1l-23.9,204c28.6-6.9,61.4,10.1,99.8,90c25.2,52.4,22,106.2-7.1,120.4l-69,33.1
					l0,0l0,0c-63.4,30.5-90.2,106.6-59.7,170.1l164.3-78.9C1841.3,734.5,1828,631,1828,631l-124.3-258.8L1290.5,410.1z"/>
				<g id="XMLID_14_">
					<path id="XMLID_23_" class="st1" d="M1822.4,741l637.1-306.3c24.1-11.6,34.3-40.6,22.7-64.7L2330.5,54.6
						c-11.6-24.1-40.6-34.3-64.7-22.7l-637,306.3L1822.4,741z"/>
					<path id="XMLID_22_" class="st0" d="M1875.6,715.4l583.8-280.7c24.1-11.6,34.3-40.6,22.7-64.7L2330.5,54.6
						c-11.6-24.1-40.6-34.3-64.7-22.7L1682,312.6L1875.6,715.4z"/>
					<path id="XMLID_21_" class="st9" d="M2495.2,397.1L2317.5,27.5c-11.6-24.1-40.6-34.3-64.7-22.7l-571.7,274.9l219.7,457
						l571.7-274.9C2496.6,450.2,2506.8,421.3,2495.2,397.1z"/>
					<path id="XMLID_20_" class="st1" d="M1960.2,681.8c16.4-7.9,23.3-27.5,15.4-43.9s-27.5-23.3-43.9-15.4
						c-16.4,7.9-23.3,27.5-15.4,43.9S1943.8,689.7,1960.2,681.8z"/>
					<path id="XMLID_19_" class="st1" d="M2050.5,638.4c16.4-7.9,23.3-27.5,15.4-43.9c-7.9-16.4-27.5-23.3-43.9-15.4
						c-16.4,7.9-23.3,27.5-15.4,43.9C2014.5,639.4,2034.1,646.3,2050.5,638.4z"/>
					<path id="XMLID_18_" class="st1" d="M2140.7,595.1c16.4-7.9,23.2-27.5,15.4-43.9c-7.9-16.4-27.5-23.3-43.9-15.4
						c-16.4,7.9-23.3,27.5-15.4,43.9C2104.7,596,2124.3,602.9,2140.7,595.1z"/>
				</g>
			</g>
		</g>
	</g>
</g>
</svg>
