<?xml version="1.0" encoding="utf-8"?>
<!-- Generator: Adobe Illustrator 26.0.2, SVG Export Plug-In . SVG Version: 6.00 Build 0)  -->
<svg version="1.1" id="Layer_1" xmlns="http://www.w3.org/2000/svg" xmlns:xlink="http://www.w3.org/1999/xlink" x="0px" y="0px"
	 viewBox="0 0 647 556.1" style="enable-background:new 0 0 647 556.1;" xml:space="preserve">
<style type="text/css">
	.st0{fill-rule:evenodd;clip-rule:evenodd;fill:#FFFDF7;}
	.st1{filter:url(#Adobe_OpacityMaskFilter);}
	.st2{fill:url(#SVGID_00000101815992973049656690000006282693311910707860_);}
	.st3{mask:url(#SVGID_1_);fill-rule:evenodd;clip-rule:evenodd;fill:#EDE5D3;}
	.st4{fill-rule:evenodd;clip-rule:evenodd;fill:#FFFFFF;}
	.st5{fill-rule:evenodd;clip-rule:evenodd;fill:#DFD9CB;}
	.st6{fill:#98907B;}
	.st7{fill-rule:evenodd;clip-rule:evenodd;fill:#BDB6A4;}
	.st8{fill-rule:evenodd;clip-rule:evenodd;fill:#231C01;}
	.st9{fill-rule:evenodd;clip-rule:evenodd;fill:#362C01;}
	.st10{filter:url(#Adobe_OpacityMaskFilter_00000169551076433749441260000003707241877828624772_);}
	.st11{fill:url(#SVGID_00000103987216950225476130000017774526790883742106_);}
	.st12{mask:url(#SVGID_00000069371843399805627700000006768508272269327807_);fill-rule:evenodd;clip-rule:evenodd;fill:#796826;}
	.st13{filter:url(#Adobe_OpacityMaskFilter_00000139278758512152419960000012159164668151760537_);}
	.st14{fill:url(#SVGID_00000047742316051621663140000011826039527194818962_);}
	.st15{mask:url(#SVGID_00000147942323362908910160000011935918900551503543_);fill-rule:evenodd;clip-rule:evenodd;fill:#231C01;}
	.st16{fill:#6B5E2A;}
	.st17{fill-rule:evenodd;clip-rule:evenodd;fill:#231E0B;}
	.st18{fill-rule:evenodd;clip-rule:evenodd;fill:#3A3110;}
	.st19{fill-rule:evenodd;clip-rule:evenodd;fill:#CE5802;}
	.st20{filter:url(#Adobe_OpacityMaskFilter_00000057826992170042838140000001540332407327596173_);}
	.st21{fill:url(#SVGID_00000132087053658606759850000018078549750176307871_);}
	.st22{mask:url(#SVGID_00000105386445328721755590000009388296900345288637_);fill-rule:evenodd;clip-rule:evenodd;fill:#AB2702;}
	.st23{fill-rule:evenodd;clip-rule:evenodd;fill:#EC9C24;}
	.st24{fill-rule:evenodd;clip-rule:evenodd;fill:#FBD17C;}
	.st25{fill-rule:evenodd;clip-rule:evenodd;fill:#FB901D;}
	.st26{fill-rule:evenodd;clip-rule:evenodd;fill:#5F7419;}
	.st27{fill-rule:evenodd;clip-rule:evenodd;}
	.st28{fill:#0E0E0E;}
	.st29{fill:#F46000;}
	.st30{filter:url(#Adobe_OpacityMaskFilter_00000026865691276832986740000009480482141268978861_);}
	.st31{fill:url(#SVGID_00000132795314730012123660000000031411815966682520_);}
	.st32{mask:url(#SVGID_00000042002117653404597660000009221890225949804677_);fill-rule:evenodd;clip-rule:evenodd;fill:#C92100;}
	.st33{fill-rule:evenodd;clip-rule:evenodd;fill:#FFAD3B;}
	.st34{filter:url(#Adobe_OpacityMaskFilter_00000006669880387251137510000018413182938952609944_);}
	.st35{fill:url(#SVGID_00000093159007821112230400000009837493743697523106_);}
	.st36{mask:url(#SVGID_00000051346729824687947100000007643421379717086368_);fill-rule:evenodd;clip-rule:evenodd;fill:#FFD789;}
	.st37{filter:url(#Adobe_OpacityMaskFilter_00000028313735510051868440000005825692933869708989_);}
	.st38{fill:url(#SVGID_00000036232453556931372510000016467844606624824238_);}
	.st39{mask:url(#SVGID_00000098185828584384856630000016120631937768844172_);fill-rule:evenodd;clip-rule:evenodd;fill:#F44500;}
	.st40{filter:url(#Adobe_OpacityMaskFilter_00000074434138829761334900000005936441743710873532_);}
	.st41{fill:url(#SVGID_00000043416449448017594880000016977359882107783554_);}
	.st42{mask:url(#SVGID_00000044886886934691078330000002840082277086682522_);fill-rule:evenodd;clip-rule:evenodd;fill:#BB1D00;}
	.st43{fill-rule:evenodd;clip-rule:evenodd;fill:#302906;}
	.st44{fill-rule:evenodd;clip-rule:evenodd;fill:#F46000;}
	.st45{fill:#BB1D00;}
	.st46{fill:#FFFFFF;}
	.st47{filter:url(#Adobe_OpacityMaskFilter_00000021080551552834607680000008040743419064276914_);}
	.st48{fill:url(#SVGID_00000041293402089390793920000005162808463376422794_);}
	.st49{mask:url(#SVGID_00000028287175798343877020000007243644498229951370_);fill-rule:evenodd;clip-rule:evenodd;fill:#130F00;}
	.st50{fill-rule:evenodd;clip-rule:evenodd;fill:#FFC055;}
	.st51{fill-rule:evenodd;clip-rule:evenodd;fill:#BB1D00;}
	.st52{filter:url(#Adobe_OpacityMaskFilter_00000108272793067964886700000015085594183478825601_);}
	.st53{fill:url(#SVGID_00000019665071654086261820000017060362741737814916_);}
	.st54{mask:url(#SVGID_00000131352805544125497470000003743063911987472044_);fill-rule:evenodd;clip-rule:evenodd;fill:#6B5E18;}
	.st55{fill-rule:evenodd;clip-rule:evenodd;fill:#6B5E18;}
	.st56{filter:url(#Adobe_OpacityMaskFilter_00000145055342273410318250000002957156540503210670_);}
	.st57{fill:url(#SVGID_00000036245942193582578330000000187439719786165891_);}
	.st58{mask:url(#SVGID_00000068669373750384255720000011832131658250293925_);fill-rule:evenodd;clip-rule:evenodd;fill:#F44500;}
	.st59{filter:url(#Adobe_OpacityMaskFilter_00000053519856728275325220000001271948406118529941_);}
	.st60{fill:url(#SVGID_00000082329869074926928470000002997643241696432285_);}
	.st61{mask:url(#SVGID_00000042712252662419734580000010601872243456407450_);fill-rule:evenodd;clip-rule:evenodd;fill:#FFC055;}
	.st62{filter:url(#Adobe_OpacityMaskFilter_00000167371771463069300150000000416487248826519203_);}
	.st63{fill:url(#SVGID_00000090994282435181224480000014347665086240653494_);}
	.st64{mask:url(#SVGID_00000092414810103031667540000002620762106728457863_);fill-rule:evenodd;clip-rule:evenodd;fill:#364600;}
	.st65{filter:url(#Adobe_OpacityMaskFilter_00000173126971836051307130000010935570436207616167_);}
	.st66{fill:url(#SVGID_00000168103629206578004450000007393371305962948030_);}
	.st67{mask:url(#SVGID_00000132083640683039341340000003336570600219649428_);fill-rule:evenodd;clip-rule:evenodd;fill:#2E3B00;}
	.st68{filter:url(#Adobe_OpacityMaskFilter_00000173119439476905605060000010267518793316623501_);}
	.st69{fill:url(#SVGID_00000034772188169526344140000006388939129672316564_);}
	.st70{mask:url(#SVGID_00000009547672564798947530000017431282242592141481_);fill-rule:evenodd;clip-rule:evenodd;fill:#F44500;}
	.st71{filter:url(#Adobe_OpacityMaskFilter_00000120536933314464887060000008773025337761263036_);}
	.st72{fill:url(#SVGID_00000142163765970884617500000003263802215476670637_);}
	.st73{mask:url(#SVGID_00000171697513585342188650000009012544833598662043_);fill-rule:evenodd;clip-rule:evenodd;fill:#FFD47E;}
	.st74{fill-rule:evenodd;clip-rule:evenodd;fill:#80962F;}
	.st75{filter:url(#Adobe_OpacityMaskFilter_00000105420080787864604370000007434744138921718970_);}
	.st76{fill:url(#SVGID_00000065072954068708453670000005467821530963292550_);}
	.st77{mask:url(#SVGID_00000144306592642834812520000008189343334088168584_);fill-rule:evenodd;clip-rule:evenodd;fill:#516603;}
	.st78{filter:url(#Adobe_OpacityMaskFilter_00000067214697463600620260000011212421219291429311_);}
	.st79{fill:url(#SVGID_00000037652042208918626040000003156023106371273643_);}
	.st80{mask:url(#SVGID_00000096038665969445614180000014137299707697925771_);fill-rule:evenodd;clip-rule:evenodd;fill:#B5CC61;}
	.st81{filter:url(#Adobe_OpacityMaskFilter_00000169545566644384306960000010336514011721082290_);}
	.st82{fill:url(#SVGID_00000174581904882424737860000011539098780463192748_);}
	.st83{mask:url(#SVGID_00000160153931869440016970000001370309751469483953_);fill-rule:evenodd;clip-rule:evenodd;fill:#879C3A;}
	.st84{fill:#756D48;}
	.st85{fill-rule:evenodd;clip-rule:evenodd;fill:#9E9682;}
	.st86{fill-rule:evenodd;clip-rule:evenodd;fill:#443C1C;}
	.st87{fill-rule:evenodd;clip-rule:evenodd;fill:#6E653E;}
</style>
<g>
	<path class="st0" d="M409.4,63.8c2.7,0,5.3,0.1,7.9,0.2l0.7,0c7.7,0.3,15.3,1,22.8,2.1c0.6,0.1,1.3,0.2,1.9,0.3
		c1.1,0.2,2.3,0.4,3.4,0.6c0.5,0.1,1.1,0.2,1.6,0.3c1.2,0.2,2.5,0.5,3.7,0.7l0,0c0.3,0.1,0.5,0.1,0.8,0.2l0,0c2.4,0.5,4.7,1,7.1,1.6
		c0.1,0,0.2,0,0.3,0.1c1,0.2,2,0.5,3,0.7c0.3,0.1,0.7,0.2,1,0.3c1,0.2,1.9,0.5,2.8,0.8c0.3,0.1,0.7,0.2,1,0.3c1,0.3,2,0.6,3,0.8
		l0.2,0.1c3.4,1,6.7,2.1,10,3.3c0.2,0.1,0.4,0.2,0.7,0.2c1,0.4,2,0.7,3,1.1c0.2,0.1,0.5,0.2,0.7,0.3c1,0.4,2,0.8,3,1.2l0.1,0
		c3.4,1.3,6.7,2.8,10,4.3l0.1,0.1c1,0.5,2.1,1,3.1,1.4l0.4,0.2c72,34.5,121.7,108,121.7,193.2c0,118.3-95.9,214.2-214.2,214.2
		c-65.7,0-124.5-29.6-163.7-76.1c-17,5.8-35.2,8.9-54.2,8.9c-92.7,0-167.8-75.1-167.8-167.8c0-92.7,75.1-167.8,167.8-167.8
		c30.3,0,58.7,8,83.2,22.1C311.5,81.7,358.4,63.8,409.4,63.8"/>
	<defs>
		<filter id="Adobe_OpacityMaskFilter" filterUnits="userSpaceOnUse" x="23.7" y="63.8" width="599.9" height="428.4">
			<feColorMatrix  type="matrix" values="1 0 0 0 0  0 1 0 0 0  0 0 1 0 0  0 0 0 1 0"/>
		</filter>
	</defs>
	<mask maskUnits="userSpaceOnUse" x="23.7" y="63.8" width="599.9" height="428.4" id="SVGID_1_">
		<g class="st1">
			
				<linearGradient id="SVGID_00000057131715054783296520000009175658486234555824_" gradientUnits="userSpaceOnUse" x1="-271.4922" y1="472.612" x2="187.4279" y2="480.312" gradientTransform="matrix(1 0 0 1 295.2969 -199.622)">
				<stop  offset="0" style="stop-color:#000000"/>
				<stop  offset="1" style="stop-color:#FFFFFF"/>
			</linearGradient>
			
				<rect x="23.7" y="63.8" style="fill:url(#SVGID_00000057131715054783296520000009175658486234555824_);" width="599.9" height="428.4"/>
		</g>
	</mask>
	<path class="st3" d="M409.4,63.8c2.7,0,5.3,0.1,7.9,0.2l0.7,0c7.7,0.3,15.3,1,22.8,2.1c0.6,0.1,1.3,0.2,1.9,0.3
		c1.1,0.2,2.3,0.4,3.4,0.6c0.5,0.1,1.1,0.2,1.6,0.3c1.2,0.2,2.5,0.5,3.7,0.7l0,0c0.3,0.1,0.5,0.1,0.8,0.2l0,0c2.4,0.5,4.7,1,7.1,1.6
		c0.1,0,0.2,0,0.3,0.1c1,0.2,2,0.5,3,0.7c0.3,0.1,0.7,0.2,1,0.3c1,0.2,1.9,0.5,2.8,0.8c0.3,0.1,0.7,0.2,1,0.3c1,0.3,2,0.6,3,0.8
		l0.2,0.1c3.4,1,6.7,2.1,10,3.3c0.2,0.1,0.4,0.2,0.7,0.2c1,0.4,2,0.7,3,1.1c0.2,0.1,0.5,0.2,0.7,0.3c1,0.4,2,0.8,3,1.2l0.1,0
		c3.4,1.3,6.7,2.8,10,4.3l0.1,0.1c1,0.5,2.1,1,3.1,1.4l0.4,0.2c72,34.5,121.7,108,121.7,193.2c0,118.3-95.9,214.2-214.2,214.2
		c-65.7,0-124.5-29.6-163.7-76.1c-17,5.8-35.2,8.9-54.2,8.9c-92.7,0-167.8-75.1-167.8-167.8c0-92.7,75.1-167.8,167.8-167.8
		c30.3,0,58.7,8,83.2,22.1C311.5,81.7,358.4,63.8,409.4,63.8"/>
	<path class="st4" d="M382,110.9h141.9c0.9,0,1.7,0.8,1.7,1.7v4c0,0.9-0.8,1.7-1.7,1.7H382c-0.9,0-1.7-0.8-1.7-1.7v-4
		C380.3,111.7,381.1,110.9,382,110.9"/>
	<path class="st4" d="M382,127.3h141.9c0.9,0,1.7,0.8,1.7,1.7v4c0,0.9-0.8,1.7-1.7,1.7H382c-0.9,0-1.7-0.8-1.7-1.7v-4
		C380.3,128.1,381.1,127.3,382,127.3"/>
	<path class="st4" d="M382,144h141.9c0.9,0,1.7,0.8,1.7,1.7v4c0,0.9-0.8,1.7-1.7,1.7H382c-0.9,0-1.7-0.8-1.7-1.7v-4
		C380.3,144.8,381.1,144,382,144"/>
	<path class="st4" d="M382,160.4h141.9c0.9,0,1.7,0.8,1.7,1.7v4c0,0.9-0.8,1.7-1.7,1.7H382c-0.9,0-1.7-0.8-1.7-1.7v-4
		C380.3,161.2,381.1,160.4,382,160.4"/>
	<path class="st4" d="M382,176.4h141.9c0.9,0,1.7,0.8,1.7,1.7v4c0,0.9-0.8,1.7-1.7,1.7H382c-0.9,0-1.7-0.8-1.7-1.7v-4
		C380.3,177.1,381.1,176.4,382,176.4"/>
	<path class="st4" d="M382,192.8h141.9c0.9,0,1.7,0.8,1.7,1.7v4c0,0.9-0.8,1.7-1.7,1.7H382c-0.9,0-1.7-0.8-1.7-1.7v-4
		C380.3,193.5,381.1,192.8,382,192.8"/>
	<path class="st4" d="M382,209.5h141.9c0.9,0,1.7,0.8,1.7,1.7v4c0,0.9-0.8,1.7-1.7,1.7H382c-0.9,0-1.7-0.8-1.7-1.7v-4
		C380.3,210.2,381.1,209.5,382,209.5"/>
	<path class="st4" d="M382,225.9h141.9c0.9,0,1.7,0.8,1.7,1.7v4c0,0.9-0.8,1.7-1.7,1.7H382c-0.9,0-1.7-0.8-1.7-1.7v-4
		C380.3,226.7,381.1,225.9,382,225.9"/>
	<path class="st5" d="M215.2,91.3v287.2H75.8h-0.2h-0.2c-0.9-0.8-1.7-1.6-2.5-2.5c-30.4-30.4-49.2-72.4-49.2-118.8
		s18.8-88.4,49.2-118.8c30.4-30.4,72.4-49.2,118.8-49.2c8.1,0,16,0.6,23.7,1.7v0.2V91.3z"/>
	<path class="st6" d="M201.2,108h-86.9c-10.7,5.5-20.7,12.2-29.9,19.8h116.8V108z"/>
	<path class="st6" d="M114.1,211.6c10.2-0.9,20.2-0.2,30.4,0.5c9.9,0.7,19.8,0.1,29.7-1c8.5-0.9,17-2.5,25.6-1.7
		c0.5-0.4,1-0.8,1.5-1.2v-24.9H40.5c-9.3,19-14.9,39.5-16.6,60.6h9.5c-1.2-18.8,21.5-25,36.2-27.3c8.7-1.4,17.6-2,26.4-2.5
		C101.4,211.2,108.2,212.1,114.1,211.6z"/>
	<path class="st6" d="M26.2,274.6h175.5v-16.2H23.4c0,5.4,0.3,10.7,0.9,16C24.9,274.4,25.6,274.5,26.2,274.6z"/>
	<path class="st7" d="M201.7,270.9v48.4H35.6h-0.2h-0.2c-6-15.2-9.9-31.4-11.3-48.4H201.7z"/>
	<path class="st7" d="M201.2,194.7V244H33.6v-44.5c0.6-1.6,1.2-3.2,1.9-4.8H201.2z"/>
	<path class="st7" d="M48.7,168.8c6.8-11,14.9-21.2,24.1-30.3c6.4-6.4,13.3-12.3,20.6-17.6h107.8v47.9H48.7z"/>
	<path class="st8" d="M494.3,341c2.1,62.5-10.9,84.8-38.9,66.9c0,0,5.6-25.5,16.7-76.6c3.8-3.7,9.5-4.8,14.4-2.7
		C491.4,330.8,494.5,335.7,494.3,341"/>
	<path class="st9" d="M468.5,432.4c-0.6,19.4,13.3,36.2,32.5,39.3c17.3-8.2,33.5-18.7,48.1-31.3c0,0,8.2-19.3,24.6-57.9
		c18.5-29.4,17-67.2-3.6-95.1c-57.5,31.8-86.3,47.6-86.3,47.6C473.6,400,468.5,432.4,468.5,432.4"/>
	<defs>
		
			<filter id="Adobe_OpacityMaskFilter_00000023251205073572277090000017081748876633414079_" filterUnits="userSpaceOnUse" x="470.5" y="330.4" width="45.1" height="132.3">
			<feColorMatrix  type="matrix" values="1 0 0 0 0  0 1 0 0 0  0 0 1 0 0  0 0 0 1 0"/>
		</filter>
	</defs>
	
		<mask maskUnits="userSpaceOnUse" x="470.5" y="330.4" width="45.1" height="132.3" id="SVGID_00000011006520902352007320000016815292697136431539_">
		<g style="filter:url(#Adobe_OpacityMaskFilter_00000023251205073572277090000017081748876633414079_);">
			
				<linearGradient id="SVGID_00000031903838736942628300000010004562973788757419_" gradientUnits="userSpaceOnUse" x1="-189.6843" y1="642.9529" x2="-317.1443" y2="605.9429" gradientTransform="matrix(1 0 0 1 742.0479 -229.146)">
				<stop  offset="0" style="stop-color:#000000"/>
				<stop  offset="1" style="stop-color:#FFFFFF"/>
			</linearGradient>
			
				<rect x="470.5" y="330.4" style="fill:url(#SVGID_00000031903838736942628300000010004562973788757419_);" width="45.1" height="132.3"/>
		</g>
	</mask>
	
		<path style="mask:url(#SVGID_00000011006520902352007320000016815292697136431539_);fill-rule:evenodd;clip-rule:evenodd;fill:#796826;" d="
		M473.1,403.4c-6.8,27.8-0.4,47.6,19.1,59.3c22-22.4-3.3-42.7,4.2-67.7c5.3-17.7,24.8-23.4,17.5-45.7c-3.2-9.8-11.5-17-21.6-18.9
		c0,0-2.8,1.6-8.5,4.7C479.1,365.1,475.5,387.8,473.1,403.4"/>
	<defs>
		
			<filter id="Adobe_OpacityMaskFilter_00000054944953232613429190000014932741117627936921_" filterUnits="userSpaceOnUse" x="502.9" y="299" width="76.3" height="159.9">
			<feColorMatrix  type="matrix" values="1 0 0 0 0  0 1 0 0 0  0 0 1 0 0  0 0 0 1 0"/>
		</filter>
	</defs>
	
		<mask maskUnits="userSpaceOnUse" x="502.9" y="299" width="76.3" height="159.9" id="SVGID_00000085222161402684415850000001696403865014001334_">
		<g style="filter:url(#Adobe_OpacityMaskFilter_00000054944953232613429190000014932741117627936921_);">
			
				<linearGradient id="SVGID_00000108269809776582075120000017465740294892742056_" gradientUnits="userSpaceOnUse" x1="-271.0499" y1="616.3362" x2="-201.3499" y2="608.0862" gradientTransform="matrix(1 0 0 1 774.5006 -232.8831)">
				<stop  offset="0" style="stop-color:#000000"/>
				<stop  offset="1" style="stop-color:#FFFFFF"/>
			</linearGradient>
			
				<rect x="502.9" y="299" style="fill:url(#SVGID_00000108269809776582075120000017465740294892742056_);" width="76.3" height="159.9"/>
		</g>
	</mask>
	
		<path style="mask:url(#SVGID_00000085222161402684415850000001696403865014001334_);fill-rule:evenodd;clip-rule:evenodd;fill:#231C01;" d="
		M540.8,447.2c-5.4,4.2-10.9,8.1-16.7,11.8c16.4-18.2-10-30.8,5.8-64.1c7.7-16.1,18.1-32.2,5.6-49.9c-7.3-10.4-20.1-15.5-32.6-12.9
		c44.3-22.1,66.5-33.1,66.5-33.1c12.9,24.3,13,53.4,0.3,77.9C550.5,423.8,540.8,447.2,540.8,447.2"/>
	
		<rect x="437" y="395" transform="matrix(0.1881 -0.9821 0.9821 0.1881 26.1605 825.0315)" class="st16" width="150.1" height="3.3"/>
	<path class="st17" d="M203.9,158.1l-36.4,31.2v-0.6c0-1.6-1.3-2.9-2.9-2.9c-1.6,0-2.9,1.3-2.9,2.9v5.6l-31.7,27.1
		c-2.1-2.1-5.5-2.3-7.7-0.3L110,231.5c-2.4,2-2.6,5.6-0.6,8l1.6,1.9c2,2.4,5.6,2.6,8,0.6l12.2-10.4c2.3-2,2.6-5.4,0.8-7.7l29.6-25.3
		v209.6c2-0.3,4,0,5.9,0.7V193.5l38.5-33L203.9,158.1z"/>
	<path class="st18" d="M164.5,183.6L164.5,183.6c-3.4,0-6.1,2.8-6.1,6.1v13c0,3.4,2.8,6.1,6.1,6.1h0c3.4,0,6.1-2.8,6.1-6.1v-13
		C170.7,186.3,167.9,183.6,164.5,183.6"/>
	<path class="st19" d="M238.1,306.8c160.4,80.6,240.7,120.8,240.7,120.8s7.4,14.7,22.2,44.1c-87.9,41.5-192.7,18.7-255.3-55.6
		c-41.8,14.2-87.5,11.4-127.2-7.7c0,0,28.1-33.5,84.3-100.5c1.8-2.1,3.2-2.4,5.8-2.3C228.3,306.4,238.1,306.8,238.1,306.8"/>
	<defs>
		
			<filter id="Adobe_OpacityMaskFilter_00000080187832466091110910000009946421014174149260_" filterUnits="userSpaceOnUse" x="194.8" y="376.2" width="287.8" height="79.2">
			<feColorMatrix  type="matrix" values="1 0 0 0 0  0 1 0 0 0  0 0 1 0 0  0 0 0 1 0"/>
		</filter>
	</defs>
	
		<mask maskUnits="userSpaceOnUse" x="194.8" y="376.2" width="287.8" height="79.2" id="SVGID_00000000216692948491318670000014631334380604610207_">
		<g style="filter:url(#Adobe_OpacityMaskFilter_00000080187832466091110910000009946421014174149260_);">
			
				<linearGradient id="SVGID_00000135660155621014043790000011155279224863988154_" gradientUnits="userSpaceOnUse" x1="-269.6955" y1="668.607" x2="-21.3355" y2="640.017" gradientTransform="matrix(1 0 0 1 466.4134 -236.4673)">
				<stop  offset="0" style="stop-color:#000000"/>
				<stop  offset="1" style="stop-color:#FFFFFF"/>
			</linearGradient>
			
				<rect x="194.8" y="376.2" style="fill:url(#SVGID_00000135660155621014043790000011155279224863988154_);" width="287.8" height="79.2"/>
		</g>
	</mask>
	
		<path style="mask:url(#SVGID_00000000216692948491318670000014631334380604610207_);fill-rule:evenodd;clip-rule:evenodd;fill:#AB2702;" d="
		M194.8,376.2c193.5,48.4,289.4,74.7,287.7,79.2c-135-4.4-202.5-6.6-202.5-6.6c-12.6-9.6-24.1-20.5-34.4-32.6
		c-15.8,5.4-32.2,8.3-48.9,8.9C195.5,392.5,194.8,376.2,194.8,376.2"/>
	<path class="st19" d="M196.1,379.2h9.7v44.1c0,0.7,0,1.1,0,1.1c-2.3,0.2-4.7,0.3-7,0.4c-1.5-1-2.2-1.5-2.2-1.5h-0.5V379.2z"/>
	<path class="st23" d="M189.5,379.2h9.7v44.5c0,0.7,0,1.1,0,1.1c-3.2,0.1-6.5,0.2-9.7,0.2c0,0,0-0.3,0-0.9V379.2z"/>
	<path class="st19" d="M445.4,443.1h9.7v43.2c0,0.7,0,1,0,1c-2.4,0.5-4.8,1-7.2,1.4l-0.2-0.5c0,0-0.1,0-0.2,0
		c-0.6,0-1.2,0.2-1.7,0.5c-0.2,0-0.3,0-0.5,0V443.1z"/>
	<path class="st23" d="M438.8,443.1h9.7v45.4c0,0.1,0,0.2,0,0.2c-3.2,0.6-6.5,1.1-9.7,1.6c0,0,0-0.2,0-0.6V443.1z"/>
	<path class="st23" d="M404.6,319c22,17,33.1,25.4,33.1,25.4l50.7,98.3c1.5,0,3,0.5,4.2,1.5l0,8.6c-0.1,4.7-7.2,3.2-10,2.5
		c0,0-101.6-25.5-304.9-76.6c-1.4-0.4-2.1-0.9-2.1-1.8h0v0l0,0c0-6.4,0-9.6,0-9.7c2.1-1,4.6-0.6,6.2,1l64.8-83c2-2.6,4-2.3,7.8-1.3
		c94.5,22.4,141.8,33.6,141.8,33.6C401.8,318.5,404.6,319,404.6,319"/>
	<path class="st24" d="M404.6,309.3c22,17,33.1,25.4,33.1,25.4s17.3,33.6,52,100.8c4.7,8.9,4.8,13.2-7.1,10.1
		c0,0-101.6-25.5-304.9-76.6c-2.3-0.6-2.7-1.8-1.3-3.7c0,0,23.4-30,70.1-89.9c2-2.6,4-2.3,7.8-1.3c94.5,22.4,141.8,33.6,141.8,33.6
		C401.8,308.8,404.6,309.3,404.6,309.3"/>
	<path class="st4" d="M382.8,314.4c16.3,12.5,24.4,18.8,24.4,18.8s12.8,24.8,38.4,74.5c3.5,6.6,3.6,9.8-5.3,7.5
		c0,0-75.1-18.9-225.3-56.6c-1.7-0.4-2-1.3-0.9-2.7c0,0,17.3-22.1,51.8-66.4c1.5-1.9,2.9-1.7,5.7-0.9
		c69.9,16.5,104.8,24.8,104.8,24.8C380.7,314.1,382.8,314.4,382.8,314.4"/>
	<path class="st25" d="M388.1,283.8c10.1-3,20.8,2.1,24.9,11.8c4.1,9.7,0.2,20.9-9,26c-9.2,5.1-20.7,2.5-26.8-6.1
		c0,0-16.3,0.7-49.8-3c-7.4,1.1-14.9-2.9-21.7-7.1c0,0-2.4-1.5-7.2-4.6c0,0-2.6,0.3-7.7,1c3.4,5.6,0.1,6.4-9.9,2.4
		c-3-1.4-4.2-4.9-3.4-10.6c0.8-6.1,1.8-9.5,4.9-11.5c10.9-7.3,15.2-9.5,26.3-1.7c0,0,6.7,4.7,20.1,14.1
		C368.4,287.4,388.1,283.8,388.1,283.8"/>
	<path class="st26" d="M569.2,279.2c-54.1-83.3-137-109.5-198.2-85.5c-9.9,11.9-10.9,28.8-2.6,41.8l64.2,72.3
		c14.3,4.6,27.5,12,38.8,21.8C475.7,352.3,604.9,299.6,569.2,279.2"/>
	<path class="st27" d="M269.2,303.7L269.2,303.7c0.6-0.6,1.2-1.2,1.7-1.8c0.6-0.6,1.2-1.2,1.7-1.8c0.2,0.3,0.4,0.6,0.6,0.9
		c0.2,0.3,0.4,0.6,0.6,0.9c-0.8,0.3-1.6,0.6-2.4,0.9C270.8,303.1,270,303.4,269.2,303.7"/>
	<path class="st28" d="M282.2,296.3l-8.1,5.5c-0.6,0.4-1.3,0.2-1.7-0.3c-0.4-0.6-0.2-1.3,0.3-1.7l10.4-7.1
		C282.1,293.6,281.8,295.1,282.2,296.3 M311.4,273.3c0.6-0.4,1.3-0.2,1.7,0.3c0.4,0.6,0.2,1.3-0.3,1.7L290,291c-0.3,0-0.6,0-0.9,0
		c-0.4,0-0.8,0.1-1.1,0.2l-0.1,0c-0.2,0-0.4,0-0.6,0.1l0,0c-0.1,0-0.3,0-0.4,0c-0.2,0-0.4,0-0.6,0.1c-0.4,0-0.7,0.1-1.1,0.3
		c-0.2,0-0.4,0.1-0.6,0.1c-0.3,0.1-0.5,0.2-0.7,0.3L311.4,273.3z"/>
	<path class="st29" d="M284.7,297.5c0.5,0,0.8,0.4,0.8,0.8c0,0.5-0.4,0.8-0.8,0.8c-1.2,0-2.5-0.7-3.2-1.7c-0.4-0.5-0.7-1.1-0.8-1.7
		c-0.1-0.7-0.1-1.3,0.2-2c0.4-1.1,1.5-2,3.4-2.7c2.4-0.8,5.9-1.1,9.5-1.4c2.6-0.2,5.1-0.5,7.3-0.9c0.5-0.1,0.9,0.2,1,0.7
		c0.1,0.5-0.2,0.9-0.7,1c-2.2,0.4-4.8,0.7-7.5,0.9c-3.4,0.3-6.8,0.6-9.1,1.3c-1.4,0.4-2.1,1.1-2.3,1.7c-0.1,0.3-0.2,0.7-0.1,1
		c0.1,0.4,0.2,0.7,0.5,1C283.3,297.1,284,297.5,284.7,297.5"/>
	<path class="st25" d="M362.7,239.5c-1.4-14.6,0.6-31.2,5.3-45.1c0,0-4.2,0.6-11.5,2.5c-11.2-3.7-23.2,4.3-27.6,15.3
		c-4.4,11,0.5,23.5,11.1,28.6c0.2,1.6,0.3,2.4,0.3,2.4c0,1.7,0,2.6,0,2.6C344.5,240,351.9,237.9,362.7,239.5"/>
	<defs>
		
			<filter id="Adobe_OpacityMaskFilter_00000029763507002660870380000009533213478677649854_" filterUnits="userSpaceOnUse" x="329.8" y="205.6" width="30.3" height="35.1">
			<feColorMatrix  type="matrix" values="1 0 0 0 0  0 1 0 0 0  0 0 1 0 0  0 0 0 1 0"/>
		</filter>
	</defs>
	
		<mask maskUnits="userSpaceOnUse" x="329.8" y="205.6" width="30.3" height="35.1" id="SVGID_00000084522466373707586300000017086083076601502121_">
		<g style="filter:url(#Adobe_OpacityMaskFilter_00000029763507002660870380000009533213478677649854_);">
			
				<linearGradient id="SVGID_00000153678079229357345920000004096988863010427011_" gradientUnits="userSpaceOnUse" x1="-247.9845" y1="697.3272" x2="-264.4745" y2="652.3072" gradientTransform="matrix(1 0 0 1 601.3593 -451.1418)">
				<stop  offset="0" style="stop-color:#000000"/>
				<stop  offset="1" style="stop-color:#FFFFFF"/>
			</linearGradient>
			
				<rect x="329.8" y="205.6" style="fill:url(#SVGID_00000153678079229357345920000004096988863010427011_);" width="30.3" height="35.1"/>
		</g>
	</mask>
	
		<path style="mask:url(#SVGID_00000084522466373707586300000017086083076601502121_);fill-rule:evenodd;clip-rule:evenodd;fill:#C92100;" d="
		M338.9,217.7c5.2,15.3,7.8,23,7.8,23c4.3-1.6,8.9-2.1,13.4-1.5c-0.3-13.2-7.6-25.2-19.2-31.4c-2.2-2.5-5.9-2.8-8.5-0.9
		c-2.6,1.9-3.4,5.6-1.7,8.4C332.4,218.1,335.9,219.1,338.9,217.7"/>
	<path class="st33" d="M338.5,212.5c-15.4-12.3-36.3-10.6-53.2-0.4c-1.1,16.3,7.4,21.1,15.1,24.8c7.3,3.4,7.4,7.9,12.8,10.6
		c1.1,0.5,2.6,1.3,4.3,2.1c5.1,2.5,12,5.9,15.8,6.3c14.7,1.6,15.9-25,12.6-34.2C344.6,218.2,342.4,215.1,338.5,212.5"/>
	<defs>
		
			<filter id="Adobe_OpacityMaskFilter_00000103943524441844357080000011500083507694225314_" filterUnits="userSpaceOnUse" x="285.2" y="207.5" width="35.4" height="43.6">
			<feColorMatrix  type="matrix" values="1 0 0 0 0  0 1 0 0 0  0 0 1 0 0  0 0 0 1 0"/>
		</filter>
	</defs>
	
		<mask maskUnits="userSpaceOnUse" x="285.2" y="207.5" width="35.4" height="43.6" id="SVGID_00000014594062376446571070000016523462687519224752_">
		<g style="filter:url(#Adobe_OpacityMaskFilter_00000103943524441844357080000011500083507694225314_);">
			
				<linearGradient id="SVGID_00000009566829827014305920000016747446238369588611_" gradientUnits="userSpaceOnUse" x1="-241.9299" y1="671.8931" x2="-269.2099" y2="667.623" gradientTransform="matrix(1 0 0 1 556.7803 -440.6797)">
				<stop  offset="0" style="stop-color:#000000"/>
				<stop  offset="1" style="stop-color:#FFFFFF"/>
			</linearGradient>
			
				<rect x="285.2" y="207.5" style="fill:url(#SVGID_00000009566829827014305920000016747446238369588611_);" width="35.4" height="43.6"/>
		</g>
	</mask>
	
		<path style="mask:url(#SVGID_00000014594062376446571070000016523462687519224752_);fill-rule:evenodd;clip-rule:evenodd;fill:#FFD789;" d="
		M294.6,207.5c-3.2,1.2-6.3,2.8-9.3,4.6c-1.1,16.3,7.4,21.1,15.1,24.8c7.3,3.4,7.4,7.9,12.8,10.6c1.1,0.5,2.6,1.3,4.3,2.1
		c1,0.5,2.1,1,3.2,1.6C306.9,240.8,290.6,226.1,294.6,207.5"/>
	<defs>
		
			<filter id="Adobe_OpacityMaskFilter_00000161632271822793073480000014853572411920431760_" filterUnits="userSpaceOnUse" x="298.5" y="209.2" width="46.8" height="32.6">
			<feColorMatrix  type="matrix" values="1 0 0 0 0  0 1 0 0 0  0 0 1 0 0  0 0 0 1 0"/>
		</filter>
	</defs>
	
		<mask maskUnits="userSpaceOnUse" x="298.5" y="209.2" width="46.8" height="32.6" id="SVGID_00000032636083246869000420000009376143836135142574_">
		<g style="filter:url(#Adobe_OpacityMaskFilter_00000161632271822793073480000014853572411920431760_);">
			
				<linearGradient id="SVGID_00000145042289252973977790000017988305165319537331_" gradientUnits="userSpaceOnUse" x1="-243.4398" y1="697.5971" x2="-251.8498" y2="658.6171" gradientTransform="matrix(1 0 0 1 570.0489 -450.1074)">
				<stop  offset="0" style="stop-color:#000000"/>
				<stop  offset="1" style="stop-color:#FFFFFF"/>
			</linearGradient>
			
				<rect x="298.5" y="209.2" style="fill:url(#SVGID_00000145042289252973977790000017988305165319537331_);" width="46.8" height="32.6"/>
		</g>
	</mask>
	
		<path style="mask:url(#SVGID_00000032636083246869000420000009376143836135142574_);fill-rule:evenodd;clip-rule:evenodd;fill:#F44500;" d="
		M339.1,216.2c-25.3-8-38.7-9.2-40.3-3.5c-1,4.6,0.4,9.4,3.7,12.8c7.7,7.6,15.8,1.5,25.2,2.7c12.8,1.6,10,13.5,16.9,13.6
		C346.3,228.2,344.4,219.7,339.1,216.2"/>
	<defs>
		
			<filter id="Adobe_OpacityMaskFilter_00000075845546295143667000000003685589101087932836_" filterUnits="userSpaceOnUse" x="309.3" y="219.3" width="11.6" height="18.8">
			<feColorMatrix  type="matrix" values="1 0 0 0 0  0 1 0 0 0  0 0 1 0 0  0 0 0 1 0"/>
		</filter>
	</defs>
	
		<mask maskUnits="userSpaceOnUse" x="309.3" y="219.3" width="11.6" height="18.8" id="SVGID_00000180355119458467177180000014233359502464649389_">
		<g style="filter:url(#Adobe_OpacityMaskFilter_00000075845546295143667000000003685589101087932836_);">
			
				<linearGradient id="SVGID_00000164483036192207867820000000160396128825560989_" gradientUnits="userSpaceOnUse" x1="-267.8682" y1="692.226" x2="-264.2581" y2="675.486" gradientTransform="matrix(1 0 0 1 580.8889 -453.782)">
				<stop  offset="0" style="stop-color:#000000"/>
				<stop  offset="1" style="stop-color:#FFFFFF"/>
			</linearGradient>
			
				<rect x="309.3" y="219.3" style="fill:url(#SVGID_00000164483036192207867820000000160396128825560989_);" width="11.6" height="18.8"/>
		</g>
	</mask>
	
		<path style="mask:url(#SVGID_00000180355119458467177180000014233359502464649389_);fill-rule:evenodd;clip-rule:evenodd;fill:#BB1D00;" d="
		M315.1,219.3c3.9,0.5,5.9,0.8,5.9,0.8s-1.8,2.1-5.4,6.4c0.7,2.4,0.4,4.9-0.7,7.1c-1.2,2.2-3.2,3.8-5.5,4.5c1.8-1.5,2.8-3.6,2.9-5.9
		c0.1-2.3-0.8-4.5-2.4-6.1C313.3,221.5,315.1,219.3,315.1,219.3"/>
	<path class="st43" d="M296.4,224.2c0.3-0.1,0.6,0,0.8,0.1c0.2,0.1,0.4,0.4,0.5,0.6h0c0.1,0.3,0,0.6-0.1,0.8
		c-0.1,0.2-0.4,0.4-0.6,0.5v0c-0.4,0.1-0.8,0.2-1.2,0.4c-0.4,0.2-0.7,0.4-1,0.7c-0.3,0.3-0.6,0.6-0.9,0.9c-0.2,0.3-0.5,0.7-0.6,1.1
		h0c-0.1,0.3-0.3,0.5-0.6,0.6c-0.2,0.1-0.5,0.1-0.8,0c-0.3-0.1-0.5-0.3-0.6-0.6c-0.1-0.2-0.1-0.5,0-0.8h0c0.2-0.5,0.5-1,0.9-1.5
		c0.3-0.5,0.7-0.9,1.2-1.3c0.4-0.4,0.9-0.7,1.4-1C295.3,224.6,295.9,224.4,296.4,224.2 M331.6,207.9c11,7.7,39.6,0.7,26.7-21.8
		c-7.5-13-24.2-27.7-36.5-21c-12.5-8.1-26.7,1.4-42.6,28.5c1.5-29.8-39.3,12-19.1,24.7c6.2,3.9,16.7,3.8,28-1.4
		c11.5-5.2,8,2.5,12.5,4.4c4.8,2,9.7-3.6,18.3,2c4.3,2.8,10.7,4.6,6.7-4.5C330.8,210.8,331.6,207.9,331.6,207.9z"/>
	<path class="st44" d="M306.5,235.9c-5.6-6-1.8,6.1-0.7,9c1.9,5.5,5.1,10,8.6,4.5c0.3-3.2,2.5-3,2.3-5c-0.1-0.8-0.6-1.5-1.4-1.7
		c-0.8-0.3-1.6,0-2.2,0.5C308.7,238.3,306.5,235.9,306.5,235.9"/>
	<path class="st27" d="M302.3,229.6L302.3,229.6c0.3-0.5,0.9-0.7,1.4-0.4l1.9,1c0.5,0.3,0.7,0.9,0.4,1.4l0,0
		c-0.3,0.5-0.9,0.7-1.4,0.4l-1.9-1C302.2,230.8,302,230.1,302.3,229.6"/>
	<path class="st4" d="M300.4,230.1c0.8,0,1.4,0.6,1.4,1.4s-0.6,1.4-1.4,1.4c-0.8,0-1.4-0.6-1.4-1.4S299.6,230.1,300.4,230.1"/>
	<path class="st45" d="M322.3,250.1c-0.3,0.3-0.8,0.3-1.2,0c-0.3-0.3-0.3-0.8,0-1.2c1.1-1.1,1.8-2.4,2.1-3.9c0.3-1.4,0.3-3-0.2-4.4
		c-0.1-0.4,0.1-0.9,0.5-1s0.9,0.1,1,0.5c0.6,1.8,0.6,3.6,0.2,5.3C324.4,247.1,323.5,248.7,322.3,250.1"/>
	<path class="st46" d="M368.1,240.3c0.4,1.3-0.4,2.6-1.7,2.9c-1.3,0.4-2.7-0.3-3.1-1.6c-2.5-7.9-3.5-16.1-3-24.3
		c0.5-8.1,2.5-16.2,6-23.7c0.6-1.2,2-1.7,3.3-1.2c1.3,0.5,1.8,1.9,1.3,3.1c-3.3,7.1-5.1,14.6-5.6,22.1
		C364.8,225.2,365.7,232.9,368.1,240.3"/>
	<defs>
		
			<filter id="Adobe_OpacityMaskFilter_00000024707142232847682710000014765032835041222307_" filterUnits="userSpaceOnUse" x="306.3" y="162.3" width="55.3" height="54.3">
			<feColorMatrix  type="matrix" values="1 0 0 0 0  0 1 0 0 0  0 0 1 0 0  0 0 0 1 0"/>
		</filter>
	</defs>
	
		<mask maskUnits="userSpaceOnUse" x="306.3" y="162.3" width="55.3" height="54.3" id="SVGID_00000158742668475208565620000016678301464616300196_">
		<g style="filter:url(#Adobe_OpacityMaskFilter_00000024707142232847682710000014765032835041222307_);">
			
				<linearGradient id="SVGID_00000047025319936401075350000003577680624075911814_" gradientUnits="userSpaceOnUse" x1="-279.8775" y1="648.8185" x2="-229.2975" y2="671.1486" gradientTransform="matrix(1 0 0 1 577.8573 -475.2901)">
				<stop  offset="0" style="stop-color:#000000"/>
				<stop  offset="1" style="stop-color:#FFFFFF"/>
			</linearGradient>
			
				<rect x="306.3" y="162.3" style="fill:url(#SVGID_00000047025319936401075350000003577680624075911814_);" width="55.3" height="54.3"/>
		</g>
	</mask>
	
		<path style="mask:url(#SVGID_00000158742668475208565620000016678301464616300196_);fill-rule:evenodd;clip-rule:evenodd;fill:#130F00;" d="
		M331.6,207.9c11,7.7,39.6,0.7,26.7-21.8c-7.5-13-24.2-27.7-36.5-21c-4.9-3.2-10.1-3.7-15.6-1.4c16,14.8-1.2,39.2,20.8,52.9
		C330.9,210.3,331.6,207.9,331.6,207.9"/>
	<path class="st46" d="M298.8,226.3c0,0-0.1,0.1-0.1,0.2c-1,1.5-1.2,3.3-0.7,5c0.4,1.8,1.5,3.5,3.2,4.7c0.1,0.1,0.2,0.2,0.3,0.2h0
		c1.6,1.1,3.4,1.5,5,1.3c1.6-0.2,3-1,4-2.3c0.1-0.1,0.1-0.1,0.1-0.2c1-1.5,1.2-3.3,0.7-5c-0.4-1.8-1.5-3.5-3.2-4.7
		c-0.1-0.1-0.2-0.2-0.3-0.2h0c-1.6-1.1-3.4-1.5-5-1.3C301.2,224.2,299.8,225,298.8,226.3L298.8,226.3z M297.6,225.8
		c0-0.1,0.1-0.1,0.2-0.2l0,0c1.2-1.6,2.9-2.6,4.9-2.8c1.9-0.2,4,0.3,5.8,1.5l0,0c0.1,0.1,0.3,0.2,0.4,0.2c0.2,0.2,0.4,0.3,0.6,0.5
		l13.6-15.5l0.9,0.8l-13.6,15.6c1.1,1.2,1.8,2.6,2.2,4c0.5,2.1,0.3,4.2-0.9,6c-0.1,0.1-0.1,0.2-0.2,0.2c-1.2,1.6-2.9,2.6-4.9,2.8
		c-1.9,0.2-4-0.3-5.8-1.5l0,0c-0.1-0.1-0.3-0.2-0.4-0.2c-0.9-0.6-1.6-1.4-2.2-2.2c-0.2,0.1-0.4,0.3-0.5,0.5l0,0
		c-0.1,0.3-0.2,0.6-0.1,0.9c0.1,0.5-0.2,0.9-0.7,1c-0.5,0.1-0.9-0.2-1-0.7c-0.1-0.7,0-1.4,0.3-1.9c0,0,0,0,0-0.1
		c0.3-0.5,0.6-0.9,1.1-1.1c-0.3-0.6-0.5-1.2-0.7-1.8C296.2,229.8,296.5,227.6,297.6,225.8z"/>
	<path class="st50" d="M325.5,206c3.7-2.3,9-0.5,11.8,4c2.8,4.5,2.2,10.1-1.5,12.4c-3.7,2.3-9,0.5-11.8-4
		C321.1,213.8,321.8,208.3,325.5,206"/>
	<path class="st44" d="M328.8,209.6c2-1.3,5-0.3,6.6,2.2c1.6,2.5,1.2,5.6-0.8,6.9c-2,1.3-5,0.3-6.6-2.2
		C326.4,213.9,326.8,210.9,328.8,209.6"/>
	<path class="st51" d="M328.5,211.5c1.3-0.8,3.3-0.2,4.3,1.5c1,1.7,0.8,3.7-0.5,4.5c-1.3,0.8-3.3,0.2-4.3-1.5
		C326.9,214.3,327.2,212.3,328.5,211.5"/>
	<defs>
		
			<filter id="Adobe_OpacityMaskFilter_00000154404198405109897600000016769184854570642836_" filterUnits="userSpaceOnUse" x="254.6" y="183.1" width="29.7" height="37.9">
			<feColorMatrix  type="matrix" values="1 0 0 0 0  0 1 0 0 0  0 0 1 0 0  0 0 0 1 0"/>
		</filter>
	</defs>
	
		<mask maskUnits="userSpaceOnUse" x="254.6" y="183.1" width="29.7" height="37.9" id="SVGID_00000018213209508422221150000001598516444714924210_">
		<g style="filter:url(#Adobe_OpacityMaskFilter_00000154404198405109897600000016769184854570642836_);">
			
				<linearGradient id="SVGID_00000160158933025436975300000009311819327403184536_" gradientUnits="userSpaceOnUse" x1="-236.0339" y1="656.3384" x2="-281.5139" y2="692.7584" gradientTransform="matrix(1 0 0 1 526.1357 -470.8559)">
				<stop  offset="0" style="stop-color:#000000"/>
				<stop  offset="1" style="stop-color:#FFFFFF"/>
			</linearGradient>
			
				<rect x="254.6" y="183.1" style="fill:url(#SVGID_00000160158933025436975300000009311819327403184536_);" width="29.7" height="37.9"/>
		</g>
	</mask>
	
		<path style="mask:url(#SVGID_00000018213209508422221150000001598516444714924210_);fill-rule:evenodd;clip-rule:evenodd;fill:#6B5E18;" d="
		M279.3,193.1c1-28.7-39.2,12.6-19.1,25.2c5.4,3.4,14.3,3.7,24.1,0.2c-6.9-3.7-10.4-11.7-8.2-19.5
		C276.8,196.8,277.9,194.8,279.3,193.1"/>
	<path class="st55" d="M281.1,190.5c-0.3,0.5-0.7,1.1-1,1.6c0.3-0.3,0.7-0.7,1.1-1C281.2,190.9,281.2,190.7,281.1,190.5"/>
	<defs>
		
			<filter id="Adobe_OpacityMaskFilter_00000138566469319765873540000016786212268835683978_" filterUnits="userSpaceOnUse" x="328.4" y="286.6" width="87.1" height="34.8">
			<feColorMatrix  type="matrix" values="1 0 0 0 0  0 1 0 0 0  0 0 1 0 0  0 0 0 1 0"/>
		</filter>
	</defs>
	
		<mask maskUnits="userSpaceOnUse" x="328.4" y="286.6" width="87.1" height="34.8" id="SVGID_00000081618222768855295900000009388223333243569026_">
		<g style="filter:url(#Adobe_OpacityMaskFilter_00000138566469319765873540000016786212268835683978_);">
			
				<linearGradient id="SVGID_00000106857117850200535730000006551715528546176136_" gradientUnits="userSpaceOnUse" x1="-246.5556" y1="647.0193" x2="-211.1757" y2="699.3793" gradientTransform="matrix(1 0 0 1 599.9485 -370.4085)">
				<stop  offset="0" style="stop-color:#000000"/>
				<stop  offset="1" style="stop-color:#FFFFFF"/>
			</linearGradient>
			
				<rect x="328.4" y="286.6" style="fill:url(#SVGID_00000106857117850200535730000006551715528546176136_);" width="87.1" height="34.8"/>
		</g>
	</mask>
	
		<path style="mask:url(#SVGID_00000081618222768855295900000009388223333243569026_);fill-rule:evenodd;clip-rule:evenodd;fill:#F44500;" d="
		M385.4,315.1c4.6,5.7,12.3,7.9,19.2,5.3c6.9-2.6,11.3-9.3,10.9-16.7c-0.4-7.3-5.5-13.6-12.6-15.4c-5.8-2.4-12.4-2.2-18.1,0.5
		c-11.6,5.5-9.9,16.1-20.1,21.5c-14.7,7.7-25-13.7-36.3,0.5C366.4,313.6,385.4,315.1,385.4,315.1"/>
	<defs>
		
			<filter id="Adobe_OpacityMaskFilter_00000153699817197316131790000010009661489646344105_" filterUnits="userSpaceOnUse" x="307.2" y="281.3" width="68.8" height="21.6">
			<feColorMatrix  type="matrix" values="1 0 0 0 0  0 1 0 0 0  0 0 1 0 0  0 0 0 1 0"/>
		</filter>
	</defs>
	
		<mask maskUnits="userSpaceOnUse" x="307.2" y="281.3" width="68.8" height="21.6" id="SVGID_00000066510705315648838920000000116848780610237087_">
		<g style="filter:url(#Adobe_OpacityMaskFilter_00000153699817197316131790000010009661489646344105_);">
			
				<linearGradient id="SVGID_00000076589612302057681250000014307011619392953216_" gradientUnits="userSpaceOnUse" x1="-242.4757" y1="702.4413" x2="-235.4357" y2="674.0313" gradientTransform="matrix(1 0 0 1 578.8227 -388.9519)">
				<stop  offset="0" style="stop-color:#000000"/>
				<stop  offset="1" style="stop-color:#FFFFFF"/>
			</linearGradient>
			
				<rect x="307.2" y="281.3" style="fill:url(#SVGID_00000076589612302057681250000014307011619392953216_);" width="68.8" height="21.6"/>
		</g>
	</mask>
	
		<path style="mask:url(#SVGID_00000066510705315648838920000000116848780610237087_);fill-rule:evenodd;clip-rule:evenodd;fill:#FFC055;" d="
		M328.8,294.4c17.4-3.1,33.1-5.9,47.2-8.4c-15.1,3.4-16.9,15.2-29.6,16.8c-7.9,0.9-12.4-3-16.9-5.2c-3.5-1.7-6.7-1.1-9.8-0.6
		c-11.8,2.1-15.8-9.5-9.7-15.8C317.8,286.6,324,291,328.8,294.4"/>
	<defs>
		
			<filter id="Adobe_OpacityMaskFilter_00000101081066443339986430000000674287819629346746_" filterUnits="userSpaceOnUse" x="399.9" y="207.5" width="131.5" height="121.8">
			<feColorMatrix  type="matrix" values="1 0 0 0 0  0 1 0 0 0  0 0 1 0 0  0 0 0 1 0"/>
		</filter>
	</defs>
	
		<mask maskUnits="userSpaceOnUse" x="399.9" y="207.5" width="131.5" height="121.8" id="SVGID_00000025404088719916792200000010201629997104916373_">
		<g style="filter:url(#Adobe_OpacityMaskFilter_00000101081066443339986430000000674287819629346746_);">
			
				<linearGradient id="SVGID_00000080188145948426940410000005698695589573766306_" gradientUnits="userSpaceOnUse" x1="-211.3123" y1="595.6019" x2="-197.1223" y2="686.8519" gradientTransform="matrix(1 0 0 1 671.4428 -362.5435)">
				<stop  offset="0" style="stop-color:#000000"/>
				<stop  offset="1" style="stop-color:#FFFFFF"/>
			</linearGradient>
			
				<rect x="399.9" y="207.5" style="fill:url(#SVGID_00000080188145948426940410000005698695589573766306_);" width="131.5" height="121.8"/>
		</g>
	</mask>
	
		<path style="mask:url(#SVGID_00000025404088719916792200000010201629997104916373_);fill-rule:evenodd;clip-rule:evenodd;fill:#364600;" d="
		M399.9,213.5c9.3,53.3,25.4,85.3,48.3,96.2c9.5,4,18.5,9.7,27.1,17.1c2.3,5.9,45.2,2.4,53.8-18.9c8-19.7-5.7-46.1-32.8-41
		c-30.8,5.8-38.9,6.2-44.6-28.7c-1.5-9.3-3.7-18.5-13.2-25C427,205.3,411.6,205.9,399.9,213.5"/>
	<defs>
		
			<filter id="Adobe_OpacityMaskFilter_00000034073985361047723250000009875499340064389032_" filterUnits="userSpaceOnUse" x="399.8" y="205.2" width="66.6" height="114.7">
			<feColorMatrix  type="matrix" values="1 0 0 0 0  0 1 0 0 0  0 0 1 0 0  0 0 0 1 0"/>
		</filter>
	</defs>
	
		<mask maskUnits="userSpaceOnUse" x="399.8" y="205.2" width="66.6" height="114.7" id="SVGID_00000060732560697220890490000016884685470758782890_">
		<g style="filter:url(#Adobe_OpacityMaskFilter_00000034073985361047723250000009875499340064389032_);">
			
				<linearGradient id="SVGID_00000005979665397301859900000000544051982450974882_" gradientUnits="userSpaceOnUse" x1="-204.5938" y1="603.2808" x2="-261.0038" y2="655.5807" gradientTransform="matrix(1 0 0 1 671.4252 -372.0163)">
				<stop  offset="0" style="stop-color:#000000"/>
				<stop  offset="1" style="stop-color:#FFFFFF"/>
			</linearGradient>
			
				<rect x="399.8" y="205.2" style="fill:url(#SVGID_00000005979665397301859900000000544051982450974882_);" width="66.6" height="114.7"/>
		</g>
	</mask>
	
		<path style="mask:url(#SVGID_00000060732560697220890490000016884685470758782890_);fill-rule:evenodd;clip-rule:evenodd;fill:#2E3B00;" d="
		M450.1,310.5c4.9,2.1,10.4,5.3,16.4,9.4c-13.1-67.8-35.3-106-66.6-114.7C433.3,275.4,450.1,310.5,450.1,310.5"/>
	<path class="st33" d="M287.2,329.2c13,2.3,20,9.4,35,8.6c23.9,4.4,95.7,18,117.6,10.7c7.6-2.5,12.5-7.4,13.7-15.7
		c2.1-15-17.6-63.4-21.8-77.5c-30.4,15.8-45.6,23.7-45.6,23.7c10.2,23.1,15.3,34.7,15.3,34.7c-24.7,0.1-55.5,1.8-80.2,1.5
		c-25.1-10.1-56.6,7.7-46,12.2C278,328.7,283.8,328.6,287.2,329.2"/>
	<defs>
		
			<filter id="Adobe_OpacityMaskFilter_00000147219885934763753340000012392022795068187552_" filterUnits="userSpaceOnUse" x="363.6" y="272.3" width="86.2" height="75.6">
			<feColorMatrix  type="matrix" values="1 0 0 0 0  0 1 0 0 0  0 0 1 0 0  0 0 0 1 0"/>
		</filter>
	</defs>
	
		<mask maskUnits="userSpaceOnUse" x="363.6" y="272.3" width="86.2" height="75.6" id="SVGID_00000101792869047223451100000007161081583568423825_">
		<g style="filter:url(#Adobe_OpacityMaskFilter_00000147219885934763753340000012392022795068187552_);">
			
				<linearGradient id="SVGID_00000172399242239877574060000009747733568752287386_" gradientUnits="userSpaceOnUse" x1="-247.9079" y1="650.0447" x2="-153.5979" y2="669.3948" gradientTransform="matrix(1 0 0 1 635.1528 -343.8952)">
				<stop  offset="0" style="stop-color:#000000"/>
				<stop  offset="1" style="stop-color:#FFFFFF"/>
			</linearGradient>
			
				<rect x="363.6" y="272.3" style="fill:url(#SVGID_00000172399242239877574060000009747733568752287386_);" width="86.2" height="75.6"/>
		</g>
	</mask>
	
		<path style="mask:url(#SVGID_00000101792869047223451100000007161081583568423825_);fill-rule:evenodd;clip-rule:evenodd;fill:#F44500;" d="
		M424,278.8c6.6-4.3,10-6.4,10-6.4c4.2,12,15.6,43.6,15.8,55.2c0.5,32.8-59.8,16.6-86.2,14.8c5.7-4.2,12.4-6.2,20.1-6
		c9.2,0.2,18.9,5.1,27.8,6.1c18.8,2.3,26.9-16.2,17.8-32.5C423.2,299.2,414.1,289.4,424,278.8"/>
	<defs>
		
			<filter id="Adobe_OpacityMaskFilter_00000099655101080883760720000009947319287450623883_" filterUnits="userSpaceOnUse" x="325.6" y="285.8" width="93.2" height="44.1">
			<feColorMatrix  type="matrix" values="1 0 0 0 0  0 1 0 0 0  0 0 1 0 0  0 0 0 1 0"/>
		</filter>
	</defs>
	
		<mask maskUnits="userSpaceOnUse" x="325.6" y="285.8" width="93.2" height="44.1" id="SVGID_00000092453883056754259570000009059690279125966497_">
		<g style="filter:url(#Adobe_OpacityMaskFilter_00000099655101080883760720000009947319287450623883_);">
			
				<linearGradient id="SVGID_00000067921813073719478800000001406917548711907244_" gradientUnits="userSpaceOnUse" x1="-189.6902" y1="711.58" x2="-245.2202" y2="645.8599" gradientTransform="matrix(1 0 0 1 597.1929 -361.9647)">
				<stop  offset="0" style="stop-color:#000000"/>
				<stop  offset="1" style="stop-color:#FFFFFF"/>
			</linearGradient>
			
				<rect x="325.6" y="285.8" style="fill:url(#SVGID_00000067921813073719478800000001406917548711907244_);" width="93.2" height="44.1"/>
		</g>
	</mask>
	
		<path style="mask:url(#SVGID_00000092453883056754259570000009059690279125966497_);fill-rule:evenodd;clip-rule:evenodd;fill:#FFD47E;" d="
		M405,320.3c-3.3-5.5-4.1-7.2-4.8-6.5c-12.1,0.1-26.4,0.5-42.8,1c-8.4,0.3-19,0.5-31.8,0.5c9.8,13.3,19.3,2.7,30,5
		C369.9,323.4,385.4,340.2,405,320.3 M414.7,323.2c-4.3,1.6-8.9-1.9-13.9-10.5l0,0l0,0l0,0l0,0l0,0l0-0.1l0-0.1l0-0.1l0-0.1l0,0
		l0-0.1l-0.1-0.1l-0.1-0.1l0-0.1l0-0.1l-0.1-0.1l-0.1-0.2l0,0l-0.1-0.1l-0.1-0.2l0-0.1l0-0.1l-0.1-0.2l0-0.1l0-0.1l-0.1-0.2l0-0.1
		l-0.1-0.2l-0.1-0.2l0,0l-0.1-0.3l0-0.1l-0.1-0.2l-0.1-0.2l0-0.1l-0.1-0.3l0,0l-0.1-0.3l0-0.1l-0.1-0.3l0-0.1l-0.1-0.2l-0.1-0.1
		l-0.1-0.2l-0.1-0.1l-0.1-0.2l-0.1-0.1l-0.1-0.2l0-0.1l-0.1-0.3l0-0.1l-0.1-0.3l0,0l-0.1-0.3l0-0.1l-0.1-0.2l-0.1-0.2l0-0.1
		l-0.1-0.3l0,0l-0.1-0.3l-0.1-0.2l-0.1-0.1l-0.1-0.3l0,0l-0.1-0.2l-0.1-0.2l0,0l-0.1-0.3l-0.1-0.2l0-0.1l-0.1-0.2l-0.1-0.2l0,0
		l-0.1-0.2l-0.1-0.2l0,0l-0.1-0.2l-0.1-0.2l0-0.1l-0.1-0.1l-0.1-0.2l-0.1-0.2l0,0l-0.1-0.2l-0.1-0.2l-0.1-0.2l0,0l-0.1-0.1l-0.1-0.1
		l-0.1-0.1l0-0.1l0,0l-0.1-0.1l-0.1-0.1l0-0.1l0-0.1l0-0.1l0,0l0-0.1l0-0.1l0-0.1l0-0.1l0-0.1l0-0.1l0,0l0,0l0,0l0,0l0,0l0,0l0,0
		l0,0l0,0l-3.8-8.7c1.3-4.6,8.2-5.4,20.7-2.5c-5.3,1.8-6.5,8.4-1.9,12c1.1,0.8,2.3,1.6,3.6,2.6c2.3,1.7,4.5,4.1,5.3,8.6
		C419.4,315.2,418,319.9,414.7,323.2z"/>
	<path class="st29" d="M400.3,314.4c-0.3-0.6-0.1-1.4,0.5-1.7c0.6-0.3,1.4-0.1,1.7,0.5c2.1,3.6,4.1,6.2,6.1,7.9
		c1.8,1.5,3.5,2.2,5.2,2c0.7-0.1,1.3,0.4,1.4,1.1c0.1,0.7-0.4,1.3-1.1,1.4c-2.4,0.3-4.7-0.6-7.1-2.5
		C404.7,321.1,402.5,318.3,400.3,314.4"/>
	<path class="st74" d="M394.1,290.6c-6-0.5-8.7-3.5-11.7-8.6c-5.9-9.8-12.3-22.9-15.5-35.5c-10.6-41.2,27.6-55.1,49.1-30.7
		c9.7,10.9,16,28,18.8,42.2c1,5.2,1.4,8.6,0.4,11.6C431.3,281.6,406,291.6,394.1,290.6"/>
	<defs>
		
			<filter id="Adobe_OpacityMaskFilter_00000006682888265749300450000002464878643820969361_" filterUnits="userSpaceOnUse" x="379.5" y="213.1" width="51.9" height="72.4">
			<feColorMatrix  type="matrix" values="1 0 0 0 0  0 1 0 0 0  0 0 1 0 0  0 0 0 1 0"/>
		</filter>
	</defs>
	
		<mask maskUnits="userSpaceOnUse" x="379.5" y="213.1" width="51.9" height="72.4" id="SVGID_00000090996827430191899810000004277158260630604944_">
		<g style="filter:url(#Adobe_OpacityMaskFilter_00000006682888265749300450000002464878643820969361_);">
			
				<linearGradient id="SVGID_00000049184953501484392590000005361697110113217202_" gradientUnits="userSpaceOnUse" x1="-263.5645" y1="680.5073" x2="-222.6845" y2="623.7474" gradientTransform="matrix(1 0 0 1 651.0869 -406.3136)">
				<stop  offset="0" style="stop-color:#000000"/>
				<stop  offset="1" style="stop-color:#FFFFFF"/>
			</linearGradient>
			
				<rect x="379.5" y="213.1" style="fill:url(#SVGID_00000049184953501484392590000005361697110113217202_);" width="51.9" height="72.4"/>
		</g>
	</mask>
	
		<path style="mask:url(#SVGID_00000090996827430191899810000004277158260630604944_);fill-rule:evenodd;clip-rule:evenodd;fill:#516603;" d="
		M407.6,285.5c6.7-3,11.9-6,15.8-9.1c11.8-9.3,8.1-16.9,3.9-29.1c-1.8-5.2-4.1-10.9-6.8-16.1c-7.9-15.1-22.6-22.6-33.5-15.2
		c-13.9,9.4-7.3,28.5,11.1,33.6c6.6,1.8,13.2,4,16.2,14.4C416.5,271.9,413.9,280.3,407.6,285.5"/>
	<defs>
		
			<filter id="Adobe_OpacityMaskFilter_00000093856537263758491120000004349489868071057290_" filterUnits="userSpaceOnUse" x="365.1" y="203.9" width="24.3" height="78.1">
			<feColorMatrix  type="matrix" values="1 0 0 0 0  0 1 0 0 0  0 0 1 0 0  0 0 0 1 0"/>
		</filter>
	</defs>
	
		<mask maskUnits="userSpaceOnUse" x="365.1" y="203.9" width="24.3" height="78.1" id="SVGID_00000067942629115645481430000018078460575993723036_">
		<g style="filter:url(#Adobe_OpacityMaskFilter_00000093856537263758491120000004349489868071057290_);">
			
				<linearGradient id="SVGID_00000129916950972539520960000003181604598820524448_" gradientUnits="userSpaceOnUse" x1="-221.5278" y1="608.7545" x2="-296.8878" y2="696.2845" gradientTransform="matrix(1 0 0 1 636.6433 -409.7857)">
				<stop  offset="0" style="stop-color:#000000"/>
				<stop  offset="1" style="stop-color:#FFFFFF"/>
			</linearGradient>
			
				<rect x="365.1" y="203.9" style="fill:url(#SVGID_00000129916950972539520960000003181604598820524448_);" width="24.3" height="78.1"/>
		</g>
	</mask>
	
		<path style="mask:url(#SVGID_00000067942629115645481430000018078460575993723036_);fill-rule:evenodd;clip-rule:evenodd;fill:#B5CC61;" d="
		M388.9,203.9c-10.6,0.8-19.5,8.2-22.3,18.3c-2.2,7-2.1,15.1,0.3,24.3c3.5,12.5,8.7,24.5,15.5,35.5c4.6-4.2,7.2-10.3,6.9-16.6
		c-0.8-16.9-17.2-15.6-17.3-34.1c0-5.6,2-11,6.6-14.9C383.6,212.3,389.5,210.9,388.9,203.9"/>
	<defs>
		
			<filter id="Adobe_OpacityMaskFilter_00000168807900175082242960000016361542187266707895_" filterUnits="userSpaceOnUse" x="400.4" y="185.2" width="168.7" height="97.8">
			<feColorMatrix  type="matrix" values="1 0 0 0 0  0 1 0 0 0  0 0 1 0 0  0 0 0 1 0"/>
		</filter>
	</defs>
	
		<mask maskUnits="userSpaceOnUse" x="400.4" y="185.2" width="168.7" height="97.8" id="SVGID_00000098918441498025451100000012795577446446089386_">
		<g style="filter:url(#Adobe_OpacityMaskFilter_00000168807900175082242960000016361542187266707895_);">
			
				<linearGradient id="SVGID_00000082329777436442670200000007497462611466241708_" gradientUnits="userSpaceOnUse" x1="-238.6415" y1="669.4055" x2="-137.3915" y2="617.3455" gradientTransform="matrix(1 0 0 1 672.0001 -408.9257)">
				<stop  offset="0" style="stop-color:#000000"/>
				<stop  offset="1" style="stop-color:#FFFFFF"/>
			</linearGradient>
			
				<rect x="400.4" y="185.2" style="fill:url(#SVGID_00000082329777436442670200000007497462611466241708_);" width="168.7" height="97.8"/>
		</g>
	</mask>
	
		<path style="mask:url(#SVGID_00000098918441498025451100000012795577446446089386_);fill-rule:evenodd;clip-rule:evenodd;fill:#879C3A;" d="
		M442.6,187.5c-13.5-2.6-27.6-3-42.2-1.3c12.9,13.4,34.8,4.3,51,15.8c9.2,6.5,12,15.2,14.8,23.7c16.1,47.6,46,19.1,63.9,27
		c13.5,6,12.4,41.6,38.9,26.4c-10.4-16.1-22.4-30.6-35.8-43.4c-11.5-11.7-27.5-22.9-47.9-33.9C471.5,194.9,457.2,190.1,442.6,187.5"
		/>
	<path class="st84" d="M269,303.6c0.1-0.1,0.2-0.1,0.3,0c0.1,0.1,0.1,0.2,0,0.3l-35.8,47.4c-0.1,0.1-0.2,0.1-0.3,0
		c-0.1-0.1-0.1-0.2,0-0.3L269,303.6z"/>
	<path class="st85" d="M152.1,124.4h5.6c0.9,0,1.7,0.8,1.7,1.7v41c0,0.9-0.8,1.7-1.7,1.7h-5.6c-0.9,0-1.7-0.8-1.7-1.7v-41
		C150.5,125.2,151.2,124.4,152.1,124.4"/>
	<path class="st85" d="M141.4,124.4h5.6c0.9,0,1.7,0.8,1.7,1.7v41c0,0.9-0.8,1.7-1.7,1.7h-5.6c-0.9,0-1.7-0.8-1.7-1.7v-41
		C139.7,125.2,140.5,124.4,141.4,124.4"/>
	<path class="st85" d="M134.2,126.5l5,2.5c0.8,0.4,1.1,1.4,0.7,2.2l-18.6,36.6c-0.4,0.8-1.4,1.1-2.2,0.7l-5-2.5
		c-0.8-0.4-1.1-1.4-0.7-2.2l18.6-36.6C132.3,126.4,133.3,126.1,134.2,126.5"/>
	<path class="st85" d="M97.3,124.4h5.6c0.9,0,1.7,0.8,1.7,1.7v41c0,0.9-0.8,1.7-1.7,1.7h-5.6c-0.9,0-1.7-0.8-1.7-1.7v-41
		C95.6,125.2,96.4,124.4,97.3,124.4"/>
	<path class="st85" d="M80.8,203.4l5.1-2.3c0.8-0.4,1.8,0,2.2,0.8l17,37.3c0.4,0.8,0,1.8-0.8,2.2l-5.1,2.3c-0.8,0.4-1.8,0-2.2-0.8
		l-17-37.3C79.6,204.8,80,203.8,80.8,203.4"/>
	<path class="st85" d="M71.5,199.5h5.6c0.9,0,1.7,0.8,1.7,1.7v41c0,0.9-0.8,1.7-1.7,1.7h-5.6c-0.9,0-1.7-0.8-1.7-1.7v-41
		C69.9,200.3,70.6,199.5,71.5,199.5"/>
	<path class="st85" d="M60.8,199.5h5.6c0.9,0,1.7,0.8,1.7,1.7v41c0,0.9-0.8,1.7-1.7,1.7h-5.6c-0.9,0-1.7-0.8-1.7-1.7v-41
		C59.1,200.3,59.9,199.5,60.8,199.5"/>
	<path class="st85" d="M59.8,274.9h5.6c0.9,0,1.7,0.8,1.7,1.7v41c0,0.9-0.8,1.7-1.7,1.7h-5.6c-0.9,0-1.7-0.8-1.7-1.7v-41
		C58.1,275.7,58.9,274.9,59.8,274.9"/>
	<path class="st85" d="M49.1,274.9h5.6c0.9,0,1.7,0.8,1.7,1.7v41c0,0.9-0.8,1.7-1.7,1.7h-5.6c-0.9,0-1.7-0.8-1.7-1.7v-41
		C47.4,275.7,48.1,274.9,49.1,274.9"/>
	<path class="st85" d="M81.1,274.9h5.6c0.9,0,1.7,0.8,1.7,1.7v41c0,0.9-0.8,1.7-1.7,1.7h-5.6c-0.9,0-1.7-0.8-1.7-1.7v-41
		C79.5,275.7,80.2,274.9,81.1,274.9"/>
	<path class="st85" d="M70.4,274.9H76c0.9,0,1.7,0.8,1.7,1.7v41c0,0.9-0.8,1.7-1.7,1.7h-5.6c-0.9,0-1.7-0.8-1.7-1.7v-41
		C68.7,275.7,69.4,274.9,70.4,274.9"/>
	<path class="st85" d="M110,274.9h5.6c0.9,0,1.7,0.8,1.7,1.7v41c0,0.9-0.8,1.7-1.7,1.7H110c-0.9,0-1.7-0.8-1.7-1.7v-41
		C108.3,275.7,109.1,274.9,110,274.9"/>
	<path class="st85" d="M118.8,280.7l4.9-2.8c0.8-0.5,1.8-0.2,2.3,0.6l20.5,35.5c0.5,0.8,0.2,1.8-0.6,2.3l-4.9,2.8
		c-0.8,0.5-1.8,0.2-2.3-0.6L118.1,283C117.7,282.2,118,281.1,118.8,280.7"/>
	<path class="st4" d="M234.8,191.3c6.7,0,12.2,5.4,12.2,12.2s-5.4,12.2-12.2,12.2c-6.7,0-12.2-5.4-12.2-12.2
		S228.1,191.3,234.8,191.3"/>
	<path class="st86" d="M257.5,177.6c-18,12.6-37.5,22.9-58.1,30.5c-6.5-10.5-6.6-23.7-0.3-34.3c0.8-1.4,1.7-2.6,2.7-3.8l-9.2-17.5
		c-2.8-5.4-1.4-11.9,3-15.6l-7.8-14.9c-0.7-1.4-0.2-3.2,1.2-3.9l0,0c1.4-0.7,3.2-0.2,3.9,1.2l7.8,14.9c5.6-1.4,11.7,1.1,14.5,6.4
		l9.1,17.4c1.7-0.2,3.4-0.2,5.1-0.1C241.7,158.7,252.5,166.3,257.5,177.6"/>
	<path class="st87" d="M255.6,177.6l-54.7,28.7c-1.9,1-2.6,3.4-1.6,5.2c1,1.9,3.4,2.6,5.2,1.6l54.7-28.7c1.9-1,2.6-3.4,1.6-5.2
		C259.8,177.4,257.5,176.7,255.6,177.6"/>
	<path class="st4" d="M246.2,162.2c0.4,0,0.8,0.4,0.8,0.8c0,0.4-0.4,0.8-0.8,0.8c-0.4,0-0.8-0.4-0.8-0.8
		C245.4,162.5,245.8,162.2,246.2,162.2"/>
</g>
</svg>
