<?xml version="1.0" encoding="utf-8"?>
<!-- Generator: Adobe Illustrator 27.0.0, SVG Export Plug-In . SVG Version: 6.00 Build 0)  -->
<svg version="1.1" id="Layer_1" xmlns="http://www.w3.org/2000/svg" xmlns:xlink="http://www.w3.org/1999/xlink" x="0px" y="0px"
	 viewBox="0 0 2500 2272.9" style="enable-background:new 0 0 2500 2272.9;" xml:space="preserve">
<style type="text/css">
	.st0{fill:#AEC7E6;}
	.st1{fill:#B7CDEB;}
	.st2{opacity:5.000000e-02;fill:#8DAADA;enable-background:new    ;}
	.st3{fill:#8DAADA;}
	.st4{fill:#29AECF;}
	.st5{fill:#36C2CF;}
	.st6{fill:#44D2ED;}
	.st7{fill:#144B8A;}
	.st8{fill:#3D75A9;}
	.st9{fill:#0C3461;}
	.st10{fill:#DB8918;}
	.st11{fill:#FBC977;}
	.st12{fill:#F89D1F;}
	.st13{fill:#CBDDF2;}
	.st14{fill:#9FBAE1;}
	.st15{fill:#CF3636;}
	.st16{fill:#FF8666;}
	.st17{fill:#ED4944;}
	.st18{fill:#114077;}
	.st19{fill:#FFC5B3;}
	.st20{fill:#FF333B;}
	.st21{fill:#FFD664;}
	.st22{fill:#58595B;}
	.st23{fill:#FFC81B;}
	.st24{opacity:0.2;enable-background:new    ;}
	.st25{fill:#071F3B;}
	.st26{fill:#E9F0F7;}
	.st27{fill:#4373A0;}
	.st28{fill:#F2A29B;}
	.st29{fill:#DCE9F7;}
	.st30{fill:#A1C0E6;}
	.st31{opacity:5.000000e-02;fill:#A1C0E6;enable-background:new    ;}
	.st32{opacity:5.000000e-02;enable-background:new    ;}
</style>
<g>
	<path class="st0" d="M2466.5,1062c0.7-0.7,1.4-1.4,2.1-2.2c0.1-0.2,0.3-0.3,0.4-0.5c2.3-2.5,4.5-5.1,6.6-7.8c0-0.1,0.1-0.1,0.1-0.2
		c0.6-0.7,1.2-1.5,1.7-2.3c0.2-0.3,0.4-0.6,0.6-0.9c0.5-0.7,1-1.4,1.5-2.1c0.2-0.3,0.5-0.7,0.7-1c0.5-0.7,1-1.4,1.4-2.1
		c0.2-0.3,0.4-0.7,0.7-1c0.5-0.7,0.9-1.5,1.4-2.2c0.2-0.3,0.3-0.5,0.5-0.8c1-1.7,2-3.5,3-5.3c0-0.1,0.1-0.1,0.1-0.2
		c0.4-0.7,0.7-1.4,1.1-2.2c0.2-0.4,0.4-0.9,0.6-1.3c0.3-0.7,0.6-1.4,1-2.1c0.2-0.5,0.4-1,0.7-1.4c0.3-0.7,0.6-1.4,0.9-2
		c0.2-0.5,0.4-1,0.6-1.5c0.3-0.7,0.5-1.4,0.8-2.1c0.2-0.5,0.4-1,0.5-1.5c0.3-0.7,0.5-1.4,0.8-2.1c0.1-0.3,0.2-0.5,0.2-0.8
		c0.5-1.6,1-3.1,1.4-4.7c0.1-0.5,0.3-1,0.4-1.5c0.2-0.7,0.4-1.4,0.5-2.1c0.1-0.5,0.3-1.1,0.4-1.6c0.2-0.7,0.3-1.4,0.5-2.2
		c0.1-0.5,0.2-1.1,0.3-1.6c0.1-0.7,0.3-1.5,0.4-2.2c0.1-0.5,0.2-1,0.2-1.5c0.1-0.8,0.2-1.6,0.3-2.3c0-0.3,0.1-0.7,0.1-1
		c0.9-7.8,1-15.8,0.1-23.8c-4.2-37.4-28.2-68.3-61.9-86.2c0.3-0.4,0.6-0.8,0.9-1.2c0.6-0.8,1.1-1.5,1.7-2.3c0.2-0.3,0.4-0.6,0.6-0.9
		c1.2-1.7,2.3-3.4,3.4-5.1c0.4-0.6,0.7-1.1,1.1-1.7c0.5-0.8,0.9-1.6,1.4-2.4c0.3-0.6,0.7-1.2,1-1.8c0.5-0.8,0.9-1.6,1.3-2.4
		c0.3-0.6,0.6-1.2,0.9-1.8c0.4-0.8,0.9-1.7,1.3-2.5c0.3-0.6,0.5-1.1,0.8-1.7c0.4-0.9,0.8-1.8,1.2-2.7c0.2-0.4,0.3-0.8,0.5-1.2
		c3.9-9.1,6.8-18.7,8.6-28.8c14.1-80.8-49.7-159.5-142.6-175.8c-11.1-2-22.2-2.9-33.1-3c-18.2-80.3-91.4-148.2-188.2-165.2
		c-77.6-13.6-152.1,8.7-201.4,53.8c-10.8-17.6-25.9-44.7-28.9-63.5c-1.1-6.5-1.9-12.9-2.8-19.4c0-0.1,0-0.1,0-0.2l0,0
		c-3.3-23.2-7.9-46.2-27.7-67.8c-0.8-0.9-1.6-1.8-2.3-2.8l0,0c-0.3-0.4-0.6-0.8-1-1.3c-0.1-0.1-0.2-0.2-0.3-0.3
		c-0.1-0.2-0.3-0.4-0.4-0.6c-5.1-52.6-10.9-120.6-16.6-163.2c33.5-33.7,114.8-112.4,133.9-134.8c3-3.5,4.7-7.1,5.4-10.5
		c4.4,3.4,11.4,6.3,19.8,2.1c16.2-8.2,21.4-12,17.3-18.3c-0.4-0.7-1.1-1.1-1.9-1.4c16.8-9,11.8-21.1,9.6-27.9
		c-2.3-7.4-19.8-27.2-25.7-29c-4.7-1.4-25.1,12.8-34.9,20c-2.3,1.7-4,3-4.8,3.7c-1.4,1.1-2.4,2.5-3.4,4c-0.1,0.1-0.2,0.2-0.2,0.4
		l-0.1,0.1l0,0c-1.8,3-3.4,6.6-5.9,10.8c-0.1,0.2-0.3,0.4-0.4,0.6c-0.2,0.3-0.4,0.6-0.5,0.8c-0.2,0.3-0.4,0.5-0.5,0.8
		c-0.2,0.4-0.5,0.7-0.7,1.1c-0.3,0.4-0.5,0.8-0.8,1.1c-4.3-0.3-8,0.5-10.3,2.6c-9.8,8.7-102.1,81.5-139.6,111
		c0.2-8.4-3.5-18.3-9-30.7l-3.2-7.3c-0.7-3.1-2.7-10.2-8-18.4l0,0l-4.7-10.8c3.2-3.8,4.5-7.2,2.8-9.8C1720.6,34,1677.5,45,1659,54.9
		c-20.8,11.2-40.1,36.8-22.7,77.5c2,4.6,4,8.8,6.2,12.6l0,0c0,0,1.3,5.5,8.2,12.5l0,0c18.7,24.4,41.5,30.6,54.3,31.9
		c-0.3,1.2-0.6,2.4-0.9,3.5c-19,9.8-37.1,19.6-46.8,26.1l0,0l0,0c-1.7,1.1-3.2,2.2-4.3,3.1c-13.5,10.8-23.6,24.3-33.6,41.8
		c-2,3.5-4,7.1-6,11c-18.5,24.2-37.8,51.1-46.4,63.8c-8,5.1-16,9.6-22.5,15.6c-0.1,0.1-0.1,0.1-0.2,0.2c-0.1,0-0.1,0.1-0.2,0.1
		c-8.1,7.5-13.8,17.3-14.6,33.6c-1.3,29-6.9,59.6-14.1,85.2c-0.3,0-0.5,0-0.8,0.1c-76,8.6-136.2,57-155.8,117.9
		c-7.6-0.2-15.3,0.1-23,1c-71.7,8.1-126,60.3-130.4,121.2c-7.6,5.6-14.1,12.2-19.4,19.6c-20-2.6-40.9-2.8-62.1-0.4
		c-95.8,10.8-171.7,71.8-196.4,148.6c-9.5-0.2-19.2,0.2-29,1.3c-90.4,10.2-158.9,76.1-164.5,152.8c-19.4,14.3-33.4,33.9-39.1,55.7
		c-60.4,8-104.4,55.9-99.8,108.7l-57.6,33.3v-26.7l-268.8-155.2L0,1206.3v66.8l268.8,155.2l207.5-119.8c-4.6,10.5-7.1,22-7.1,33.9
		c0,19.6,6.8,37.9,18.4,53.1v159.2l268.8,155.2l218.8-126.3v252.7l268.8,155.2l218.8-126.4v252.7l268.8,155.2l268.8-155.2V1533
		c31.8-8.5,59.5-24.6,80.7-45.6c32.8,20.3,74.4,30.3,118.3,25.4c75.7-8.5,134.9-58.9,149.9-120.9c2.2-1.2,4.3-2.6,6.4-3.9
		c0.2-0.2,0.5-0.3,0.7-0.5c0.9-0.6,1.8-1.2,2.7-1.8c0.3-0.2,0.5-0.4,0.8-0.6c0.9-0.6,1.8-1.2,2.6-1.9c0.2-0.2,0.5-0.3,0.7-0.5
		c0.9-0.7,1.8-1.4,2.7-2.1c0,0,0,0,0.1,0c3.1-2.4,6-4.8,8.8-7.4c0.1-0.1,0.2-0.1,0.2-0.2c0.8-0.7,1.6-1.5,2.4-2.3
		c0.2-0.2,0.4-0.4,0.6-0.6c0.8-0.7,1.5-1.5,2.2-2.2c0.2-0.2,0.4-0.4,0.7-0.7c0.7-0.8,1.5-1.5,2.2-2.3c0.2-0.2,0.3-0.3,0.5-0.5
		c2.5-2.7,4.8-5.4,7-8.2c0-0.1,0.1-0.1,0.1-0.2c0.6-0.8,1.2-1.6,1.8-2.4c0.2-0.3,0.5-0.6,0.7-0.9c0.5-0.8,1.1-1.5,1.6-2.3
		c0.3-0.4,0.5-0.7,0.8-1.1c0.5-0.7,1-1.5,1.5-2.3c0.2-0.4,0.5-0.7,0.7-1.1c0.5-0.8,1-1.5,1.5-2.3c0.2-0.3,0.3-0.6,0.5-0.9
		c1.1-1.8,2.2-3.7,3.2-5.6c0-0.1,0.1-0.1,0.1-0.2c0.4-0.8,0.8-1.5,1.2-2.3c0.2-0.5,0.5-0.9,0.7-1.4c0.4-0.7,0.7-1.5,1-2.2
		c0.2-0.5,0.5-1,0.7-1.5c0.3-0.7,0.6-1.4,0.9-2.2c0.2-0.5,0.4-1.1,0.6-1.6c0.3-0.7,0.6-1.4,0.9-2.2c0.2-0.5,0.4-1.1,0.6-1.6
		c0.3-0.7,0.5-1.5,0.8-2.2c0.1-0.3,0.2-0.6,0.3-0.8c0.5-1.6,1-3.3,1.5-5c0.1-0.5,0.3-1.1,0.4-1.6c0.2-0.7,0.4-1.5,0.6-2.3
		c0.1-0.6,0.3-1.1,0.4-1.7c0.2-0.8,0.3-1.5,0.5-2.3c0.1-0.6,0.2-1.1,0.3-1.7c0.1-0.8,0.3-1.6,0.4-2.3c0.1-0.5,0.2-1.1,0.2-1.6
		c0.1-0.8,0.2-1.6,0.4-2.5c0-0.4,0.1-0.7,0.1-1.1c1-8.3,1-16.7,0.1-25.2c-4.3-38.3-28.2-70.2-62.1-89.4
		c42.2-20.4,72.8-56.1,82.9-97.3c2-1.2,4-2.4,6-3.7c0.2-0.1,0.5-0.3,0.7-0.4c0.9-0.6,1.7-1.1,2.6-1.7c0.3-0.2,0.5-0.4,0.8-0.5
		c0.8-0.6,1.7-1.2,2.5-1.8c0.2-0.2,0.4-0.3,0.6-0.5c0.9-0.6,1.7-1.3,2.6-1.9l0,0c2.9-2.2,5.7-4.6,8.4-7c0.1-0.1,0.1-0.1,0.2-0.2
		c0.8-0.7,1.5-1.4,2.3-2.1c0.2-0.2,0.4-0.4,0.6-0.6c0.7-0.7,1.4-1.4,2.1-2.1C2466.1,1062.4,2466.3,1062.2,2466.5,1062z
		 M1867.8,572.3c-7.4-2.4-15-4.4-22.8-5.9c0.4-0.2,0.8-0.4,1.3-0.6c3.1-1.4,6.6-2.7,10.6-4c0,0,0,0,0.1,0c0.5-0.2,1.1-0.3,1.6-0.5
		c0.1,0,0.1,0,0.2,0c1.7-0.5,3.4-1,5.2-1.4c0.1,0,0.1,0,0.2,0c0.5-0.1,1.1-0.3,1.6-0.4c0.2,0,0.3-0.1,0.5-0.1
		c0.5-0.1,1.1-0.3,1.6-0.4c0.1,0,0.2,0,0.3-0.1c1.7-0.4,3.5-0.7,5.4-1.1c0.2,0,0.4-0.1,0.6-0.1c0.5-0.1,1.1-0.2,1.6-0.3
		c0.2,0,0.4-0.1,0.7-0.1c1.1-0.2,2.2-0.3,3.2-0.5C1875.4,561.7,1871.5,566.9,1867.8,572.3z"/>
	<g>
		<path class="st1" d="M1174.4,757.6c4.6-17.3,15.6-32.8,31-44.2c4.4-60.9,58.7-113.1,130.4-121.2c7.8-0.9,15.5-1.2,23-1
			c19.5-60.9,79.8-109.3,155.8-117.9c77.5-8.8,148.4,26.5,180.2,83.6c8.3-2.4,16.9-4.1,25.8-5.2c74.3-8.4,140.5,37.2,147.9,101.8
			c5.2,45.9-20.7,89.1-62.8,113.2c-14.2,58.5-70.1,106-141.5,114.1c-41.4,4.7-80.7-4.7-111.7-23.9c-25.9,25.6-62,43.5-103.4,48.2
			c-29.7,3.4-58.3-0.6-83.6-10.1c-14.7,16.9-36.8,29-62.6,31.9c-29.3,3.3-56.6-5.9-75.2-22.9c-10.1,5-21.4,8.4-33.5,9.7
			c-49.7,5.6-93.9-24.9-98.8-68C1090.5,803.1,1125.8,764.1,1174.4,757.6z"/>
		<g>
			<path class="st2" d="M1552.6,857c31,19.2,70.2,28.6,111.6,23.9c71.5-8.1,127.3-55.6,141.5-114.1c35.5-20.4,59.5-54.3,63-92
				c-0.8,1.6-41,90.4-107,74c0,0,32.9,31.6-10.2,74.6C1669.4,905.3,1554.7,857.9,1552.6,857z"/>
			<path class="st2" d="M1216.9,888.1c0,0,3.4,7.6,10.8,15.9c18.6,17,45.9,26.2,75.2,22.9c25.8-2.9,47.9-14.9,62.6-31.9
				C1365.5,895,1292.8,950.1,1216.9,888.1z"/>
			<path class="st2" d="M1739.8,649.5c0,0-49.9-41.2-107.2-18.5c-57.3,22.7-38.8,80.1-38.8,80.1s-39.2-19.9-65.8,10.9
				c0,0,24.6-33.5,49.9-27.7c0,0-16.3-61.7,59.4-80.1C1713.1,595.9,1739.8,649.5,1739.8,649.5z"/>
			<path class="st3" d="M1474,808.7c0,0-52.4,38.9-95.1,23.5s-42.8-60.5-42.8-60.5S1360.4,862,1474,808.7z"/>
		</g>
		<path class="st1" d="M1585.5,707.8c11.7-19.3,30.6-34.1,53.2-42.4c27-72.1,111.3-115.9,200.9-100.2c9.7,1.7,19.1,4.1,28.2,7
			c45.3-66.7,135.4-103.8,230.3-87.2c96.9,17,170,84.9,188.2,165.2c10.9,0.1,21.9,1,33.1,3c92.9,16.3,156.7,95,142.6,175.8
			c-10,57.4-56.7,100.4-116.3,114.6c-38,65.7-122.5,103.3-211.8,87.6c-51.7-9.1-95.9-34.4-126.5-68.7
			c-40.4,21.8-90.5,30.6-142.3,21.5c-37.1-6.5-70.3-21.4-97.5-42c-23.8,15.2-54.8,21.9-87,16.3c-36.6-6.4-66.4-27.3-82.8-54.4
			c-14,2.4-28.9,2.5-44-0.2c-62.1-10.9-104.8-63.5-95.3-117.5C1467.9,733,1524.4,698.4,1585.5,707.8z"/>
		<g>
			<path class="st2" d="M2007.5,962.6c30.6,34.3,74.8,59.6,126.5,68.7c89.3,15.7,173.8-21.9,211.8-87.6c50.2-12,91.3-44.5,109-88.8
				c-1.5,1.6-81.8,94.7-155.7,51.4c0,0,28.5,49.9-38.9,86.6C2131.6,1062.6,2009.8,964.4,2007.5,962.6z"/>
			<path class="st2" d="M1590.5,880.8c0,0,1.4,10.4,7.4,23.1c16.4,27.1,46.2,48,82.8,54.4c32.2,5.7,63.2-1,87-16.3
				C1767.8,942.1,1660.2,982.8,1590.5,880.8z"/>
			<path class="st3" d="M2307.8,778.4c0,0-45.7-67.6-123.1-60.6c-77.4,7-75.4,83.1-75.4,83.1s-40.3-38-83.4-10.2
				c0,0,41.7-31.8,70.2-15.7c0,0,2.2-80.5,100.4-75.8C2294.6,704,2307.8,778.4,2307.8,778.4z"/>
			<path class="st2" d="M1929.7,876.3c0,0-77.3,28.4-123.4-5.5c-46.1-33.8-30.2-88.4-30.2-88.4S1773.2,900.3,1929.7,876.3z"/>
		</g>
		<g>
			<polygon class="st4" points="0,1206.3 268.8,1361.5 537.5,1206.3 268.8,1051.2 			"/>
			<polygon class="st5" points="268.8,1361.5 268.8,1428.3 0,1273.2 0,1206.3 			"/>
			<polygon class="st6" points="537.5,1206.3 537.5,1273.2 268.8,1428.3 268.8,1361.5 			"/>
		</g>
		<g>
			<polygon class="st7" points="487.6,1261.8 756.4,1417 1025.2,1261.8 756.4,1106.7 			"/>
			<polygon class="st8" points="756.4,1417 756.4,1709.8 487.6,1554.7 487.6,1261.8 			"/>
			<polygon class="st9" points="1025.2,1261.8 1025.2,1554.7 756.4,1709.8 756.4,1417 			"/>
		</g>
		<g>
			<polygon class="st10" points="975.2,1208.6 1244,1363.8 1512.7,1208.6 1244,1053.5 			"/>
			<polygon class="st11" points="1244,1363.8 1244,1991.4 975.2,1836.2 975.2,1208.6 			"/>
			<polygon class="st12" points="1512.7,1208.6 1512.7,1836.2 1244,1991.4 1244,1363.8 			"/>
		</g>
		<g>
			<g>
				<path class="st13" d="M695,1091c5.8-21.8,19.7-41.4,39.1-55.7c5.6-76.8,74-142.6,164.5-152.8c9.8-1.1,19.5-1.5,29-1.3
					c24.6-76.8,100.6-137.8,196.4-148.6c97.7-11,187.1,33.5,227.2,105.4c10.4-3,21.3-5.2,32.5-6.5c93.7-10.6,177.2,46.9,186.4,128.4
					c6.6,57.9-26.1,112.3-79.2,142.7c-17.9,73.8-88.4,133.7-178.4,143.8c-52.2,5.9-101.7-6-140.8-30.2
					c-32.6,32.3-78.2,54.9-130.4,60.8c-37.5,4.2-73.5-0.7-105.3-12.8c-18.5,21.3-46.4,36.5-78.9,40.2c-36.9,4.2-71.4-7.5-94.8-28.8
					c-12.8,6.3-27,10.5-42.3,12.3c-62.6,7.1-118.4-31.3-124.6-85.8C589.3,1148.4,633.7,1099.2,695,1091z"/>
				<path class="st14" d="M1171.8,1216.3c39.1,24.2,88.5,36.1,140.7,30.2c90.1-10.2,160.5-70.1,178.4-143.9
					c44.8-25.7,75.1-68.5,79.5-116c-1,2-51.7,114-134.9,93.3c0,0,41.4,39.9-12.9,94.1C1319.1,1277.2,1174.5,1217.4,1171.8,1216.3z"
					/>
				<path class="st14" d="M748.6,1255.5c0,0,4.2,9.6,13.7,20.1c23.4,21.4,57.9,33,94.8,28.8c32.5-3.7,60.4-18.8,78.9-40.2
					C936,1264.3,844.3,1333.7,748.6,1255.5z"/>
				<path class="st14" d="M1389.9,1003.2c0,0-1.5-78.1-76.4-98.6c-74.9-20.6-117.4,50.1-117.4,50.1s-24.4-49.7-74.5-38.9
					c0,0,50.2-15.1,71.2,10c0,0,46.3-66.7,127-35.2C1411.4,926.4,1389.9,1003.2,1389.9,1003.2z"/>
				<path class="st14" d="M1072.8,1155.4c0,0-66.1,49-119.9,29.6c-53.8-19.4-54-76.3-54-76.3S929.5,1222.7,1072.8,1155.4z"/>
			</g>
		</g>
		<g>
			<g>
				<polygon class="st15" points="1462.8,806.8 1731.6,962 2000.4,806.8 1731.6,651.6 				"/>
				<polygon class="st16" points="1731.6,962 1731.6,2272.9 1462.8,2117.7 1462.8,806.8 				"/>
				<polygon class="st17" points="2000.4,806.8 2000.4,2117.7 1731.6,2272.9 1731.6,962 				"/>
			</g>
			<g>
				<g>
					<path class="st18" d="M1757.2,169.5c0,0,143.1-112.4,155.3-123.4s59.9,13.3,38,38.9c-21.4,25-120.7,120.6-143.7,144.7
						C1783.3,254.5,1711.1,201.9,1757.2,169.5z"/>
					<path class="st19" d="M1935.6,23.7c3.9-3.2,33.8-25.4,39.6-23.6c5.8,1.8,23.4,21.6,25.7,29c2.3,7.4,7.9,20.7-13.5,29.8
						s-34.2,11.9-39.3,16.9c-5.1,5.1-37.8-17.8-28.4-28.2C1928.9,37.2,1929.8,28.5,1935.6,23.7z"/>
					<path class="st19" d="M1987.3,58.8c-7.8,3.3-14.5,5.8-20,7.8c-9.7,3.6-16.1,5.9-19.3,9.1c-5.1,5.1-37.8-17.8-28.5-28.2
						c6.9-7.7,9.2-14.4,12.2-19.3l0,0c1.1-1.8,2.2-3.3,3.7-4.5c3.9-3.2,33.8-25.4,39.6-23.6c5.8,1.8,23.4,21.6,25.7,28.9
						C2003.1,36.4,2008.7,49.8,1987.3,58.8z"/>
					<path class="st19" d="M1951.2,69.3c0,1.2,10.3,14.5,24.5,7.4c16.2-8.2,21.4-12,17.3-18.3C1988.4,51.2,1960.5,69.8,1951.2,69.3z
						"/>
				</g>
				<g>
					<g>
						<g>
							<path class="st20" d="M1771.3,159.6c0,0-99.4,47.5-118.2,62.5c-23.2,18.4-36.3,45-56.2,85.6s-65.1,32.7-67.4,80.4
								s-15.9,99.8-29.6,127.1s-10.5,60.6-19.1,83.7c-8.5,23.1-59.6,112-85.2,131.4c-25.6,19.5-34.1,34.7-53.5,39.3
								c0,0,89.7,33.7,124.1,14.3c34.4-19.5,59.5-70.9,90.1-77.3s71.5,12.8,105.7,0s62.2-67.5,89.6-73s77.4-55,85.7-62.5
								c8.3-7.5,41.5-18.5,70.7-14.8c0,0-35.3-51-40.2-80.9c-4.9-29.9-5.2-59.7-30.6-87.4c-25.4-27.7-41.2-123.5-40-153.5
								S1788.5,152.8,1771.3,159.6z"/>
							<path class="st21" d="M1908,556.3c-22.6-2.8-47.7,3.1-61.7,9.4c-4.1,1.8-7.2,3.7-9.1,5.4c-8.3,7.5-58.3,57-85.7,62.5
								c-17.3,3.5-34.7,26.5-53.9,46.2c-11.2,11.6-23,22.1-35.7,26.8c-34.2,12.8-75.2-6.4-105.7,0c-30.6,6.4-55.7,57.8-90.1,77.3
								c-33.1,18.8-117.8-11.9-123.8-14.1l0,0h-0.1h-0.1l0,0c19.5-4.6,28-19.8,53.5-39.3c25.6-19.5,76.7-108.3,85.2-131.4
								s5.3-56.4,19.1-83.7c13.8-27.3,27.4-79.3,29.6-127.1s47.5-39.9,67.3-80.4c19.9-40.6,33-67.2,56.2-85.6
								c18.9-15,118.2-62.5,118.2-62.5c17.3-6.8,27.2,45,26,75c-0.9,21.7,7.1,77.8,21.3,117.7c0,0,0,0,0,0.1
								c5.4,15.2,11.7,28.1,18.7,35.7c25.4,27.7,25.7,57.5,30.6,87.4C1872.7,505.3,1908,556.3,1908,556.3z"/>
							<path class="st22" d="M1831.9,478.4c0,0-1.9-11.1-18.2-14.7l8.4-75.6C1822,388.1,1833.5,430.6,1831.9,478.4z"/>
							<path class="st23" d="M1697.7,679.8c-11.2,11.6-23,22.1-35.7,26.8c-34.2,12.8-75.2-6.4-105.7,0
								c-30.6,6.4-55.7,57.8-90.1,77.3c-33.6,19-119.8-12.7-124-14.2c4,1.1,92.8,25.7,119.5,0c27.3-26.3,77.6-85.2,96.5-179.6
								c18.6-92.6,38.1-165.2,38.9-168.1c-0.5,4.2-17.1,151.6-13.8,186.8C1586.9,644.3,1614.4,709.7,1697.7,679.8L1697.7,679.8z"/>
							<path class="st23" d="M1908,556.3c-22.6-2.8-47.7,3.1-61.7,9.4c52.1-43.3,11.2-71.5,10-87.4s1.1-56.9-16.4-76
								c-16.9-18.4-21-47.9-21.3-50c5.4,15.2,11.7,28.1,18.7,35.7c25.4,27.7,25.7,57.5,30.6,87.4
								C1872.7,505.3,1908,556.3,1908,556.3z"/>
						</g>
						<path class="st24" d="M1640.2,278.3c0,0-2.4,49.3-42.6,72.4s-39.6,52.8-39.6,52.8s11-35.7,41.1-42.4
							S1638.4,319.7,1640.2,278.3z"/>
					</g>
					<g>
						<g>
							<g>
								<path class="st25" d="M1833.8,725.9c1.1,4.7,4.2,8.8,7.4,12.4c7.1,7.8,53.3,29.8,36.5,46.7c-15,15.2-42.6,7-67.8-3.8
									c-10.4-4.4-21.7-14.2-21.7-14.2s-3.9,3.1-4.7,2.6l-11.8-5.9c-1.5-0.7-2.5-2.1-2.7-3.8c0,0-2.8-31.7-3.8-42.6
									C1764.3,706.3,1826.9,696.8,1833.8,725.9z"/>
							</g>
							<path class="st9" d="M1819.1,459.9c0,0,11.9,224.3,18,267.2c4,27.8-68.1,31.1-71.8,2.5c-4.9-38-27.2-198.7-43.5-251.2
								C1705.5,425.8,1800.1,368.7,1819.1,459.9z"/>
							<g>
								<path class="st25" d="M1642.9,799.7c0,0-0.8,6.7-0.3,20c0.9,24.9,6.1,65.9,29.1,65c26-1,29.2-40.9,28.7-63.4
									c-0.2-10-1.2-17.6-1.2-18.8c0-26.2-14.9-30.5-26.5-30C1661,772.9,1642.9,770.2,1642.9,799.7z"/>
								<path class="st18" d="M1647.9,491.8c5.9,184.7-7.8,304.8-7.8,304.8c0,23.7,60.2,23.1,62.4,3.5
									c25.2-225.7,51.7-261.8,54.9-309.7C1761,436.2,1647.1,402.9,1647.9,491.8z"/>
							</g>
							<g>
								<path class="st26" d="M1805.6,177.9c-14.8-13.3-39.4-14.8-56.5-4.7c-10.2,6-23.4,12.3-36.9,20.1
									c-20.6,11.9-53.7,29.4-59.3,37.1c-8.1,11.1,1.9,61.8,1.9,128.1l-9.7,110.6c0,9.5,4.2,39.6,62.5,46
									c19.4,2.1,115.1-37.4,114.9-59.4C1821.8,395.1,1823.6,194,1805.6,177.9z"/>
								<path class="st7" d="M1750.7,172.3c0,0,31.2,24.9,52.6,116.7c16.8,72.2,24.3,138,26.2,200.3c0,0,19.6-9.7,12.8-33.6
									c-8.2-28.9-22.3-257.7-33.8-275.6S1765.3,164.3,1750.7,172.3z"/>
								<path class="st7" d="M1695.8,202.6c0,0,33.8,48,40.1,103.1c5.6,48.6-22.1,207-26,229.4c0,0-50,9.1-67.4-43.5
									c0,0,10-112.4,10.3-133.9s-16.3-105.4-4.1-124.8C1654.3,224.1,1691.8,204.9,1695.8,202.6z"/>
								<path class="st8" d="M1711.2,284.3l14.6,5l-12.7,10.9c7,11.4,21,59,21.5,60.8c2-22.9,2.9-42.8,1.3-55.3
									c-7-57.5-40.1-103-40.1-103.1C1707.3,238.9,1711.2,284.3,1711.2,284.3z"/>
								<path class="st8" d="M1750.9,172.4c1.8,1.5,31.8,27.7,52.5,116.6c2.8,12,5.3,23.9,7.6,35.6c0.3,1.3,0.5,2.5,0.7,3.6
									c0-2.3,0.9-59.7-2.1-76.9h-9.9l6.1-12.3C1805.9,238.9,1786.5,195.5,1750.9,172.4z"/>
							</g>
						</g>
					</g>
					<g>
						<path class="st0" d="M1706.5,200.8c0,0,12.8,16.9,50.7,14.8c0,0-0.8,16.5-1.6,35.7c0,0-50.2-17.4-58.3-41.7
							C1697.4,209.5,1704.7,203.1,1706.5,200.8z"/>
						<path class="st0" d="M1757.2,215.6c0,0,18.1,15.9,24.5,24.4c0,0,4.5-42.5-27.7-63.3l-12.3-5
							C1741.8,171.7,1763,191,1757.2,215.6z"/>
						<path class="st27" d="M1757.2,215.5l9.1-7.4l2.4,22.9c0,0,12.6,32.5,31.7,171.9l-12.3,18.8l-17.6-14.1
							c4.5-120.6-10.3-173.2-10.3-173.2l-15.2-15.9C1749.2,217.6,1757.2,215.5,1757.2,215.5z"/>
						<path class="st28" d="M1707.1,172.6c0.2,6.7-1.8,21.6-5.8,26.8c-4.4,5.7,28.7,27.8,56,16.2c9.2-3.9,3.5-34-13.9-45.4
							c0,0-15.2-12.4-24.3-8.5C1719,161.7,1706.8,165.4,1707.1,172.6z"/>
						<path class="st26" d="M1703.6,195c0,0,15.6,22.6,53.6,20.5c0,0-3.7,10.7-4.5,29.9c0,0-50.5-17.7-58.5-42.1
							C1694.3,203.4,1701.8,197.3,1703.6,195z"/>
						<path class="st26" d="M1757.2,215.6c0,0,16.7,10.5,23.1,19c0,0,0.7-41.3-27.7-63.3l-10.9,0.4
							C1741.8,171.7,1763,191,1757.2,215.6z"/>
					</g>
					<g>
						<path class="st21" d="M1657.4,219c14.5,3.2,19.3,20.5,32.2,13.2c13-7.3,4.5-14.6-10-25.2L1657.4,219z"/>
						<g>
							<path class="st0" d="M1688.6,222.8c0,0.2,0,0.4-0.1,0.5c0,0,0,0,0,0.1c-0.1,0.2-0.1,0.3-0.2,0.5c0,0,0,0.1-0.1,0.1
								c-0.1,0.2-0.2,0.3-0.4,0.4c-0.1,0.1-0.2,0.2-0.4,0.3c-0.1,0.1-0.2,0.2-0.3,0.2c-0.3,0.2-0.6,0.3-1,0.4
								c-0.1,0-0.3,0.1-0.4,0.1c-0.2,0-0.3,0.1-0.5,0.1s-0.4,0.1-0.6,0.1c-0.1,0-0.1,0-0.2,0c-0.3,0-0.6,0-0.9,0h-0.1
								c-0.3,0-0.6,0-0.8,0h-0.1c-0.3,0-0.6-0.1-0.8-0.1h-0.1c-0.2-0.1-0.5-0.1-0.7-0.2h-0.1c-0.3-0.1-0.5-0.2-0.8-0.4
								c-0.5-0.3-0.9-0.6-1.1-1c-0.3-0.4-0.4-0.7-0.4-1.1v2.1c0,0.8,0.5,1.5,1.5,2.1c0.2,0.1,0.5,0.2,0.7,0.4l0,0h0.1
								c0.1,0.1,0.3,0.1,0.4,0.2c0.1,0,0.2,0,0.3,0.1h0.1h0.1c0.2,0,0.3,0.1,0.5,0.1c0.1,0,0.1,0,0.2,0h0.1c0.1,0,0.1,0,0.2,0
								c0.2,0,0.3,0,0.5,0c0.1,0,0.1,0,0.2,0h0.1c0.1,0,0.2,0,0.2,0c0.2,0,0.4,0,0.6,0c0,0,0,0,0.1,0s0.1,0,0.2,0s0.3,0,0.4-0.1
								c0.1,0,0.1,0,0.2,0c0.2,0,0.3-0.1,0.5-0.1c0.1,0,0.2,0,0.3-0.1h0.1c0.4-0.1,0.7-0.3,1-0.4c0,0,0,0,0.1,0
								c0.1-0.1,0.2-0.1,0.3-0.2c0.1-0.1,0.3-0.2,0.4-0.3l0,0c0.1-0.1,0.2-0.2,0.3-0.3c0,0,0-0.1,0.1-0.1c0,0,0-0.1,0.1-0.1l0.1-0.1
								c0.1-0.1,0.1-0.2,0.1-0.3l0,0c0,0,0,0,0-0.1s0-0.1,0.1-0.2c0-0.1,0-0.2,0-0.3l0,0l0,0L1688.6,222.8z"/>
							<g>
								<path class="st26" d="M1687.1,220.7c2,1.1,2,3,0,4.2c-2,1.1-5.2,1.1-7.2,0c-2-1.2-2-3,0-4.2S1685.1,219.5,1687.1,220.7z"/>
							</g>
						</g>
					</g>
					<g>
						<path class="st21" d="M1751.1,169.4c14.5,3.2,20.2,22,33.2,14.7s5.2-14.2-9.4-24.7L1751.1,169.4z"/>
						<g>
							<path class="st0" d="M1783.3,174.6c0,0.2,0,0.4-0.1,0.5c0,0,0,0,0,0.1c-0.1,0.2-0.1,0.3-0.2,0.5c0,0,0,0.1-0.1,0.1
								c-0.1,0.2-0.2,0.3-0.4,0.4c-0.1,0.1-0.2,0.2-0.4,0.3c-0.1,0.1-0.2,0.2-0.3,0.2c-0.3,0.2-0.6,0.3-1,0.4
								c-0.1,0-0.3,0.1-0.4,0.1c-0.2,0-0.3,0.1-0.5,0.1s-0.4,0.1-0.6,0.1c-0.1,0-0.1,0-0.2,0c-0.3,0-0.6,0-0.9,0h-0.1
								c-0.3,0-0.6,0-0.8,0h-0.1c-0.3,0-0.6-0.1-0.8-0.1h-0.1c-0.2-0.1-0.5-0.1-0.7-0.2h-0.1c-0.3-0.1-0.5-0.2-0.8-0.4
								c-0.5-0.3-0.9-0.6-1.1-1c-0.3-0.4-0.4-0.7-0.4-1.1v2.1c0,0.8,0.5,1.5,1.5,2.1c0.2,0.1,0.5,0.2,0.7,0.4l0,0h0.1
								c0.1,0.1,0.3,0.1,0.4,0.2c0.1,0,0.2,0,0.3,0.1h0.1h0.1c0.2,0,0.3,0.1,0.5,0.1c0.1,0,0.1,0,0.2,0h0.1c0.1,0,0.1,0,0.2,0
								c0.2,0,0.3,0,0.5,0c0.1,0,0.1,0,0.2,0h0.1c0.1,0,0.2,0,0.2,0c0.2,0,0.4,0,0.6,0c0,0,0,0,0.1,0s0.1,0,0.2,0s0.3,0,0.4-0.1
								c0.1,0,0.1,0,0.2,0c0.2,0,0.3-0.1,0.5-0.1c0.1,0,0.2,0,0.3-0.1h0.1c0.4-0.1,0.7-0.3,1-0.4c0,0,0,0,0.1,0
								c0.1-0.1,0.2-0.1,0.3-0.2c0.1-0.1,0.3-0.2,0.4-0.3l0,0c0.1-0.1,0.2-0.2,0.3-0.3c0,0,0-0.1,0.1-0.1c0,0,0-0.1,0.1-0.1l0.1-0.1
								c0.1-0.1,0.1-0.2,0.1-0.3l0,0c0,0,0,0,0-0.1s0-0.1,0.1-0.2c0-0.1,0-0.2,0-0.3l0,0l0,0L1783.3,174.6z"/>
							<g>
								<path class="st26" d="M1781.8,172.5c2,1.1,2,3,0,4.2c-2,1.1-5.2,1.1-7.2,0c-2-1.2-2-3,0-4.2
									C1776.6,171.4,1779.8,171.4,1781.8,172.5z"/>
							</g>
						</g>
					</g>
					<g>
						<g>
							<path class="st19" d="M1708.5,53.8c3.2,0.2,23,2.7,30.8,16.2l24.6,56.4c11.2,25.3,15,40.4-7,52.7c0,0-59.5,27.5-96.6-13.7
								c0,0-51.2-63,1.9-101.7C1678.7,51.8,1699.4,53.4,1708.5,53.8z"/>
						</g>
						<path class="st18" d="M1659,54.9c18.5-10,61.7-20.9,91.9,25.2c8.8,13.5-63.7,48.9-63.7,48.9l18.3,36.9
							c0.4,0.6-0.4,1.3-0.9,0.9l-8.5-6c-2-1.4-4.2-2.4-6.6-2.9c-3.9-0.7-8.9,0-9.4,8.1c-0.7,11.2,24.2,20,32.6,22.7
							c0.6,0.2,0.4,1-0.1,1c-11,0.4-52.8-2.9-76.2-57.3C1618.8,91.8,1638.2,66.2,1659,54.9z"/>
					</g>
				</g>
				<g>
					<g>
						<g>
							<g>
								<g>
									<path class="st7" d="M1651.3,230c-21,18.3-85.4,109-88.9,115.6c-3.4,6.4-28,105.8-28.4,120.3c-0.9,27.2,51.2,31.6,55.3-0.1
										c3.8-29.7,18.8-76.2,21.3-86.1c1.6-6.4,72.1-75.8,86.8-93.5C1711.1,269.5,1671.9,212,1651.3,230z"/>
								</g>
							</g>
						</g>
						<g>
							<path class="st19" d="M1582.7,469.9l18.4,29.6c1.5,2.6,0.5,5.8-2.1,7.2l0,0c-2.3,1.2-5.2,0.5-6.7-1.6l-10.3-14.2
								c0,0-21.1,6.8-18.2-16.9S1582.7,469.9,1582.7,469.9z"/>
							<path class="st19" d="M1536.9,472.8c0,0-4.2,16-2.5,28.4c1.4,10.4,5.5,34.1,8.5,39.7c4.6,8.5,41.6-7,41.6-16.3
								c0-2.7-2.7-17.6-3.1-29.8c-0.3-10.4,3.1-19.1,2.8-20.4C1579.4,451,1539.7,455.9,1536.9,472.8z"/>
						</g>
					</g>
				</g>
			</g>
		</g>
		<g>
			<path class="st29" d="M577.4,1246.2c7.9-20.4,23.5-37.7,43.8-49.4c13.7-73.4,86.9-129.4,175.2-129.3c9.6,0,19,0.7,28.1,2
				c32.1-71.4,112-121.9,205.5-121.8c95.4,0,176.7,52.7,207.5,126.4c10.4-1.8,21.1-2.7,32.1-2.7c91.5,0,165.7,64.5,165.7,144.1
				c0,56.5-37.4,105.4-91.9,128.9c-25.3,69.1-99.8,119.2-187.7,119.2c-51,0-97.4-16.9-132.4-44.5c-35,27.6-81.4,44.4-132.3,44.4
				c-36.6,0-70.8-8.7-100.1-23.8c-20.2,18.5-48.7,30.1-80.4,30.1c-36,0-68-15-88.2-38.2c-13,4.6-27.2,7.2-42.1,7.2
				c-61.1,0-110.7-43.1-110.7-96.3C469.2,1290,517.4,1247.4,577.4,1246.2z"/>
			<g>
				<path class="st30" d="M1023.3,1419c35,27.6,81.4,44.4,132.3,44.4c87.9,0,162.4-50,187.7-119.2c46-19.9,79.8-57.8,89.3-103.1
					c-1.2,1.8-62.3,104.2-140.2,75.2c0,0,35.6,43-22.7,89.2C1158.6,1493.8,1025.8,1420.4,1023.3,1419z"/>
				<path class="st31" d="M611.1,1410.6c0,0,3,9.7,11,20.9c20.2,23.2,52.2,38.1,88.2,38.2c31.7,0,60.2-11.6,80.4-30.1
					C790.7,1439.5,694.8,1496.4,611.1,1410.6z"/>
				<path class="st30" d="M1279.4,1192.7c0,0-55-56.9-127.7-37.3c-72.7,19.7-58.2,92.1-58.2,92.1s-44.9-29.5-81.4,4.2
					c0,0,34.5-37.3,64.5-26.7c0,0-11.3-77.3,83.2-89.2S1279.4,1192.7,1279.4,1192.7z"/>
				<path class="st30" d="M934.5,1349.6c0,0-69.1,40-118.8,15.4s-43.7-79.4-43.7-79.4S789,1398.7,934.5,1349.6z"/>
			</g>
		</g>
		<g>
			<g>
				<path class="st13" d="M1805.2,1076c4.6-17.3,15.6-32.8,31-44.2c4.4-60.9,58.7-113.1,130.4-121.2c7.8-0.9,15.5-1.2,23-1
					c19.5-60.9,79.8-109.3,155.8-117.9c77.5-8.8,148.4,26.5,180.2,83.6c8.3-2.4,16.9-4.1,25.8-5.2c74.3-8.4,140.5,37.2,147.9,101.8
					c5.2,45.9-20.7,89.1-62.8,113.2c-14.2,58.5-70.1,106-141.5,114.1c-41.4,4.7-80.7-4.7-111.7-23.9c-25.9,25.6-62,43.5-103.4,48.2
					c-29.7,3.4-58.3-0.6-83.6-10.1c-14.7,16.9-36.8,29-62.6,31.9c-29.3,3.3-56.6-5.9-75.2-22.9c-10.1,5-21.4,8.4-33.5,9.7
					c-49.7,5.6-93.9-24.9-98.8-68C1721.3,1121.5,1756.6,1082.4,1805.2,1076z"/>
				<g>
					<path class="st14" d="M2183.4,1175.3c31,19.2,70.2,28.6,111.6,23.9c71.4-8.1,127.3-55.6,141.5-114.1c35.5-20.4,59.5-54.3,63-92
						c-0.8,1.6-41,90.4-107,74c0,0,32.9,31.6-10.2,74.6C2300.2,1223.6,2185.5,1176.2,2183.4,1175.3z"/>
					<path class="st14" d="M1847.7,1206.4c0,0,3.4,7.6,10.8,15.9c18.6,17,45.9,26.2,75.2,22.9c25.8-2.9,47.9-14.9,62.6-31.9
						C1996.3,1213.4,1923.6,1268.4,1847.7,1206.4z"/>
					<path class="st14" d="M2370.6,967.9c0,0-49.9-41.2-107.2-18.5s-38.8,80.1-38.8,80.1s-39.2-19.9-65.8,10.9
						c0,0,24.6-33.5,49.9-27.7c0,0-16.3-61.7,59.4-80.1C2343.9,914.2,2370.6,967.9,2370.6,967.9z"/>
					<path class="st14" d="M2104.8,1127c0,0-52.4,38.9-95.1,23.5c-42.7-15.4-42.8-60.5-42.8-60.5S1991.2,1180.4,2104.8,1127z"/>
				</g>
			</g>
		</g>
		<g>
			<g>
				<path class="st29" d="M1680.4,1382c4.8-18.3,16.5-34.8,32.9-46.8c4.7-64.5,62.2-119.8,138.2-128.4c8.2-0.9,16.4-1.3,24.4-1.1
					c20.7-64.6,84.5-115.8,165-124.9c82.1-9.3,157.2,28.1,190.9,88.5c8.8-2.5,17.9-4.4,27.3-5.5c78.7-8.9,148.9,39.4,156.7,107.8
					c5.5,48.6-21.9,94.4-66.5,119.9c-15.1,62-74.3,112.3-149.9,120.9c-43.9,5-85.5-5-118.3-25.4c-27.4,27.1-65.7,46.1-109.6,51.1
					c-31.5,3.6-61.8-0.6-88.5-10.7c-15.6,17.9-39,30.7-66.3,33.8c-31,3.5-60-6.3-79.7-24.2c-10.7,5.3-22.7,8.9-35.5,10.3
					c-52.6,5.9-99.5-26.3-104.7-72.1C1591.6,1430.2,1628.9,1388.9,1680.4,1382z"/>
				<g>
					<path class="st30" d="M2081.1,1487.3c32.8,20.4,74.4,30.3,118.2,25.3c75.7-8.5,134.9-58.9,149.9-120.9
						c37.6-21.6,63.1-57.5,66.8-97.5c-0.9,1.6-43.4,95.8-113.3,78.4c0,0,34.8,33.5-10.8,79
						C2204.8,1538.4,2083.4,1488.2,2081.1,1487.3z"/>
					<path class="st32" d="M1725.5,1520.2c0,0,3.6,8.1,11.5,16.9c19.7,18,48.7,27.7,79.7,24.2c27.3-3.1,50.7-15.8,66.3-33.8
						C1882.9,1527.6,1805.9,1585.9,1725.5,1520.2z"/>
					<path class="st30" d="M2279.4,1267.5c0,0-52.9-43.6-113.6-19.6c-60.7,24-41.1,84.9-41.1,84.9s-41.5-21-69.7,11.5
						c0,0,26.1-35.5,52.9-29.3c0,0-17.3-65.4,62.9-84.9C2251.1,1210.7,2279.4,1267.5,2279.4,1267.5z"/>
				</g>
			</g>
			<g>
				<path class="st26" d="M1109,1398.9c5.5-21,18.9-39.8,37.6-53.6c5.3-73.8,71.2-137.1,158.1-146.9c9.4-1.1,18.8-1.4,27.9-1.2
					c23.7-73.9,96.7-132.6,188.8-143c94-10.6,179.9,32.2,218.5,101.3c10-2.9,20.5-5,31.3-6.3c90.1-10.2,170.4,45.1,179.3,123.4
					c6.3,55.7-25.1,108-76.1,137.3c-17.2,70.9-85,128.6-171.6,138.3c-50.2,5.7-97.8-5.7-135.4-29c-31.4,31.1-75.2,52.8-125.4,58.5
					c-36,4.1-70.7-0.7-101.3-12.3c-17.8,20.5-44.6,35.1-75.8,38.6c-35.5,4-68.7-7.2-91.2-27.7c-12.3,6-26,10.1-40.7,11.8
					c-60.2,6.8-113.9-30.1-119.8-82.5C1007.4,1454,1050.1,1406.7,1109,1398.9z"/>
				<g>
					<path class="st0" d="M1567.6,1519.3c37.6,23.3,85.1,34.7,135.3,29c86.6-9.8,154.4-67.4,171.6-138.3
						c43.1-24.7,72.2-65.8,76.4-111.5c-1,1.9-49.7,109.6-129.7,89.7c0,0,39.8,38.3-12.4,90.4
						C1709.2,1577.9,1570.2,1520.4,1567.6,1519.3z"/>
					<path class="st0" d="M1160.6,1557c0,0,4.1,9.2,13.2,19.3c22.5,20.6,55.7,31.7,91.2,27.7c31.2-3.5,58-18.1,75.8-38.6
						C1340.8,1565.5,1252.6,1632.2,1160.6,1557z"/>
					<path class="st0" d="M1794.6,1267.8c0,0-60.5-49.9-130-22.4s-47,97.2-47,97.2s-47.5-24.1-79.8,13.2c0,0,29.9-40.6,60.5-33.5
						c0,0-19.8-74.8,72-97.1C1762.2,1202.8,1794.6,1267.8,1794.6,1267.8z"/>
					<path class="st0" d="M1472.3,1460.8c0,0-63.6,47.1-115.3,28.4c-51.8-18.7-51.9-73.4-51.9-73.4S1334.5,1525.4,1472.3,1460.8z"/>
				</g>
			</g>
		</g>
	</g>
</g>
</svg>
