<?xml version="1.0" encoding="utf-8"?>
<!-- Generator: Adobe Illustrator 26.0.2, SVG Export Plug-In . SVG Version: 6.00 Build 0)  -->
<svg version="1.1" id="Layer_1" xmlns="http://www.w3.org/2000/svg" xmlns:xlink="http://www.w3.org/1999/xlink" x="0px" y="0px"
	 viewBox="0 0 294.4 283" style="enable-background:new 0 0 294.4 283;" xml:space="preserve">
<style type="text/css">
	.st0{fill-rule:evenodd;clip-rule:evenodd;fill:#CCDB28;}
	.st1{fill-rule:evenodd;clip-rule:evenodd;fill:#273B7A;}
	.st2{fill-rule:evenodd;clip-rule:evenodd;fill:#386895;}
	.st3{fill-rule:evenodd;clip-rule:evenodd;fill:#4D0000;}
	.st4{fill-rule:evenodd;clip-rule:evenodd;fill:#121149;}
	.st5{fill-rule:evenodd;clip-rule:evenodd;fill:#FFC91B;}
	.st6{fill-rule:evenodd;clip-rule:evenodd;fill:#FDE085;}
	.st7{fill-rule:evenodd;clip-rule:evenodd;fill:#FFA930;}
	.st8{fill:#121149;}
	.st9{fill-rule:evenodd;clip-rule:evenodd;fill:#FFFFFF;}
	.st10{fill-rule:evenodd;clip-rule:evenodd;fill:#FFB175;}
	.st11{fill-rule:evenodd;clip-rule:evenodd;fill:#FF6214;}
	.st12{fill-rule:evenodd;clip-rule:evenodd;fill:#C40A00;}
	.st13{fill-rule:evenodd;clip-rule:evenodd;fill:#FFBA85;}
	.st14{fill-rule:evenodd;clip-rule:evenodd;fill:#FFE7C4;}
	.st15{fill-rule:evenodd;clip-rule:evenodd;fill:#592306;}
	.st16{fill-rule:evenodd;clip-rule:evenodd;fill:#360F01;}
	.st17{fill-rule:evenodd;clip-rule:evenodd;fill:#8A470C;}
	.st18{fill:#592306;}
	.st19{fill-rule:evenodd;clip-rule:evenodd;}
	.st20{fill:#FFFFFF;}
	.st21{fill:#C40A00;}
	.st22{fill:#DB8945;}
	.st23{fill:#F54105;}
	.st24{fill:#477B9E;}
	.st25{fill:#386895;}
	.st26{fill:#273B7A;}
	.st27{opacity:0.1;fill:#99CCFF;enable-background:new    ;}
	.st28{fill:#FDE085;}
	.st29{fill:#FFC91B;}
</style>
<g>
	<path class="st0" d="M76.6,101.2c-2-0.7-4.1,0-4.7,1.6s0.6,3.5,2.6,4.2s4.1,0,4.7-1.6C79.8,103.9,78.6,102,76.6,101.2z"/>
	<path class="st0" d="M75.6,108.5c-2.5-0.9-5.1,0-5.9,2c-0.7,2,0.7,4.4,3.2,5.3s5.1,0,5.9-2S78.1,109.4,75.6,108.5z"/>
	<path class="st0" d="M88,115.8c2.5-0.9,4-3.3,3.2-5.3c-0.7-2-3.4-2.9-5.9-2s-4,3.3-3.2,5.3S85.5,116.7,88,115.8z"/>
	<path class="st0" d="M73.4,128.6c-4.1-1.5-8.3,0-9.5,3.3c-1.2,3.3,1.2,7.1,5.3,8.6c4.1,1.5,8.3,0,9.5-3.3
		C79.8,133.9,77.5,130.1,73.4,128.6z"/>
	<path class="st0" d="M86.5,107.1c2-0.7,3.2-2.6,2.6-4.2s-2.7-2.3-4.7-1.6c-2,0.7-3.2,2.6-2.6,4.2S84.5,107.8,86.5,107.1z"/>
	<path class="st0" d="M86.5,117.2c-3.2,1.2-5,4.2-4.1,6.7c0.9,2.6,4.3,3.7,7.5,2.6c3.2-1.2,5-4.2,4.1-6.7
		C93.1,117.2,89.7,116.1,86.5,117.2z"/>
	<path class="st0" d="M80.4,101.8c1.7,0,3.1-1.7,3.2-3.8c0.1-2.1-1.3-3.9-3-3.9s-3.1,1.7-3.2,3.8C77.4,100,78.7,101.8,80.4,101.8z"
		/>
	<path class="st0" d="M71.2,126.5c3.2,1.2,6.5,0,7.5-2.6c0.9-2.6-0.9-5.6-4.1-6.7c-3.2-1.2-6.5,0-7.5,2.6
		C66.1,122.3,68,125.3,71.2,126.5z"/>
	<path class="st0" d="M91.9,140.5c4.1-1.5,6.4-5.3,5.3-8.6c-1.2-3.3-5.4-4.7-9.5-3.3c-4.1,1.5-6.4,5.3-5.3,8.6
		S87.8,141.9,91.9,140.5z"/>
	<path class="st1" d="M198.9,246.5c-8.3-13.9-44.2-13.1-107.7,2.3c-1,22.4-1.6,33.6-1.6,33.6c15.6,6.9,32.2,10.9,49.2,11.8
		c3.9-10,5.9-15,5.9-15c3.4,10.1,5.1,15.2,5.1,15.2c12.8-0.2,25.5-2.2,37.7-5.9l0,0c3.1-0.9,6.2-2,9.2-3.1l0,0l0,0
		c1.2-0.5,2.4-0.9,3.6-1.4c0,0-0.6-9-1.7-26.9C198.8,257.1,198.8,253.6,198.9,246.5z"/>
	<path class="st2" d="M177.1,255.6c13.1,13.2,8.8,25.8-12.6,37.8c9.9-1.2,20.6-3.7,32.1-7.6c4.6-9.6,6.3-21.7,5.1-36.1
		C192.6,245.1,184.4,247.1,177.1,255.6z"/>
	<path class="st3" d="M142.8,257.5c4.8,0.7,10,1.4,15.5,2.2C153.4,257.5,148,256.8,142.8,257.5z"/>
	<path class="st4" d="M93.6,284c8.6,3.5,17.4,6.1,26.5,7.9c-2.7-10.3,0.7-21.3,8.9-28.2c4-3.4,8.8-5.5,13.8-6.2
		c-31.9-4.6-47.8-6.9-47.8-6.9C94.1,272.9,93.6,284,93.6,284z"/>
	<path class="st5" d="M169.5,105.4l-48.2-3.1l-29.7,7.9l-22.5,2.2c-3-1.2-6.4,0.5-7.3,3.6c-5.6,11.3-15,24.2-10.9,32.6
		c4.8,10,27,8,39.9,5.7c0.6,60.3,0.6,94.5,0.6,94.5c33.9,16.8,73.8,16,107-2.2c0.4,7.2,0.5,10.6,0.5,10.6c7.1,0.1,14.8-3.3,19.9-8.8
		c0.9-13.5,0.5-33.7,0.9-50.6c0.2-13.5,0.4-27.1,0-40.4C218.5,122,201.6,116.7,169.5,105.4z"/>
	<path class="st6" d="M214.3,132.5c-1.8-3.4-3.8-6.1-6-8.2c-2.5-2.4-4.8-4.2-6.8-5.4c-5.5-3.4-11.6-6.2-18.4-8.6
		c-4-1.5-8.5-3.1-13.6-4.9c0,0-1.5,4-4.6,11.9c-7.8,7.8-11.4,18.7-9.8,29.6c2.9,20,26.6,30.3,33.2,47.1c12.2,31.4-37.2,40-11.2,61.6
		c3.6-1.1,7.1-2.4,10.5-3.9c7.1-4.1,10.7-6.2,10.7-6.2c-0.9-23-1.4-34.4-1.4-34.4c-1-29.4-1.5-44.1-1.5-44.1
		c3.3-8.9,5.1-19.7,5.4-32.4c5.8,2.7,10.1,7.8,12,13.9c4.9,16.3-10,21.1-5.7,38.9c1.7,7.1,6.2,13.1,12.5,16.8
		c0.1-5.3,0.2-10.5,0.2-15.5c0.1-5.5,0.1-10.9,0.1-16.4c0-6.5-0.1-12.8-0.4-18.8C218.9,145.4,217.2,138.4,214.3,132.5z"/>
	<path class="st7" d="M148.2,116.6c-15.5-7.7-23.3-11.5-23.3-11.5c-18.6,3.4-26.5,7.9-23.7,13.7c2.4,12.3-0.1,23.5-7.5,33.6
		c1.8,24,0.8,60.4,1.3,79.9c0.1,5.2,1.9,9.5,3.8,12c11.9,15.4,46.5,8,50.6-17.1c2.9-17.3-8.2-28.2-17.3-40.6
		C115.5,164.3,117.3,132.7,148.2,116.6z"/>
	<path class="st8" d="M151.2,264.6c-0.4,0-0.7,0.3-0.6,0.7c0.1,2.6-0.4,5.2-1.4,7.5c-1.1,2.3-2.7,4.4-4.7,6c-0.3,0.2-0.4,0.7-0.1,1
		c0.2,0.3,0.7,0.4,1,0.1c2.2-1.7,4-4,5.1-6.5s1.7-5.3,1.6-8.1C151.9,264.9,151.6,264.6,151.2,264.6z"/>
	<path class="st8" d="M172.4,265.5c-2.6,3.5-5.8,6.5-9.5,8.7s-7.8,3.6-12.2,4.2c-0.4,0-0.6,0.4-0.6,0.8s0.4,0.6,0.8,0.6
		c4.5-0.6,8.8-2.1,12.7-4.4s7.2-5.3,9.9-9c0.2-0.3,0.2-0.7-0.1-0.9C173,265.1,172.6,265.2,172.4,265.5z"/>
	<path class="st9" d="M162.4,95.8c-0.4,0-0.7,0-1,0c-0.9,0-1.7-0.1-2.6-0.3c-0.8-0.1-1.6-0.2-2.4-0.5h-0.1c-0.3-0.1-0.7-0.1-1-0.2
		c-0.2,0-0.4-0.1-0.5-0.1c-0.7-0.1-1.3-0.2-2-0.4c-1.3-0.1-2.5-0.5-3.6-1.1c-0.4-0.1-0.7-0.2-1-0.4c-0.6-0.1-1.3-0.2-1.8-0.4
		c-0.6-0.1-1.1-0.2-1.6-0.4c-0.1,0-0.2-0.1-0.4-0.1c-0.5-0.1-0.9-0.2-1.3-0.3H143c-0.7,0-1.5-0.2-2.1-0.4h-0.4
		c-0.7-0.1-1.3-0.2-2-0.4h-0.6l-1.5-0.1c-0.8,0-1.5-0.2-2.3-0.4l-0.8-0.1l-1.9-0.1c-0.3,0-0.6,0-1-0.1c0.4,1.6,0.4,3.4-0.1,5.1
		c-0.7,2.4-2,4.8-4.2,5.3c-1.7,0.3-3.9,1.2-4.6,1.7c3.3,11.8,14.7,21.1,26.8,21.7c11.9,0.6,20.8-7.3,21.3-18.5
		c-1.3-1-2.7-2.2-4.2-2.9C162.9,101.3,162.1,98.6,162.4,95.8z"/>
	<path class="st10" d="M127.7,84.3c0.4,7.1-0.2,12.5-1.8,16.2c2.4,9.9,11.9,17.9,22,18.4s17.6-6.6,17.3-16.4c-1-3.5-1.5-7.9-1.6-13
		C160.5,84.6,148.5,82.9,127.7,84.3z"/>
	<path class="st11" d="M163.6,89.5c-20,3.1-30,4.6-30,4.6c6.6,16.1,9.9,24.1,9.9,24.1c4.2,1.2,8.7,0.9,12.7-0.8
		c3-1.3,5.5-3.6,7.1-6.5c1.4-2.6,2.1-5.5,1.9-8.4C164.3,99.3,163.8,95,163.6,89.5z"/>
	<path class="st12" d="M133.6,94.1c2.3,6,7.7,10.3,14,11.3c6.4,1,12.8-1.5,16.8-6.5c-0.5-3.1-0.8-6.2-0.8-9.4
		C146.3,93.2,136.3,94.8,133.6,94.1z"/>
	<path class="st13" d="M173.3,66.1c-2.9-1.2-6.5,1-8.2,5s-0.7,8.2,2.1,9.4c2.9,1.2,6.5-1,8.2-5S176.2,67.3,173.3,66.1z"/>
	<path class="st11" d="M171,68.8c-1.7-0.7-3.9,0.6-4.9,2.9s-0.4,4.8,1.3,5.5s3.9-0.6,4.9-2.9C173.2,72,172.7,69.5,171,68.8z"/>
	<path class="st12" d="M168.8,70.3c-1-0.4-2.2,0.3-2.8,1.7c-0.6,1.3-0.2,2.7,0.7,3.2s2.2-0.3,2.8-1.7S169.7,70.8,168.8,70.3z"/>
	<path class="st13" d="M119.2,64.9c-2.8,1-4,5.1-2.5,9s4.9,6.3,7.8,5.2c2.8-1,4-5.1,2.5-9C125.6,66.2,122.1,63.8,119.2,64.9z"/>
	<path class="st11" d="M121.4,67.6c-1.7,0.6-2.3,3-1.5,5.3c0.9,2.3,2.9,3.7,4.6,3.1s2.3-3,1.5-5.3C125.1,68.4,123.1,67,121.4,67.6z"
		/>
	<path class="st12" d="M123.5,69.2c-1,0.4-1.3,1.7-0.8,3s1.7,2.1,2.6,1.8c1-0.4,1.3-1.7,0.8-3C125.6,69.6,124.5,68.9,123.5,69.2z"/>
	<path class="st13" d="M159.9,43.7c-7.7-6.2-18.5-6.4-26.3-0.7c-7.8,5.8-10.7,16.1-7.1,25.2c-2.2,10.9,1.9,22.2,10.7,29.1
		c2.3,3.2,5.9,5.1,9.8,5.2c3.9,0.1,7.6-1.5,10-4.5c8-7.2,11.5-18.1,9.3-28.8C170.2,60.4,167.6,49.9,159.9,43.7z"/>
	<path class="st14" d="M159.9,43.7c-2.2-1.8-4.6-3-7.2-3.8c1.6,2.7,2.4,5.8,4.2,8.4c4.5,6.2,5.1,15.9,5.3,24.6
		c0.2,8.2-1,16.1-3.4,23.5c6.7-7.1,9.6-17.2,7.5-27C170.2,60.4,167.6,49.9,159.9,43.7z"/>
	<path class="st11" d="M130.8,46.6c-6,4.1-7.9,12.2-4.2,18.5c-0.4,12.4,2.2,21.5,7.6,27.4c-2.3-7.6,8.3-9.3,6.1-19
		c-0.4-1.7-1.1-3.4-1.8-5c-1.9-4.4-3.6-9-0.1-14.2c2.5-3.7,6.9-5.6,11.3-5C145,43.6,136.8,42.4,130.8,46.6z"/>
	<path class="st15" d="M158.2,30.7c-9.5-4.2-20.5-1.8-27.4,5.9c-8.2,2.8-10.8,12.1-8,28.1c1.3,1,2.5,2.2,3.3,3.6
		c-0.2-7.4,5.9-6.7,5.8-13.5c-0.1-6.7,2.7-7.9,7.4-6.6c6.1,1.7,11.9,1.5,18.4,0.1c3.7-0.8,6.6,0.3,7.8,6.1c1,5.1,0.4,12,0.4,15
		c0.6-1.3,1.7-2.3,3.1-2.7c0.4-3,0.7-6,0.8-9c1.5,0.6,2.3-0.3,2.6-2.7C173.4,44.6,167.7,34.8,158.2,30.7z"/>
	<path class="st16" d="M130.8,36.5c-8.2,2.8-10.8,12.1-8,28.1c1.3,1,2.5,2.2,3.3,3.6c-0.2-7.4,5.9-6.7,5.8-13.5c0-3.4,0.7-5.4,2-6.4
		c0.3-8.6,5.4-16.1,12.8-19.7C140.7,29.2,135,31.9,130.8,36.5z"/>
	<path class="st17" d="M158.2,30.7c-3.4-1.5-6.9-2.1-10.4-2c10.1,2.1,17.7,10.9,18,21.6c0,1.5-0.1,3-0.3,4.4
		c0.9,5.1,0.4,11.7,0.4,14.6c0.6-1.3,1.7-2.3,3.1-2.7c0.4-3,0.7-6,0.8-9c1.5,0.6,2.3-0.3,2.6-2.7C173.4,44.6,167.7,34.8,158.2,30.7z
		"/>
	<path class="st12" d="M134.1,77.3c-2-1.3-3.4-3.3-3.8-5.6c-2.5-1.8-3.7-2.7-3.7-2.7c0,2,0.1,4,0.4,6c1.1,2.6,3.3,4.6,6,5.2
		c2.7,0.7,5.6,0,7.8-1.9C138.5,78.9,136.1,78.5,134.1,77.3z"/>
	<path class="st18" d="M157.6,61.6c-1.7-0.3-3.4-0.2-5.1,0.3c-0.4,0.1-0.6,0.5-0.5,0.9s0.5,0.6,0.9,0.5c1.4-0.5,3-0.5,4.4-0.3
		c1.5,0.3,2.8,0.8,4.1,1.8c0.3,0.2,0.8,0.2,1-0.1s0.2-0.8-0.1-1C160.9,62.6,159.2,61.9,157.6,61.6z"/>
	<path class="st18" d="M141.8,62c-1.7-0.5-3.4-0.5-5.1-0.2c-1.7,0.3-3.3,1.1-4.6,2.2c-0.3,0.3-0.4,0.7-0.1,1c0.3,0.3,0.7,0.4,1,0.1
		c1.2-0.9,2.6-1.6,4-1.9c1.4-0.3,3-0.2,4.4,0.2c0.4,0.1,0.8-0.1,0.9-0.5C142.4,62.5,142.2,62.1,141.8,62z"/>
	<path class="st19" d="M156.4,68.6c-0.6,0-1.1,0.5-1.1,1.2c0,0.6,0.5,1.1,1.2,1.1c0.6,0,1.1-0.5,1.1-1.2
		C157.6,69.1,157.1,68.6,156.4,68.6z"/>
	<path class="st19" d="M137.5,69.2c-0.6,0-1.1,0.5-1.1,1.2c0,0.6,0.5,1.1,1.2,1.1c0.6,0,1.1-0.5,1.1-1.2
		C138.6,69.6,138.1,69.1,137.5,69.2z"/>
	<path class="st20" d="M169.4,65.7l-5.3,4.1c-0.2-1.8-1.1-3.4-2.4-4.6c-1.4-1.4-3.4-2.2-5.5-2.1c-2.1,0.1-4.1,1-5.4,2.4
		c-0.7,0.7-1.2,1.5-1.5,2.4c-0.2-0.2-0.4-0.3-0.6-0.5c-0.5-0.3-1.2-0.5-1.8-0.5s-1.2,0.2-1.8,0.6c-0.2,0.1-0.4,0.3-0.6,0.5
		c-0.4-0.9-1-1.6-1.7-2.3c-1.4-1.4-3.4-2.2-5.5-2.1c-2.1,0.1-4.1,1-5.4,2.4c-1.2,1.2-1.9,2.8-2.1,4.6l-8.1-7.5
		c-0.2-0.2-0.6-0.2-0.8,0c-0.2,0.2-0.2,0.6,0,0.8l8.8,8.1l0.1,0.1c0.2,1.9,1.1,3.6,2.4,4.8c1.4,1.4,3.4,2.2,5.5,2.1s4.1-1,5.4-2.4
		c1.4-1.4,2.2-3.4,2.1-5.5c0-0.6-0.1-1.3-0.3-1.8c0.2-0.3,0.4-0.6,0.7-0.8s0.7-0.4,1.2-0.4c0.4,0,0.8,0.1,1.2,0.3
		c0.3,0.2,0.6,0.5,0.8,0.8c-0.1,0.6-0.2,1.2-0.2,1.8c0.1,2.1,1,4.1,2.4,5.4c1.4,1.4,3.4,2.2,5.5,2.1s4.1-1,5.4-2.4
		c1.2-1.3,2-3,2.1-4.9c0,0,0.1,0,0.1-0.1l5.8-4.5c0.2-0.2,0.3-0.5,0.1-0.8S169.7,65.5,169.4,65.7z M142.4,75.8
		c-1.2,1.2-2.8,2-4.6,2.1s-3.5-0.6-4.7-1.8s-2-2.8-2.1-4.6s0.6-3.5,1.8-4.7s2.8-2,4.6-2.1s3.5,0.6,4.7,1.8s2,2.8,2.1,4.6
		C144.2,72.9,143.5,74.6,142.4,75.8z M161.3,75.3c-1.2,1.2-2.8,2-4.6,2.1s-3.5-0.6-4.7-1.8s-2-2.8-2.1-4.6s0.6-3.5,1.8-4.7
		s2.8-2,4.6-2.1s3.5,0.6,4.7,1.8s2,2.8,2.1,4.6C163.2,72.4,162.5,74,161.3,75.3z"/>
	<path class="st9" d="M159,65.7c-0.9,0-1.7,0.8-1.7,1.8c0,0.9,0.8,1.7,1.8,1.7c0.9,0,1.7-0.8,1.7-1.8C160.8,66.5,160,65.7,159,65.7z
		"/>
	<path class="st9" d="M140.3,66.3c-0.9,0-1.7,0.8-1.7,1.8c0,0.9,0.8,1.7,1.8,1.7c0.9,0,1.7-0.8,1.7-1.8
		C142,67,141.2,66.2,140.3,66.3z"/>
	<path class="st11" d="M150.4,76.4c-1.1-3.5-1.7-5.2-1.7-5.2c-0.3-0.7-1-1.2-1.8-1.1c-0.7,0.1-1.3,0.7-1.5,1.5c0,0-0.5,1.6-1.4,4.9
		c-3.5,0.6-3.6,2.7-0.4,4.3c2.7,3,5.2,2.9,7.6-0.2C154.4,78.8,153.8,76.5,150.4,76.4z"/>
	<path class="st21" d="M153.8,85.4c-1.8,1.7-4,2.6-6.2,2.7s-4.5-0.7-6.4-2.4c-0.3-0.3-0.8-0.2-1,0.1c-0.3,0.3-0.2,0.8,0.1,1
		c2.1,1.9,4.8,2.8,7.4,2.7c2.6-0.1,5.2-1.1,7.2-3.1c0.3-0.3,0.3-0.8,0-1C154.5,85.1,154.1,85.1,153.8,85.4z"/>
	<path class="st21" d="M149.9,90.5c-0.6,0.6-1.4,0.9-2.2,1c-0.8,0-1.6-0.3-2.3-0.8c-0.1-0.1-0.3-0.1-0.4,0c-0.1,0.1-0.1,0.3,0,0.4
		c0.8,0.7,1.7,1,2.6,1c0.9,0,1.9-0.4,2.6-1.1c0.1-0.1,0.1-0.3,0-0.4C150.2,90.4,150,90.4,149.9,90.5z"/>
	<path class="st22" d="M217.9,200.7c-4.1,1.1-8.2,0.7-11.9-0.7c-3.7-1.5-7-4.1-9.2-7.6c0-0.1-0.1-0.1-0.1-0.2l-0.1-3.1
		c2.7,1.2,5.5,1.8,8.4,1.7c3.2-0.1,6.3-1.1,9-2.8c0.3-0.2,0.4-0.6,0.2-1c-0.2-0.3-0.6-0.4-1-0.2c-2.5,1.6-5.4,2.5-8.3,2.6
		c-2.9,0.1-5.8-0.5-8.4-1.9l-0.8-19.3c2.7-6.7,4.4-13.8,5-20.9c0.7-7.2,0.3-14.5-1.2-21.6c-0.1-0.4-0.5-0.6-0.8-0.6
		c-0.4,0.1-0.6,0.5-0.6,0.8c1.4,7,1.8,14.2,1.2,21.2c-0.6,7.1-2.3,14-5,20.7l0,0c0,0.1-0.1,0.2-0.1,0.3l3.3,78.6
		c0,0.4,0.3,0.7,0.7,0.7s0.7-0.3,0.7-0.7l-2.2-51.8c2.3,3,5.3,5.2,8.7,6.5c4,1.6,8.4,1.9,12.8,0.8c0.4-0.1,0.6-0.5,0.5-0.9
		C218.7,200.8,218.3,200.6,217.9,200.7z"/>
	<path class="st22" d="M157,215.5c-13.4,2.2-25.4-1-36-9.6c-10.7-8.7-20-22.9-27.9-42.6c-0.1-0.4-0.6-0.5-0.9-0.4
		c-0.4,0.1-0.5,0.6-0.4,0.9c8,19.9,17.5,34.3,28.3,43.2c11,8.9,23.3,12.2,37.1,9.9c0.4-0.1,0.6-0.4,0.6-0.8
		C157.8,215.7,157.4,215.5,157,215.5z"/>
	<path class="st22" d="M153.5,236.3c-11,1.1-20.5-1.4-28.4-7.6c-8-6.2-14.4-16.1-19.4-29.6c-0.1-0.4-0.5-0.6-0.9-0.4
		c-0.4,0.1-0.6,0.5-0.4,0.9c5,13.8,11.6,23.9,19.8,30.2c8.2,6.4,18,9,29.4,7.9c0.4,0,0.7-0.4,0.6-0.8
		C154.2,236.5,153.8,236.2,153.5,236.3z"/>
	<path class="st22" d="M190.3,160.8c-0.4-0.1-0.8,0.1-0.9,0.5c-5.1,16-11.5,27.2-19.2,33.4c-7.6,6.1-16.4,7.4-26.6,3.9
		c-0.4-0.1-0.8,0.1-0.9,0.4c-0.1,0.4,0.1,0.8,0.4,0.9c10.7,3.7,20,2.3,28-4.2c7.9-6.4,14.4-17.7,19.6-34
		C190.9,161.3,190.7,160.9,190.3,160.8z"/>
	<path class="st13" d="M200.6,242.7c-0.1,0.7-0.3,1.3-0.4,1.9c-3.4-0.3-6,0.4-7.8,2.2c-1.3,1.3-5.5,4.8-5.3,6.4
		c0.1,0.8,0.8,1.3,1.6,1.5c2,0.5,4.7-1.2,6.9-2.7c1.1,1.5,2.7,3.9,3.5,5.5l-1.5,8.9l-6.7,7.5c-2.3,3.2,1.6,4.3,2.5,4l-2.4,3.2
		c-0.5,0.6-0.3,1.4,0.4,2s1.9,0.8,2.8,0.5c-0.4,0.7,0,1.5,0.9,1.9s2.1,0.4,2.7-0.2l0.7-0.7c1.3,0.8,2.5,0.9,3.4,0.3
		c5.4-4.5,11.7-11.9,13.8-16.6c1.7-3.1,0.9-12.8,0.7-18C210,250.5,203.9,246.9,200.6,242.7z"/>
	<path class="st23" d="M200.8,248.8l-3.6,3.4c-0.2,0.2-0.3,0.6,0,0.9c0.2,0.2,0.6,0.3,0.9,0l1.7-1.6l-2.5,14.4
		c-0.1,0.3,0.2,0.7,0.5,0.7c0.3,0.1,0.7-0.2,0.7-0.5l2.5-14.5c0.1-0.3-0.2-0.7-0.5-0.7c-0.1,0-0.1,0-0.2,0l1.4-1.3
		c0.2-0.2,0.3-0.6,0-0.9C201.4,248.5,201,248.5,200.8,248.8z"/>
	<path class="st23" d="M205.2,261c-0.3-0.1-0.7,0-0.8,0.3l-3.3,7.8l-7.6,8.4c-0.2,0.3-0.2,0.6,0,0.9c0.3,0.2,0.6,0.2,0.9,0l7.7-8.4
		c0-0.1,0.1-0.1,0.1-0.2l0,0l3.4-7.9C205.7,261.5,205.6,261.1,205.2,261z"/>
	<path class="st23" d="M208.5,265.7c-0.3-0.2-0.7-0.1-0.8,0.3l-3.9,7.2l-9,9.8c-0.2,0.3-0.2,0.6,0,0.9c0.3,0.2,0.6,0.2,0.9,0l9-9.8
		l0.1-0.1l3.9-7.3C208.9,266.2,208.8,265.8,208.5,265.7z"/>
	<path class="st23" d="M206.7,275.4l-7.9,8.6c-0.2,0.3-0.2,0.6,0,0.9c0.3,0.2,0.6,0.2,0.9,0l7.9-8.6c0.2-0.3,0.2-0.6,0-0.9
		S207,275.1,206.7,275.4z"/>
	<path class="st7" d="M86.9,140c-5-0.6-10.6-0.6-12.7-7.1c-1.5-4.5,0.8-9.5,5.2-11.5c-8-4.5-11.9-6.8-11.9-6.8
		c-1.1,0.6-2,1.5-2.6,2.6c-3.3,7-13,22.7-9.1,29.8c3.7,6.6,16.2,8,36.9,4.4c1.3-0.9,2.4-2.1,3.2-3.5C94.7,141.6,91,140.4,86.9,140z"
		/>
	<path class="st22" d="M95.2,125.7c0.8-0.7,1.5-1.5,2-2.5s0.8-2.1,0.8-3.3c0-1.2-0.3-2.3-0.7-3.3c-0.5-1-1.2-1.9-2.1-2.6
		c-0.3-0.2-0.8-0.2-1,0.1c-0.2,0.3-0.2,0.8,0.1,1c0.7,0.6,1.3,1.3,1.7,2.1c0.4,0.8,0.6,1.7,0.6,2.7c0,0.9-0.2,1.8-0.6,2.7
		c-0.4,0.8-1,1.5-1.7,2.1c-0.1,0.1-0.2,0.2-0.2,0.3c-0.7,1.6-1.3,3.3-2,5c-3.5,8.9-7.1,18.2-17.2,20.4c-0.4,0.1-0.6,0.5-0.5,0.8
		s0.5,0.6,0.8,0.5c10.9-2.3,14.6-12,18.2-21.2C93.9,128.9,94.5,127.3,95.2,125.7z"/>
	<path class="st22" d="M100.6,118.7c-0.4,0.1-0.6,0.5-0.5,0.9c1.9,6.1,1.8,12.6,0.1,18.5c-1.7,5.9-5.1,11.4-10,15.6
		c-0.3,0.3-0.3,0.7-0.1,1c0.3,0.3,0.7,0.3,1,0.1c5.1-4.4,8.6-10.1,10.4-16.2c1.8-6.2,1.8-12.9-0.1-19.3
		C101.3,118.8,100.9,118.6,100.6,118.7z"/>
	<path class="st13" d="M115.2,84.5c-3.3,1.1-7.8,4.8-10.4,7.1c-2.2,1.5-3.5,1-3.8-1.6l0.2-28.9c-0.3-1.1-1.4-1.9-2.5-1.9
		c-1.2,0-2.2,0.7-2.6,1.8l-3.4,21.1l0.2-24c-0.3-1.2-1.4-2-2.7-2.1c-1.3,0-2.4,0.8-2.7,2l-3.1,24.2L82.7,60
		c-0.3-1.3-1.5-2.2-2.9-2.1c-1.3,0.1-2.4,1-2.7,2.4l-1.4,23.5L70,66.6c-0.7-1-1.9-1.4-3.1-1.1c-1.1,0.4-1.9,1.5-1.8,2.7
		c2,10.4,3.2,16.6,3.5,17.9c-2.1,8-2.2,18.4,0,24.2l-1.2,4.3c0.9,6.5,6.1,11.5,12.6,12.2c4,0.4,7.8-0.9,10.6-3.4
		c3.1-2.6,4.9-6.9,5.6-10.8c4-2.3,8.4-6.8,13.2-13.4c3.3-4.2,6.9-7.4,10.8-9.9c1.7-1.2,1.9-2.6,1.2-3.6
		C120.4,84.2,118.1,83.5,115.2,84.5z"/>
	<path class="st23" d="M81.1,114.3c-1.1,0.5-2.2,0.8-3.4,0.8c-1.2,0.1-2.3-0.1-3.4-0.5s-2.1-1-3-1.8s-1.6-1.7-2.1-2.8
		c-0.2-0.3-0.6-0.5-0.9-0.3s-0.5,0.6-0.3,0.9c0.6,1.2,1.4,2.3,2.4,3.2c1,0.9,2.1,1.6,3.4,2.1s2.6,0.7,4,0.6c1.3-0.1,2.7-0.4,3.9-1
		c0.3-0.2,0.5-0.6,0.3-0.9C81.8,114.3,81.4,114.1,81.1,114.3z"/>
	<path class="st23" d="M95.8,112.1c-1.1,1-2.4,1.8-3.9,2.2c-1.4,0.4-2.9,0.5-4.4,0.1c-0.4-0.1-0.7,0.2-0.8,0.5
		c-0.1,0.4,0.2,0.7,0.5,0.8c1.7,0.4,3.4,0.3,5.1-0.2c1.6-0.5,3.1-1.3,4.4-2.5c0.3-0.3,0.3-0.7,0-1S96.1,111.9,95.8,112.1z"/>
	<path class="st23" d="M98.4,90.2c-2.6,0.4-5,1.3-7.1,2.7s-3.9,3.3-5.2,5.5c-1.3,2.2-2.1,4.7-2.3,7.2c-0.2,2.5,0.2,5.1,1.1,7.5
		c0.1,0.3,0.5,0.5,0.9,0.4c0.3-0.1,0.5-0.5,0.4-0.9c-0.9-2.2-1.2-4.6-1-6.9s0.9-4.6,2.1-6.6c1.2-2.1,2.9-3.8,4.8-5.1
		c1.9-1.3,4.2-2.1,6.5-2.5c0.4,0,0.6-0.4,0.6-0.8C99.1,90.4,98.7,90.2,98.4,90.2z"/>
	<path class="st23" d="M88.8,86c-2.7,2.4-5.8,4.3-9.1,5.4c-3.3,1.2-6.9,1.7-10.5,1.5c-0.4,0-0.7,0.3-0.7,0.6c0,0.4,0.3,0.7,0.6,0.7
		c3.8,0.2,7.5-0.3,11.1-1.5c3.5-1.2,6.8-3.2,9.6-5.7c0.3-0.3,0.3-0.7,0-1C89.5,85.8,89.1,85.8,88.8,86z"/>
	<path class="st23" d="M90.6,90.3c-3.6,0.8-6.9,2.4-9.7,4.8c-2.7,2.3-4.9,5.4-6.2,8.8c-0.1,0.3,0,0.7,0.4,0.9c0.3,0.1,0.7,0,0.9-0.4
		c1.2-3.3,3.2-6.1,5.8-8.3c2.6-2.2,5.7-3.8,9.1-4.5c0.4-0.1,0.6-0.4,0.5-0.8C91.3,90.4,91,90.2,90.6,90.3z"/>
</g>
<g>
	<path class="st24" d="M158.9,180.2h-21.6v-17.7l11.8-10.9l12,10.9v15.4C161.2,179.2,160.2,180.2,158.9,180.2z"/>
	<path class="st25" d="M149.2,151.6v28.6h12v-17.7L149.2,151.6z"/>
	<path class="st26" d="M149.2,152.5l10.5,10.5c1.8,1.8,4.6,1.8,6.3,0l0,0l-16.9-16.9L132.2,163l2.6,2.6c0.3,0.3,0.9,0.3,1.2,0
		L149.2,152.5z"/>
	<path class="st8" d="M149.2,146.2L149.2,146.2l-0.1,6.4l0.1-0.1l13.1,13.1c0.3,0.3,0.9,0.3,1.2,0l2.6-2.6L149.2,146.2z"/>
	<g>
		<circle class="st27" cx="149.2" cy="168.2" r="10.1"/>
		<path class="st26" d="M145.6,172.9l5.2,5.2c3.4-0.6,6.3-2.9,7.6-6l-4.4-4.4L145.6,172.9z"/>
		<path class="st28" d="M146.6,163.3l7.2,4.2c0.5,0.3,0.5,1,0,1.3l-7.2,4.2c-0.5,0.3-1.2-0.1-1.2-0.7V164
			C145.4,163.4,146.1,163.1,146.6,163.3z"/>
		<path class="st29" d="M145.4,168.2v4.1c0,0.6,0.6,1,1.2,0.7l7.2-4.2c0.3-0.1,0.4-0.4,0.4-0.6H145.4L145.4,168.2L145.4,168.2z"/>
	</g>
	<rect x="139.8" y="149.5" class="st26" width="4.3" height="6.5"/>
	<rect x="139.3" y="148.5" class="st26" width="5.3" height="1.1"/>
</g>
</svg>
