<?xml version="1.0" encoding="utf-8"?>
<!-- Generator: Adobe Illustrator 26.0.2, SVG Export Plug-In . SVG Version: 6.00 Build 0)  -->
<svg version="1.1" id="Layer_1" xmlns="http://www.w3.org/2000/svg" xmlns:xlink="http://www.w3.org/1999/xlink" x="0px" y="0px"
	 viewBox="0 0 647 556.1" style="enable-background:new 0 0 647 556.1;" xml:space="preserve">
<style type="text/css">
	.st0{fill-rule:evenodd;clip-rule:evenodd;fill:#F1EAF9;}
	.st1{filter:url(#Adobe_OpacityMaskFilter);}
	.st2{fill:url(#SVGID_00000145034187174632997510000007083797127321557159_);}
	.st3{mask:url(#SVGID_1_);fill-rule:evenodd;clip-rule:evenodd;fill:#ECB2D7;}
	.st4{fill-rule:evenodd;clip-rule:evenodd;fill:#FFFFFF;}
	.st5{fill-rule:evenodd;clip-rule:evenodd;fill:#F4F4F4;}
	.st6{fill:#797979;}
	.st7{fill-rule:evenodd;clip-rule:evenodd;fill:#0E0E0E;}
	.st8{fill-rule:evenodd;clip-rule:evenodd;fill:#FF4607;}
	.st9{fill-rule:evenodd;clip-rule:evenodd;fill:#FF8832;}
	.st10{fill-rule:evenodd;clip-rule:evenodd;fill:#3B69C3;}
	.st11{filter:url(#Adobe_OpacityMaskFilter_00000092422426235822966060000002164405479626398889_);}
	.st12{fill:url(#SVGID_00000037687417516434469040000013325753979356991379_);}
	.st13{mask:url(#SVGID_00000047058923975486197180000003795546415323022999_);fill-rule:evenodd;clip-rule:evenodd;fill:#5988E4;}
	.st14{fill-rule:evenodd;clip-rule:evenodd;fill:#CCD6F2;}
	.st15{fill-rule:evenodd;clip-rule:evenodd;fill:#0D3EA3;}
	.st16{filter:url(#Adobe_OpacityMaskFilter_00000136401844041994226370000015379313336663578795_);}
	.st17{fill:url(#SVGID_00000133527429204729865180000000479318644540051384_);}
	.st18{mask:url(#SVGID_00000169548886184736972080000010166260426513804720_);fill-rule:evenodd;clip-rule:evenodd;fill:#001572;}
	.st19{fill-rule:evenodd;clip-rule:evenodd;fill:#FF9866;}
	.st20{filter:url(#Adobe_OpacityMaskFilter_00000177458605884385626390000017199421827896785853_);}
	.st21{fill:url(#SVGID_00000029726769037121761710000000954348487751576220_);}
	.st22{mask:url(#SVGID_00000057838390423568327530000013538188239595392162_);fill-rule:evenodd;clip-rule:evenodd;fill:#EB320A;}
	.st23{filter:url(#Adobe_OpacityMaskFilter_00000080912039746567006810000010155273528570896029_);}
	.st24{fill:url(#SVGID_00000173122739464559063170000016300769444938265514_);}
	.st25{mask:url(#SVGID_00000132795782064347340390000008453112659424700092_);fill-rule:evenodd;clip-rule:evenodd;fill:#C50400;}
	.st26{fill-rule:evenodd;clip-rule:evenodd;fill:#6F8CE4;}
	.st27{filter:url(#Adobe_OpacityMaskFilter_00000047755118479293593350000007795816775395145101_);}
	.st28{fill:url(#SVGID_00000029747272389633555040000003113954773754819487_);}
	.st29{mask:url(#SVGID_00000058550509808038302900000012522650958133068974_);fill-rule:evenodd;clip-rule:evenodd;fill:#001776;}
	.st30{filter:url(#Adobe_OpacityMaskFilter_00000073696582516791001710000015971212355391442058_);}
	.st31{fill:url(#SVGID_00000039851044925934491930000007965886917945017520_);}
	.st32{mask:url(#SVGID_00000024715410245774581700000016376793031947770549_);fill-rule:evenodd;clip-rule:evenodd;fill:#3060BF;}
	.st33{filter:url(#Adobe_OpacityMaskFilter_00000098187879692489256820000017654821479363305116_);}
	.st34{fill:url(#SVGID_00000129924758113197089010000009964064561133117352_);}
	.st35{mask:url(#SVGID_00000093177964170908374290000004701080153754644112_);fill-rule:evenodd;clip-rule:evenodd;fill:#001572;}
	.st36{fill-rule:evenodd;clip-rule:evenodd;fill:#50494E;}
	.st37{fill-rule:evenodd;clip-rule:evenodd;fill:#9E979C;}
	.st38{fill-rule:evenodd;clip-rule:evenodd;fill:#797176;}
	.st39{fill-rule:evenodd;clip-rule:evenodd;fill:#F88549;}
	.st40{filter:url(#Adobe_OpacityMaskFilter_00000073711628158817795690000016306382991966768290_);}
	.st41{fill:url(#SVGID_00000052089333552273695080000000460438976768899750_);}
	.st42{mask:url(#SVGID_00000126318791047122564930000012424638763116469918_);fill-rule:evenodd;clip-rule:evenodd;fill:#DB2500;}
	.st43{filter:url(#Adobe_OpacityMaskFilter_00000126283536243395086440000009468279179519361955_);}
	.st44{fill:url(#SVGID_00000039113009166204948150000013306153680908058527_);}
	.st45{mask:url(#SVGID_00000035528586439222521100000014686253538366559395_);fill-rule:evenodd;clip-rule:evenodd;fill:#C50400;}
	.st46{fill-rule:evenodd;clip-rule:evenodd;fill:#321030;}
	.st47{fill-rule:evenodd;clip-rule:evenodd;fill:#E4E4E4;}
	.st48{fill-rule:evenodd;clip-rule:evenodd;fill:#AEAEAE;}
	.st49{fill-rule:evenodd;clip-rule:evenodd;fill:#F0E7D3;}
	.st50{fill-rule:evenodd;clip-rule:evenodd;fill:#E48300;}
	.st51{fill-rule:evenodd;clip-rule:evenodd;fill:#442E26;}
	.st52{fill-rule:evenodd;clip-rule:evenodd;fill:#FFF9EE;}
	.st53{fill-rule:evenodd;clip-rule:evenodd;fill:#462983;}
	.st54{fill-rule:evenodd;clip-rule:evenodd;fill:#8E76C0;}
	.st55{fill-rule:evenodd;clip-rule:evenodd;fill:#3060BF;}
	.st56{fill:#EB320A;}
	.st57{fill-rule:evenodd;clip-rule:evenodd;}
	.st58{filter:url(#Adobe_OpacityMaskFilter_00000024710037878612268680000009445773511197181319_);}
	.st59{fill:url(#SVGID_00000049209873635336373740000011816496232719635627_);}
	.st60{mask:url(#SVGID_00000155123959541152488400000011641044229598343842_);fill-rule:evenodd;clip-rule:evenodd;fill:#EB3C16;}
	.st61{filter:url(#Adobe_OpacityMaskFilter_00000077321016271888012320000007425088239824751294_);}
	.st62{fill:url(#SVGID_00000171690276972106176280000013029585665834986132_);}
	.st63{mask:url(#SVGID_00000075145580681344930360000012080458874645087642_);fill-rule:evenodd;clip-rule:evenodd;fill:#BF0200;}
	.st64{filter:url(#Adobe_OpacityMaskFilter_00000132808531870599175970000002556040757064896928_);}
	.st65{fill:url(#SVGID_00000111185470200168072820000007758752224154509490_);}
	.st66{mask:url(#SVGID_00000087392389045923784230000003370383517738963354_);fill-rule:evenodd;clip-rule:evenodd;fill:#FFC89E;}
	.st67{filter:url(#Adobe_OpacityMaskFilter_00000003800764725766292950000006083761399389153434_);}
	.st68{fill:url(#SVGID_00000094587762930887386530000008050595416783004343_);}
	.st69{mask:url(#SVGID_00000096042127198349656180000016482848381706168508_);fill-rule:evenodd;clip-rule:evenodd;fill:#002992;}
	.st70{filter:url(#Adobe_OpacityMaskFilter_00000144302338565746994570000010071130721166185861_);}
	.st71{fill:url(#SVGID_00000018214127471302768440000013533204811278645408_);}
	.st72{mask:url(#SVGID_00000170976694757739611850000010177353263143242382_);fill-rule:evenodd;clip-rule:evenodd;fill:#5988E4;}
	.st73{filter:url(#Adobe_OpacityMaskFilter_00000114045341386384633440000006969687119669596087_);}
	.st74{fill:url(#SVGID_00000072985922514369295380000013576657562725455752_);}
	.st75{mask:url(#SVGID_00000150791665127234432490000003604782453997224577_);fill-rule:evenodd;clip-rule:evenodd;fill:#0D3EA3;}
	.st76{filter:url(#Adobe_OpacityMaskFilter_00000064315099801903216000000016675531478383200141_);}
	.st77{fill:url(#SVGID_00000080904162518761501830000015629452778883225998_);}
	.st78{mask:url(#SVGID_00000116211172157735571660000003504042513868620934_);fill-rule:evenodd;clip-rule:evenodd;fill:#A1ADF8;}
	.st79{filter:url(#Adobe_OpacityMaskFilter_00000085215331956635732430000014339676296370553014_);}
	.st80{fill:url(#SVGID_00000172425884673692851150000013985025580249295008_);}
	.st81{mask:url(#SVGID_00000078011773377445040150000012409101943481466531_);fill-rule:evenodd;clip-rule:evenodd;fill:#1948A8;}
	.st82{filter:url(#Adobe_OpacityMaskFilter_00000158016621136198690720000006560085288421726848_);}
	.st83{fill:url(#SVGID_00000064314783586581770840000009403534223312321923_);}
	.st84{mask:url(#SVGID_00000084513379858311279700000006318255738322847898_);fill-rule:evenodd;clip-rule:evenodd;fill:#FFC89E;}
	.st85{filter:url(#Adobe_OpacityMaskFilter_00000064349013552311124070000006794115258599397000_);}
	.st86{fill:url(#SVGID_00000103987172988615361920000013794599086351805833_);}
	.st87{mask:url(#SVGID_00000169517361893744834190000006011907372326064523_);fill-rule:evenodd;clip-rule:evenodd;fill:#E4320B;}
	.st88{filter:url(#Adobe_OpacityMaskFilter_00000138533825007553092640000008272461374160198037_);}
	.st89{fill:url(#SVGID_00000057130071027583897160000000579868595704337317_);}
	.st90{mask:url(#SVGID_00000175315241163209125180000008764611282348822942_);fill-rule:evenodd;clip-rule:evenodd;fill:#B50000;}
	.st91{fill-rule:evenodd;clip-rule:evenodd;fill:#2C1004;}
	.st92{fill:#2C1004;}
	.st93{fill:#BF0200;}
	.st94{filter:url(#Adobe_OpacityMaskFilter_00000166673698878187183030000017320713895709626501_);}
	.st95{fill:url(#SVGID_00000011732757319353056520000013006563001901383833_);}
	.st96{mask:url(#SVGID_00000065041505364799784720000016799224518394875023_);fill-rule:evenodd;clip-rule:evenodd;fill:#0B0000;}
	.st97{fill:#FFFFFF;}
	.st98{fill-rule:evenodd;clip-rule:evenodd;fill:#FFA170;}
	.st99{fill-rule:evenodd;clip-rule:evenodd;fill:#EB320A;}
	.st100{fill-rule:evenodd;clip-rule:evenodd;fill:#BF0200;}
	.st101{filter:url(#Adobe_OpacityMaskFilter_00000028310030071500473120000007185264845379723945_);}
	.st102{fill:url(#SVGID_00000053504983362571507820000004686815465602306957_);}
	.st103{mask:url(#SVGID_00000089551047507591834290000011092912440675559588_);fill-rule:evenodd;clip-rule:evenodd;fill:#713B24;}
	.st104{fill:#E48300;}
	.st105{opacity:0.23;fill-rule:evenodd;clip-rule:evenodd;fill:#FFFFFF;}
	.st106{filter:url(#Adobe_OpacityMaskFilter_00000027588351416428115460000005959733065480039836_);}
	.st107{fill:url(#SVGID_00000002371765865869324170000006751700177330714769_);}
	.st108{mask:url(#SVGID_00000154408074744449726380000006433394443113161109_);fill-rule:evenodd;clip-rule:evenodd;fill:#684EA1;}
	.st109{filter:url(#Adobe_OpacityMaskFilter_00000168083200436833059460000000355573525556445582_);}
	.st110{fill:url(#SVGID_00000093869177788625588930000003705442976230558595_);}
	.st111{mask:url(#SVGID_00000041277856175403592990000008186927699556751021_);fill-rule:evenodd;clip-rule:evenodd;fill:#B9A6E4;}
	.st112{fill-rule:evenodd;clip-rule:evenodd;fill:#A48ED4;}
</style>
<g>
	<path class="st0" d="M237.4,158.7c18,0,35.3,2.7,51.7,7.7c13.4-68.8,74-120.8,146.8-120.8c82.6,0,149.5,67,149.5,149.5
		c0,49.1-23.6,92.6-60.2,119.9c-5.5-3.9-12.8-5.3-19.7-3L497,315c-0.8,0.3-1.6,0.6-2.4,1l-15.6,7.3l-0.2,0.1h-1.5
		c-2.8,0-5.6,0.5-8.1,1.6l-4.8,1.9l0,0c-0.6,0.2-1.1,0.5-1.7,0.7l-1.2,0.6c-1.5,0.3-3,0.6-4.5,1.1c-1.3,0.4-2.7,0.9-4.1,1.4
		l-4.2,1.7l-3.8,1.1c-2.2-4.9-6.3-9.1-11.6-11.3c-11.2-4.6-24,0.7-28.6,11.9l-6.7,16.2c-0.2,0.5-0.4,0.9-0.5,1.4l-1.7,5
		c-5.4,0.1-10.8,2.3-14.9,6.4l-5.7,5.7c-1.3,1.3-2.4,2.7-3.3,4.2l-5.4,9.1l-3.5,5.3c-0.4,0.6-0.7,1.2-1.1,1.8l-5.7,10.6l-2.6,3.2
		c-0.8,1-1.5,2.1-2.1,3.2l-4.2,7.7l-0.6,0.6c-2.3,2.3-4,5-5.2,8.1c-1.1,1.3-2,2.7-2.8,4.2l-1.3,2.5l-0.3,0.3c-1,1-1.9,2.1-2.7,3.3
		c-1.8,2.7-3.6,5.4-5.4,8l-2.5,3.3c-0.1,0.2-0.2,0.3-0.4,0.5c-2,0.5-3.9,1.3-5.7,2.4l-3.4,2c-3.8,0.7-7.4,2.5-10.4,5.2l-0.9,0.3
		c-2.6,0.9-5,2.2-7.1,3.9l-0.8,0.3c-0.6,0.2-1.1,0.5-1.7,0.7l-4.3,2.2l-0.8,0.3h2.2c-3.5,0.1-7,0.9-10.3,2.8l-6.8,3.8l-6.2,2.1
		c-1.8,0.6-3.6,1.4-5.3,2.5c-1,0.2-2,0.6-3,0.9l-4.8,1.9c-1.3,0.5-2.5,1.2-3.7,1.9l-3.4,0.9l-4.2,0.8c-1.5,0.3-2.8,0.8-4.2,1.2
		l-0.1,0.3c-2.9,0-5.7,0.6-8.4,1.7c-0.5,0.1-0.9,0.3-1.4,0.4l-2.5,0.8c-0.8,0.3-1.7,0.6-2.5,0.9c-2.6,0.2-5.3,0.8-7.8,2
		c-2,0.2-4.1,0.8-6,1.6l-0.8,0.1h-6.7c-3.1,0-6.1,0.7-8.9,1.9h-9.1c-1.8,0-3.6,0.2-5.3,0.7l-1.2,0.3h-0.4l0.1,0c-2-0.6-4-0.9-6.2-1
		l-4.5-0.9l-3.1-1.5c-3-1.5-6.4-2.3-9.8-2.3h-1.2l-4.5-2.5c-2.6-1.6-5.6-2.6-8.7-3l-3.3-1.6c-1.4-0.7-2.8-1.2-4.2-1.6l-0.4,0
		c-0.2-0.1-0.3-0.2-0.5-0.4c-1.2-1.2-2.6-2.2-4.1-3.1c-41.6-32.1-68.4-82.5-68.4-139.1C61.6,237.5,140.3,158.7,237.4,158.7"/>
	<defs>
		<filter id="Adobe_OpacityMaskFilter" filterUnits="userSpaceOnUse" x="61.6" y="45.7" width="523.8" height="446">
			<feColorMatrix  type="matrix" values="1 0 0 0 0  0 1 0 0 0  0 0 1 0 0  0 0 0 1 0"/>
		</filter>
	</defs>
	<mask maskUnits="userSpaceOnUse" x="61.6" y="45.7" width="523.8" height="446" id="SVGID_1_">
		<g class="st1">
			
				<linearGradient id="SVGID_00000154427469750104481740000015958081385736827304_" gradientUnits="userSpaceOnUse" x1="-107.3008" y1="545.1033" x2="444.5792" y2="204.9633" gradientTransform="matrix(1 0 0 1 321.9038 -209.3117)">
				<stop  offset="0" style="stop-color:#000000"/>
				<stop  offset="1" style="stop-color:#FFFFFF"/>
			</linearGradient>
			
				<rect x="61.6" y="45.7" style="fill:url(#SVGID_00000154427469750104481740000015958081385736827304_);" width="523.8" height="446"/>
		</g>
	</mask>
	<path class="st3" d="M237.4,158.7c18,0,35.3,2.7,51.7,7.7c13.4-68.8,74-120.8,146.8-120.8c82.6,0,149.5,67,149.5,149.5
		c0,49.1-23.6,92.6-60.2,119.9c-5.5-3.9-12.8-5.3-19.7-3L497,315c-0.8,0.3-1.6,0.6-2.4,1l-15.6,7.3l-0.2,0.1h-1.5
		c-2.8,0-5.6,0.5-8.1,1.6l-4.8,1.9l0,0c-0.6,0.2-1.1,0.5-1.7,0.7l-1.2,0.6c-1.5,0.3-3,0.6-4.5,1.1c-1.3,0.4-2.7,0.9-4.1,1.4
		l-4.2,1.7l-3.8,1.1c-2.2-4.9-6.3-9.1-11.6-11.3c-11.2-4.6-24,0.7-28.6,11.9l-6.7,16.2c-0.2,0.5-0.4,0.9-0.5,1.4l-1.7,5
		c-5.4,0.1-10.8,2.3-14.9,6.4l-5.7,5.7c-1.3,1.3-2.4,2.7-3.3,4.2l-5.4,9.1l-3.5,5.3c-0.4,0.6-0.7,1.2-1.1,1.8l-5.7,10.6l-2.6,3.2
		c-0.8,1-1.5,2.1-2.1,3.2l-4.2,7.7l-0.6,0.6c-2.3,2.3-4,5-5.2,8.1c-1.1,1.3-2,2.7-2.8,4.2l-1.3,2.5l-0.3,0.3c-1,1-1.9,2.1-2.7,3.3
		c-1.8,2.7-3.6,5.4-5.4,8l-2.5,3.3c-0.1,0.2-0.2,0.3-0.4,0.5c-2,0.5-3.9,1.3-5.7,2.4l-3.4,2c-3.8,0.7-7.4,2.5-10.4,5.2l-0.9,0.3
		c-2.6,0.9-5,2.2-7.1,3.9l-0.8,0.3c-0.6,0.2-1.1,0.5-1.7,0.7l-4.3,2.2l-0.8,0.3h2.2c-3.5,0.1-7,0.9-10.3,2.8l-6.8,3.8l-6.2,2.1
		c-1.8,0.6-3.6,1.4-5.3,2.5c-1,0.2-2,0.6-3,0.9l-4.8,1.9c-1.3,0.5-2.5,1.2-3.7,1.9l-3.4,0.9l-4.2,0.8c-1.5,0.3-2.8,0.8-4.2,1.2
		l-0.1,0.3c-2.9,0-5.7,0.6-8.4,1.7c-0.5,0.1-0.9,0.3-1.4,0.4l-2.5,0.8c-0.8,0.3-1.7,0.6-2.5,0.9c-2.6,0.2-5.3,0.8-7.8,2
		c-2,0.2-4.1,0.8-6,1.6l-0.8,0.1h-6.7c-3.1,0-6.1,0.7-8.9,1.9h-9.1c-1.8,0-3.6,0.2-5.3,0.7l-1.2,0.3h-0.4l0.1,0c-2-0.6-4-0.9-6.2-1
		l-4.5-0.9l-3.1-1.5c-3-1.5-6.4-2.3-9.8-2.3h-1.2l-4.5-2.5c-2.6-1.6-5.6-2.6-8.7-3l-3.3-1.6c-1.4-0.7-2.8-1.2-4.2-1.6l-0.4,0
		c-0.2-0.1-0.3-0.2-0.5-0.4c-1.2-1.2-2.6-2.2-4.1-3.1c-41.6-32.1-68.4-82.5-68.4-139.1C61.6,237.5,140.3,158.7,237.4,158.7"/>
	<rect x="336.5" y="90" class="st4" width="214.6" height="160.8"/>
	<rect x="347.1" y="99.3" class="st5" width="194.8" height="143.1"/>
	<g id="O5YrYP.tif">
		
			<image style="overflow:visible;" width="3730" height="1888" id="Layer_0_00000119834790835359023950000003044084896640574848_" xlink:href="4F939CA3EADEFA33.png"  transform="matrix(4.617693e-02 0 0 4.617693e-02 359.4123 127.2876)">
		</image>
	</g>
	<rect x="336.5" y="98.9" class="st6" width="214.6" height="0.8"/>
	<rect x="336.5" y="242" class="st6" width="214.6" height="0.8"/>
	<polygon class="st7" points="344.5,95.2 344.5,97.5 339.7,97.5 339.7,95.2 338.1,95.2 342.1,91 346,95.2 	"/>
	<rect x="341" y="95" class="st4" width="2.1" height="3.4"/>
	<path class="st8" d="M311.3,253.2c-4.3,3-6.1,7.8-3.9,10.9c2.1,3,7.3,3.1,11.6,0.2c4.3-3,6.1-7.8,3.9-10.9
		C320.8,250.3,315.6,250.2,311.3,253.2 M297.2,269.5c5.2,3.6,7.4,9.5,4.8,13.2c-2.6,3.7-8.9,3.8-14.1,0.2c-5.2-3.6-7.4-9.5-4.8-13.2
		C285.6,266,291.9,265.9,297.2,269.5z M312.7,269.5c-5.2,3.6-7.4,9.5-4.8,13.2c2.6,3.7,8.9,3.8,14.1,0.2c5.2-3.6,7.4-9.5,4.8-13.2
		C324.2,266,317.9,265.9,312.7,269.5z M300.1,240.2c3.2,2.2,4.6,5.9,3,8.2c-1.6,2.3-5.5,2.4-8.7,0.1c-3.2-2.2-4.6-5.9-3-8.2
		C292.9,238,296.8,238,300.1,240.2z M309.7,240.2c-3.2,2.2-4.6,5.9-3,8.2c1.6,2.3,5.5,2.4,8.7,0.1c3.2-2.2,4.6-5.9,3-8.2
		C316.9,238,313,238,309.7,240.2z M301.1,229.4c2.6,1.8,3.6,4.7,2.4,6.5c-1.3,1.8-4.4,1.9-6.9,0.1c-2.6-1.8-3.6-4.7-2.4-6.5
		C295.4,227.6,298.5,227.6,301.1,229.4z M308.7,229.4c-2.6,1.8-3.6,4.7-2.4,6.5c1.3,1.8,4.4,1.9,6.9,0.1c2.6-1.8,3.6-4.7,2.4-6.5
		C314.4,227.6,311.3,227.6,308.7,229.4z M295.7,289.4c6.2,4.3,8.7,11.3,5.7,15.7c-3,4.4-10.5,4.5-16.7,0.2
		c-6.2-4.3-8.7-11.3-5.7-15.7C282.1,285.2,289.6,285.1,295.7,289.4z M314.1,289.4c-6.2,4.3-8.7,11.3-5.7,15.7
		c3,4.4,10.5,4.5,16.7,0.2c6.2-4.3,8.7-11.3,5.7-15.7C327.7,285.2,320.3,285.1,314.1,289.4z M294.5,312.8c7,4.8,9.9,12.8,6.4,17.7
		c-3.4,5-11.9,5.1-18.9,0.3c-7-4.8-9.9-12.8-6.4-17.7C279.1,308.1,287.5,308,294.5,312.8z M315.3,312.8c-7,4.8-9.9,12.8-6.4,17.7
		c3.4,5,11.9,5.1,18.9,0.3c7-4.8,9.9-12.8,6.4-17.7C330.7,308.1,322.3,308,315.3,312.8z M303.9,360.8c0.6-0.4,1.2-0.7,1.7-1
		c0,0,0-0.3,0-0.8l0.2-130.9c0,0,0-0.1,0-0.1c1.8-0.5,3.2-2.7,3.3-5.4c0.1-3.1-1.6-5.7-3.9-5.7c-2.2-0.1-4.1,2.4-4.2,5.5
		c-0.1,2.7,1.2,5,3,5.6c0,0,0,0.1,0,0.1l-0.2,131.8C303.9,360.4,303.9,360.8,303.9,360.8z M298.5,253.2c4.3,3,6.1,7.8,3.9,10.9
		c-2.1,3-7.3,3.1-11.6,0.2c-4.3-3-6.1-7.8-3.9-10.9C289.1,250.3,294.2,250.2,298.5,253.2z"/>
	<path class="st9" d="M169,246.6c-4.1,2.8-5.8,7.5-3.8,10.4c2,2.9,7,3,11.1,0.2c4.1-2.8,5.8-7.5,3.8-10.4
		C178.1,243.9,173.1,243.8,169,246.6 M155.5,262.3c5,3.4,7,9.1,4.6,12.7c-2.4,3.5-8.5,3.6-13.5,0.2c-5-3.4-7-9.1-4.6-12.7
		C144.5,258.9,150.5,258.8,155.5,262.3z M170.4,262.3c-5,3.4-7,9.1-4.6,12.7c2.5,3.5,8.5,3.6,13.5,0.2c5-3.4,7-9.1,4.6-12.7
		C181.4,258.9,175.3,258.8,170.4,262.3z M158.3,234.2c3.1,2.1,4.4,5.7,2.9,7.9c-1.5,2.2-5.3,2.3-8.4,0.1c-3.1-2.1-4.4-5.7-2.9-7.9
		C151.5,232.2,155.2,232.1,158.3,234.2z M167.5,234.2c-3.1,2.1-4.4,5.7-2.9,7.9c1.5,2.2,5.3,2.3,8.4,0.1c3.1-2.1,4.4-5.7,2.9-7.9
		C174.4,232.2,170.6,232.1,167.5,234.2z M159.3,223.8c2.5,1.7,3.5,4.5,2.3,6.2c-1.2,1.7-4.2,1.8-6.6,0.1c-2.5-1.7-3.5-4.5-2.3-6.2
		C153.8,222.2,156.8,222.2,159.3,223.8z M166.6,223.8c-2.5,1.7-3.5,4.5-2.3,6.2c1.2,1.7,4.2,1.8,6.6,0.1c2.5-1.7,3.5-4.5,2.3-6.2
		C172,222.2,169,222.2,166.6,223.8z M154.1,281.3c5.9,4.1,8.3,10.8,5.4,15c-2.9,4.2-10,4.3-16,0.2c-5.9-4.1-8.3-10.8-5.4-15
		C141.1,277.3,148.2,277.2,154.1,281.3z M171.7,281.3c-5.9,4.1-8.3,10.8-5.4,15c2.9,4.2,10,4.3,16,0.2c5.9-4.1,8.3-10.8,5.4-15
		C184.8,277.3,177.6,277.2,171.7,281.3z M153,303.7c6.7,4.6,9.4,12.2,6.2,17c-3.3,4.8-11.4,4.9-18,0.3c-6.7-4.6-9.4-12.2-6.2-17
		C138.2,299.2,146.3,299.1,153,303.7z M172.9,303.7c-6.7,4.6-9.4,12.2-6.2,17c3.3,4.8,11.4,4.9,18,0.3c6.7-4.6,9.4-12.2,6.2-17
		C187.6,299.2,179.6,299.1,172.9,303.7z M162,349.6c0.6-0.3,1.1-0.7,1.6-1c0,0,0-0.3,0-0.8l0.2-125.3c0,0,0-0.1,0-0.1
		c1.7-0.5,3.1-2.6,3.2-5.2c0.1-3-1.6-5.4-3.7-5.5c-2.1-0.1-3.9,2.3-4,5.3c-0.1,2.6,1.2,4.8,2.9,5.4c0,0,0,0.1,0,0.1L162,348.7
		C162,349.3,162,349.6,162,349.6z M156.8,246.6c4.1,2.8,5.8,7.5,3.8,10.4c-2,2.9-7,3-11.1,0.2c-4.1-2.8-5.8-7.5-3.8-10.4
		C147.8,243.9,152.7,243.8,156.8,246.6z"/>
	<path class="st8" d="M126.1,282.2c-4.6,3.2-6.5,8.4-4.2,11.7c2.3,3.3,7.8,3.4,12.4,0.2c4.6-3.2,6.5-8.4,4.2-11.7
		C136.3,279.1,130.8,279,126.1,282.2 M111,299.7c5.6,3.9,7.9,10.2,5.2,14.2c-2.7,4-9.5,4.1-15.1,0.2c-5.6-3.9-7.9-10.2-5.2-14.2
		C98.6,295.9,105.4,295.8,111,299.7z M127.6,299.7c-5.6,3.9-7.9,10.2-5.2,14.2c2.7,4,9.5,4.1,15.1,0.2c5.6-3.9,7.9-10.2,5.2-14.2
		C140,295.9,133.2,295.8,127.6,299.7z M114.1,268.2c3.5,2.4,4.9,6.4,3.2,8.8c-1.7,2.5-5.9,2.5-9.4,0.1c-3.5-2.4-4.9-6.4-3.2-8.8
		C106.4,265.9,110.6,265.8,114.1,268.2z M124.5,268.2c-3.5,2.4-4.9,6.4-3.2,8.8c1.7,2.5,5.9,2.5,9.4,0.1c3.5-2.4,4.9-6.4,3.2-8.8
		C132.2,265.9,128,265.8,124.5,268.2z M115.2,256.6c2.8,1.9,3.9,5,2.5,7c-1.4,2-4.7,2-7.4,0.1c-2.8-1.9-3.9-5-2.5-7
		C109.1,254.7,112.4,254.7,115.2,256.6z M123.4,256.6c-2.8,1.9-3.9,5-2.5,7c1.4,2,4.7,2,7.4,0.1c2.8-1.9,3.9-5,2.5-7
		C129.5,254.7,126.1,254.7,123.4,256.6z M109.4,321c6.6,4.6,9.4,12.1,6.1,16.8c-3.3,4.7-11.3,4.8-17.9,0.3
		c-6.6-4.6-9.4-12.1-6.1-16.8C94.8,316.6,102.8,316.5,109.4,321z M129.2,321c-6.6,4.6-9.4,12.1-6.1,16.8c3.3,4.7,11.3,4.8,17.9,0.3
		c6.6-4.6,9.4-12.1,6.1-16.8C143.8,316.6,135.8,316.5,129.2,321z M108.1,346.3c7.5,5.2,10.6,13.7,6.9,19c-3.7,5.3-12.8,5.5-20.3,0.3
		c-7.5-5.2-10.6-13.7-6.9-19C91.6,341.2,100.6,341.1,108.1,346.3z M130.5,346.3c-7.5,5.2-10.6,13.7-6.9,19s12.8,5.5,20.3,0.3
		c7.5-5.2,10.6-13.7,6.9-19C147,341.2,138,341.1,130.5,346.3z M118.2,397.7c0.6-0.4,1.3-0.8,1.8-1.1c0,0,0-0.3,0-0.9l0.2-140.7
		c0,0,0-0.1,0-0.1c2-0.5,3.5-2.9,3.6-5.8c0.1-3.3-1.8-6.1-4.2-6.2c-2.4-0.1-4.4,2.6-4.5,5.9c-0.1,2.9,1.3,5.4,3.2,6
		c0,0.1,0,0.1,0,0.2l-0.2,141.6C118.2,397.4,118.2,397.7,118.2,397.7z M112.4,282.2c4.6,3.2,6.5,8.4,4.2,11.7
		c-2.3,3.3-7.8,3.4-12.4,0.2c-4.6-3.2-6.5-8.4-4.2-11.7C102.3,279.1,107.8,279,112.4,282.2z"/>
	<path class="st10" d="M289.6,363.5c15.8,19.7,23.7,29.6,23.7,29.6c17.2-5.4,24.3-10.5,23.8-20.4c-0.7-13.3-31.2-75.7-40.5-83.6
		c-3.7-3.2-8.4-5.8-14.2-8c0.5,48.1,0.7,72.2,0.7,72.2C287.5,360.1,289.6,363.5,289.6,363.5"/>
	<defs>
		
			<filter id="Adobe_OpacityMaskFilter_00000109735598336282351940000009946472969230394541_" filterUnits="userSpaceOnUse" x="288.2" y="289.1" width="20.1" height="49.9">
			<feColorMatrix  type="matrix" values="1 0 0 0 0  0 1 0 0 0  0 0 1 0 0  0 0 0 1 0"/>
		</filter>
	</defs>
	
		<mask maskUnits="userSpaceOnUse" x="288.2" y="289.1" width="20.1" height="49.9" id="SVGID_00000089571792564902653170000006387657062219177899_">
		<g style="filter:url(#Adobe_OpacityMaskFilter_00000109735598336282351940000009946472969230394541_);">
			
				<linearGradient id="SVGID_00000174573329863998457540000001886985184766130079_" gradientUnits="userSpaceOnUse" x1="-271.6061" y1="710.8873" x2="-242.1461" y2="662.7873" gradientTransform="matrix(1 0 0 1 548.4336 -361.9182)">
				<stop  offset="0" style="stop-color:#000000"/>
				<stop  offset="1" style="stop-color:#FFFFFF"/>
			</linearGradient>
			
				<rect x="288.2" y="289.1" style="fill:url(#SVGID_00000174573329863998457540000001886985184766130079_);" width="20.1" height="49.9"/>
		</g>
	</mask>
	
		<path style="mask:url(#SVGID_00000089571792564902653170000006387657062219177899_);fill-rule:evenodd;clip-rule:evenodd;fill:#5988E4;" d="
		M306.6,303.4c2.4,16.9,2.1,28.7-1.1,35.6c-8.9-4.5-15.2-12.9-16.9-22.7c-1.8-9.8,1.2-19.9,8-27.2c1.7,1.7,3.3,3.7,4.7,5.8
		C303.7,298.5,305.5,301.4,306.6,303.4"/>
	<path class="st14" d="M203.4,324.1c-2.4,52.2-3.6,78.2-3.6,78.2c5.8,14.7,21.1,23.3,36.7,20.7c15.6-2.7,27.2-15.9,27.8-31.7
		c-3.4-59.7-5.2-89.6-5.2-89.6C215.9,286.7,197.4,294.1,203.4,324.1"/>
	<path class="st15" d="M244.5,408.5c17.7-5,28.9-7.4,28.9-7.4c4.1-21.6,19.8-90.3,17.5-108.7c-1-8.1-6.5-13.2-23.1-14.2
		c0,0-3.7,10-11.2,30.1c-4.9,2.7-6.4,6-4.6,9.7C247.1,378.3,244.5,408.5,244.5,408.5 M152.5,412.3c23.4,11,42.6,12.7,57.7,4.9
		c2.6-27.2,6-60.7,10.1-100.5c1.3-2.2,1.1-5-0.5-6.9c0,0-2.6-3.3-7.8-9.8c0,0-2.6-8.7-7.7-26.2c-33.9,14.3-50.8,21.5-50.8,21.5
		C152.9,373.3,152.5,412.3,152.5,412.3z"/>
	<defs>
		
			<filter id="Adobe_OpacityMaskFilter_00000024709460473699954980000007007203663703502978_" filterUnits="userSpaceOnUse" x="249" y="283.5" width="27.4" height="98.8">
			<feColorMatrix  type="matrix" values="1 0 0 0 0  0 1 0 0 0  0 0 1 0 0  0 0 0 1 0"/>
		</filter>
	</defs>
	
		<mask maskUnits="userSpaceOnUse" x="249" y="283.5" width="27.4" height="98.8" id="SVGID_00000178170168515989231450000009600786644832235197_">
		<g style="filter:url(#Adobe_OpacityMaskFilter_00000024709460473699954980000007007203663703502978_);">
			
				<linearGradient id="SVGID_00000173853087804705659420000014649700092977116577_" gradientUnits="userSpaceOnUse" x1="-215.575" y1="628.9024" x2="-262.375" y2="663.0424" gradientTransform="matrix(1 0 0 1 509.3118 -318.6391)">
				<stop  offset="0" style="stop-color:#000000"/>
				<stop  offset="1" style="stop-color:#FFFFFF"/>
			</linearGradient>
			
				<rect x="249" y="283.5" style="fill:url(#SVGID_00000173853087804705659420000014649700092977116577_);" width="27.4" height="98.8"/>
		</g>
	</mask>
	
		<path style="mask:url(#SVGID_00000178170168515989231450000009600786644832235197_);fill-rule:evenodd;clip-rule:evenodd;fill:#001572;" d="
		M249,382.3c15-2.6,21.2-6.1,18.5-10.6c3.4-30.7,5.2-46,5.2-46c6.6-14,4.3-30.6-5.8-42.3c-8.3,18.9-12.4,28.4-12.4,28.4
		C250.8,358.8,249,382.3,249,382.3"/>
	<path class="st19" d="M219.2,410.1c58.4-12.1,87.6-18.1,87.6-18.1c-1.2-12.4-8.2-23-18.9-28.7c-15.9,6.6-27.5,11.4-34.8,14.4
		c-4.7,1.9-7.9,3.2-10.9,4.9C235.3,386.5,219.6,403.4,219.2,410.1"/>
	<defs>
		
			<filter id="Adobe_OpacityMaskFilter_00000057837350697157925970000001844527166245880723_" filterUnits="userSpaceOnUse" x="240.5" y="374.6" width="60.8" height="25.6">
			<feColorMatrix  type="matrix" values="1 0 0 0 0  0 1 0 0 0  0 0 1 0 0  0 0 0 1 0"/>
		</filter>
	</defs>
	
		<mask maskUnits="userSpaceOnUse" x="240.5" y="374.6" width="60.8" height="25.6" id="SVGID_00000042706503852642028790000007954615275877530770_">
		<g style="filter:url(#Adobe_OpacityMaskFilter_00000057837350697157925970000001844527166245880723_);">
			
				<linearGradient id="SVGID_00000175305824540180050860000015592262286321184914_" gradientUnits="userSpaceOnUse" x1="-258.5547" y1="681.1173" x2="-181.9248" y2="699.8873" gradientTransform="matrix(1 0 0 1 500.7682 -300.7667)">
				<stop  offset="0" style="stop-color:#000000"/>
				<stop  offset="1" style="stop-color:#FFFFFF"/>
			</linearGradient>
			
				<rect x="240.5" y="374.6" style="fill:url(#SVGID_00000175305824540180050860000015592262286321184914_);" width="60.8" height="25.6"/>
		</g>
	</mask>
	
		<path style="mask:url(#SVGID_00000042706503852642028790000007954615275877530770_);fill-rule:evenodd;clip-rule:evenodd;fill:#EB320A;" d="
		M299.7,393.4c-35.2,5.4-54.9,7.6-59.2,6.5c16.2-9.8,24.3-14.7,24.3-14.7c20.6-7.1,30.9-10.6,30.9-10.6
		C301.3,379.2,302.9,387,299.7,393.4"/>
	<defs>
		
			<filter id="Adobe_OpacityMaskFilter_00000038396596753578588910000011646719659440648353_" filterUnits="userSpaceOnUse" x="285.2" y="363.6" width="17.4" height="26.1">
			<feColorMatrix  type="matrix" values="1 0 0 0 0  0 1 0 0 0  0 0 1 0 0  0 0 0 1 0"/>
		</filter>
	</defs>
	
		<mask maskUnits="userSpaceOnUse" x="285.2" y="363.6" width="17.4" height="26.1" id="SVGID_00000034773181690650551100000010793885884992704412_">
		<g style="filter:url(#Adobe_OpacityMaskFilter_00000038396596753578588910000011646719659440648353_);">
			
				<linearGradient id="SVGID_00000075149958058563487050000005220903385926733472_" gradientUnits="userSpaceOnUse" x1="-272.9405" y1="683.6047" x2="-223.8105" y2="693.5347" gradientTransform="matrix(1 0 0 1 545.4831 -311.2571)">
				<stop  offset="0" style="stop-color:#000000"/>
				<stop  offset="1" style="stop-color:#FFFFFF"/>
			</linearGradient>
			
				<rect x="285.2" y="363.6" style="fill:url(#SVGID_00000075149958058563487050000005220903385926733472_);" width="17.4" height="26.1"/>
		</g>
	</mask>
	
		<path style="mask:url(#SVGID_00000034773181690650551100000010793885884992704412_);fill-rule:evenodd;clip-rule:evenodd;fill:#C50400;" d="
		M290.4,389.7c7.4-0.1,11.1-0.2,11.1-0.2c1.8-5.3,1.2-11.2-1.5-16.1c-2.7-4.9-7.4-8.5-12.9-9.8c0,0-0.6,0.3-1.9,0.8
		C290.1,371.9,292,380.9,290.4,389.7"/>
	<path class="st26" d="M300.8,400.2c6.4,0.5,12.8-1.3,18-5c1-14.9-5.8-29.3-18-38c-5.7-1.8-12,0.1-15.8,4.7
		C296.5,371,302.5,385.5,300.8,400.2"/>
	<path class="st4" d="M224,262.5l38.7,27.3c-1.9,11.6-10.7,20.2-22.3,22c-11.6,1.8-24-3.5-31.6-13.5c-2.7-3.6-4.6-7.5-5.7-11.5
		c4.7-6.2,8.1-13.1,10.1-20.3C217,265.4,220.5,264.4,224,262.5"/>
	<defs>
		
			<filter id="Adobe_OpacityMaskFilter_00000148620040116337170950000011637866091835087779_" filterUnits="userSpaceOnUse" x="203.4" y="306.3" width="17.6" height="17.7">
			<feColorMatrix  type="matrix" values="1 0 0 0 0  0 1 0 0 0  0 0 1 0 0  0 0 0 1 0"/>
		</filter>
	</defs>
	
		<mask maskUnits="userSpaceOnUse" x="203.4" y="306.3" width="17.6" height="17.7" id="SVGID_00000177485777418329508030000005514463764779202463_">
		<g style="filter:url(#Adobe_OpacityMaskFilter_00000148620040116337170950000011637866091835087779_);">
			
				<linearGradient id="SVGID_00000034057791602207007370000008093618313764667811_" gradientUnits="userSpaceOnUse" x1="-239.3201" y1="696.1683" x2="-252.4201" y2="691.7583" gradientTransform="matrix(1 0 0 1 463.6352 -376.871)">
				<stop  offset="0" style="stop-color:#000000"/>
				<stop  offset="1" style="stop-color:#FFFFFF"/>
			</linearGradient>
			
				<rect x="203.4" y="306.3" style="fill:url(#SVGID_00000034057791602207007370000008093618313764667811_);" width="17.6" height="17.7"/>
		</g>
	</mask>
	
		<path style="mask:url(#SVGID_00000177485777418329508030000005514463764779202463_);fill-rule:evenodd;clip-rule:evenodd;fill:#001776;" d="
		M220.4,316.7c1.1-3.8,0.6-7-1.7-9.5c-5.1-3.3-10.2,2.3-15.4,16.8c11.1-2.2,16.6-3.3,16.6-3.3C220.1,319.6,220.3,318.2,220.4,316.7"
		/>
	<defs>
		
			<filter id="Adobe_OpacityMaskFilter_00000180335791500619367280000008067781191658762402_" filterUnits="userSpaceOnUse" x="193.3" y="308.5" width="27.5" height="93.7">
			<feColorMatrix  type="matrix" values="1 0 0 0 0  0 1 0 0 0  0 0 1 0 0  0 0 0 1 0"/>
		</filter>
	</defs>
	
		<mask maskUnits="userSpaceOnUse" x="193.3" y="308.5" width="27.5" height="93.7" id="SVGID_00000147183420813257922090000001619215641670981011_">
		<g style="filter:url(#Adobe_OpacityMaskFilter_00000180335791500619367280000008067781191658762402_);">
			
				<linearGradient id="SVGID_00000072991578021538170180000007741351071604755131_" gradientUnits="userSpaceOnUse" x1="-265.0907" y1="615.5197" x2="-232.3007" y2="683.5397" gradientTransform="matrix(1 0 0 1 453.5484 -298.6963)">
				<stop  offset="0" style="stop-color:#000000"/>
				<stop  offset="1" style="stop-color:#FFFFFF"/>
			</linearGradient>
			
				<rect x="193.3" y="308.5" style="fill:url(#SVGID_00000072991578021538170180000007741351071604755131_);" width="27.5" height="93.7"/>
		</g>
	</mask>
	
		<path style="mask:url(#SVGID_00000147183420813257922090000001619215641670981011_);fill-rule:evenodd;clip-rule:evenodd;fill:#3060BF;" d="
		M213.6,309.1c6-1.8,8.2,0.8,6.8,7.7c0,0-2.9,28.5-8.7,85.5c-9,0.1-16.7-6.4-18.2-15.3c-1.5-8.9,3.6-17.5,12.1-20.4
		C210.9,328.2,213.6,309.1,213.6,309.1"/>
	<defs>
		
			<filter id="Adobe_OpacityMaskFilter_00000005225091187702441000000000737596990853644461_" filterUnits="userSpaceOnUse" x="143.3" y="284.5" width="62.6" height="134.4">
			<feColorMatrix  type="matrix" values="1 0 0 0 0  0 1 0 0 0  0 0 1 0 0  0 0 0 1 0"/>
		</filter>
	</defs>
	
		<mask maskUnits="userSpaceOnUse" x="143.3" y="284.5" width="62.6" height="134.4" id="SVGID_00000130613224112436859400000007371593551961138337_">
		<g style="filter:url(#Adobe_OpacityMaskFilter_00000005225091187702441000000000737596990853644461_);">
			
				<linearGradient id="SVGID_00000039096525216842845000000010051047977896319164_" gradientUnits="userSpaceOnUse" x1="-185.5847" y1="580.4837" x2="-251.0447" y2="660.8237" gradientTransform="matrix(1 0 0 1 403.5889 -282.0172)">
				<stop  offset="0" style="stop-color:#000000"/>
				<stop  offset="1" style="stop-color:#FFFFFF"/>
			</linearGradient>
			
				<rect x="143.3" y="284.5" style="fill:url(#SVGID_00000039096525216842845000000010051047977896319164_);" width="62.6" height="134.4"/>
		</g>
	</mask>
	
		<path style="mask:url(#SVGID_00000130613224112436859400000007371593551961138337_);fill-rule:evenodd;clip-rule:evenodd;fill:#001572;" d="
		M153.6,297.8c-23.7,106.1-6.2,142.5,52.4,109.1c-9.5,4-20.4-0.4-24.6-9.8c-4.2-9.4,0-20.4,9.3-24.8c12.2-24.4,10.3-53.7-5.7-87.9
		C164,293.4,153.6,297.8,153.6,297.8"/>
	<path class="st36" d="M337.6,152.9l31.5,26.9v-0.5c0-1.4,1.1-2.5,2.5-2.5c1.4,0,2.5,1.1,2.5,2.5v4.9l27.4,23.4
		c1.8-1.8,4.7-2,6.7-0.3l10.5,9c2,1.8,2.3,4.9,0.5,6.9l-1.4,1.6c-1.8,2-4.9,2.3-6.9,0.5l-10.5-9c-2-1.7-2.3-4.6-0.7-6.7l-25.6-21.9
		v244.7c0,0-1.7,0.4-5,1.2c0,0,0-0.1,0-0.3V183.5L335.8,155L337.6,152.9z"/>
	<path class="st37" d="M371.6,174.9L371.6,174.9c2.9,0,5.3,2.4,5.3,5.3v11.2c0,2.9-2.4,5.3-5.3,5.3h0c-2.9,0-5.3-2.4-5.3-5.3v-11.2
		C366.3,177.3,368.7,174.9,371.6,174.9"/>
	<path class="st38" d="M291.4,169.7c15.5,10.9,32.4,19.8,50.2,26.4c5.6-9,5.7-20.5,0.2-29.6c-0.7-1.2-1.5-2.3-2.3-3.3l7.9-15.1
		c2.4-4.6,1.2-10.2-2.6-13.5l6.7-12.8c0.6-1.2,0.2-2.7-1.1-3.4h0c-1.2-0.6-2.7-0.2-3.4,1.1l-6.7,12.8c-4.8-1.2-10.1,1-12.5,5.6
		l-7.9,15c-1.4-0.1-2.9-0.2-4.4-0.1C305,153.4,295.6,160,291.4,169.7"/>
	<path class="st37" d="M292.6,169.9l47.9,25.1c1.6,0.8,2.2,2.8,1.3,4.3l-0.2,0.3c-0.8,1.6-2.8,2.2-4.3,1.3l-47.9-25.1
		c-1.6-0.8-2.2-2.8-1.3-4.3l0.2-0.3C289.1,169.7,291,169.1,292.6,169.9"/>
	<path class="st39" d="M223.4,262.9c23.3,16.4,34.9,24.6,34.9,24.6c-1.6,9.6-8.8,16.8-18.5,18.3c-9.7,1.5-19.9-2.9-26.2-11.2
		c-6.3-8.4-7.4-19.1-2.9-27.4C219.2,264.3,223.4,262.9,223.4,262.9"/>
	<defs>
		
			<filter id="Adobe_OpacityMaskFilter_00000160181488888598930230000000104619542009512086_" filterUnits="userSpaceOnUse" x="221.5" y="261" width="33.9" height="45.2">
			<feColorMatrix  type="matrix" values="1 0 0 0 0  0 1 0 0 0  0 0 1 0 0  0 0 0 1 0"/>
		</filter>
	</defs>
	
		<mask maskUnits="userSpaceOnUse" x="221.5" y="261" width="33.9" height="45.2" id="SVGID_00000048466006949934815950000015561743979769776569_">
		<g style="filter:url(#Adobe_OpacityMaskFilter_00000160181488888598930230000000104619542009512086_);">
			
				<linearGradient id="SVGID_00000074425818258503426040000018236482488426032307_" gradientUnits="userSpaceOnUse" x1="-227.8828" y1="710.199" x2="-251.2328" y2="662.009" gradientTransform="matrix(1 0 0 1 481.7622 -394.7406)">
				<stop  offset="0" style="stop-color:#000000"/>
				<stop  offset="1" style="stop-color:#FFFFFF"/>
			</linearGradient>
			
				<rect x="221.5" y="261" style="fill:url(#SVGID_00000074425818258503426040000018236482488426032307_);" width="33.9" height="45.2"/>
		</g>
	</mask>
	
		<path style="mask:url(#SVGID_00000048466006949934815950000015561743979769776569_);fill-rule:evenodd;clip-rule:evenodd;fill:#DB2500;" d="
		M255.4,295.6c-18.2-31.9-29.6-41.7-33.9-29.5c4.8,26,7.2,38.9,7.2,38.9C238.7,308.4,249.7,304.5,255.4,295.6"/>
	<defs>
		
			<filter id="Adobe_OpacityMaskFilter_00000109723964818183651980000016327323560200265912_" filterUnits="userSpaceOnUse" x="224.3" y="268" width="31.1" height="33">
			<feColorMatrix  type="matrix" values="1 0 0 0 0  0 1 0 0 0  0 0 1 0 0  0 0 0 1 0"/>
		</filter>
	</defs>
	
		<mask maskUnits="userSpaceOnUse" x="224.3" y="268" width="31.1" height="33" id="SVGID_00000045607435820139097110000017628249652384381575_">
		<g style="filter:url(#Adobe_OpacityMaskFilter_00000109723964818183651980000016327323560200265912_);">
			
				<linearGradient id="SVGID_00000172428160094065697420000015618959189241555341_" gradientUnits="userSpaceOnUse" x1="-233.8494" y1="717.1057" x2="-246.9294" y2="677.8857" gradientTransform="matrix(1 0 0 1 484.5977 -399.9399)">
				<stop  offset="0" style="stop-color:#000000"/>
				<stop  offset="1" style="stop-color:#FFFFFF"/>
			</linearGradient>
			
				<rect x="224.3" y="268" style="fill:url(#SVGID_00000172428160094065697420000015618959189241555341_);" width="31.1" height="33"/>
		</g>
	</mask>
	
		<path style="mask:url(#SVGID_00000045607435820139097110000017628249652384381575_);fill-rule:evenodd;clip-rule:evenodd;fill:#C50400;" d="
		M255.4,295.6c-17.3-18.9-27.6-28.1-30.8-27.5c-1.1,7.8,1.1,15.8,6,22c4.9,6.2,12.1,10.2,20,11C252.4,299.5,254.1,297.6,255.4,295.6
		"/>
	<path class="st26" d="M252.1,318c-0.5-14.5,12.5,0.6,14.5,1.2c5.9,1.7,8.3-42.4-4.5-47.5c-1.8-0.8-4.1-0.7-6.5,0.1
		c4.4,13.6,8.3,21.1-3.4,36.8C249.7,311.9,249.6,316.1,252.1,318"/>
	<path class="st46" d="M375.9,442.9c-30.1,38.4-75.3,63.2-125.2,67c-63.9,4.8-125.4-25.5-160.4-79.1l209-42.8
		c12.2-2.1,15.8-3.2,25.6-0.8l45.8,12.8c-0.6,1.1-1,2.2-1.4,3.3c-0.7,1.3-1.2,2.6-1.6,4c-0.5,1.4-0.9,2.9-1.1,4.5
		c-0.3,1.3-0.5,2.6-0.6,4l-0.1,0.3c-0.6,2-0.9,4.1-0.9,6.3v1.4C364.8,432,369.3,439.1,375.9,442.9"/>
	<path class="st4" d="M187.6,468.1c57.8-12.5,86.7-18.7,86.7-18.7c0.7-0.2,1.1-0.9,1.1-1.6c0-0.7-0.4-1.3-1.1-1.6l-8.1-0.2
		l-65.8-26.9l-78.8,17l-7.9-1.4c-0.5,0.4-0.7,1-0.7,1.6c0,0.6,0.3,1.2,0.7,1.6C162.9,458.1,187.6,468.1,187.6,468.1"/>
	<path class="st47" d="M187.6,465c57.8-12.5,86.7-18.7,86.7-18.7s-24.6-10.1-73.9-30.3c0,0-28.9,6.2-86.7,18.7
		C162.9,454.9,187.6,465,187.6,465"/>
	<path class="st48" d="M165.3,453.8c53-11.4,79.5-17.2,79.5-17.2s7.6,3,22.8,9c0,0-26.5,5.7-79.5,17.2
		C172.9,456.8,165.3,453.8,165.3,453.8"/>
	<path class="st49" d="M294.5,444.7c20-6.6,38.2-17.5,53.5-32c-24,2-48-4.5-67.9-18.2c-8,8.2-24.4,13.4-49.2,15.7
		C249.3,426.3,271,438.1,294.5,444.7"/>
	<path class="st50" d="M293.8,437.1c0.3,0.8,0.4,1.7,0.4,2.6c-0.4,5.1-0.8,10.3-1.1,15.4c-0.4,5.1-0.7,10.3-1.1,15.4
		c-0.3,3.5-2.8,6.3-5.6,6.3c-6,0-12,0-18,0c-2.8,0-5.4-2.8-5.6-6.3c-0.4-5.1-0.7-10.3-1.1-15.4c-0.4-5.1-0.7-10.3-1.1-15.4
		c-0.1-1.3,0.2-2.4,0.8-3.4c2.8,0.8,5.7,1,8.6,0.5c0.5-0.1,1-0.1,1.6-0.2c0.5-0.1,1-0.2,1.6-0.3c0.7-0.1,1.4-0.2,2.1-0.3
		c1.5-0.2,2.9-0.6,4.2-1.1c0.8,0.4,1.5,0.7,2.3,1c2.4,1,5.1,1.5,7.8,1.5h0.3C291.2,437.4,292.5,437.3,293.8,437.1"/>
	<path class="st4" d="M277.3,432.5c9.7,0,17.5,2.3,17.5,5.2c0,2.8-7.8,5.2-17.5,5.2c-9.7,0-17.5-2.3-17.5-5.2
		C259.8,434.8,267.6,432.5,277.3,432.5"/>
	<path class="st51" d="M277.3,433.7c8.6,0,15.5,1.7,15.5,3.9c0,2.1-7,3.9-15.5,3.9c-8.6,0-15.5-1.7-15.5-3.9
		C261.8,435.5,268.7,433.7,277.3,433.7"/>
	<path class="st52" d="M322.8,447.3c21.6-7.2,41.4-19,57.9-34.6c-26,2.1-52-4.8-73.4-19.7c-8.7,8.9-26.4,14.5-53.2,17
		C273.9,427.4,297.4,440.2,322.8,447.3"/>
	<path class="st53" d="M315,289.8l207.7-20.1c0.7-0.1,1.3,0.1,1.8,0.4l0,0l5.5,3.1c-0.9,1.4-2.7,1.9-4.2,1.1l-1.1,38.1
		c-4.2,0.3-8.3,1.7-11.9,4.4c-2.7,1-5.3,2.5-7.5,4.6c-0.8,0.7-1.6,1.5-2.4,2.2l-2.2,1c-1.7,0.8-3.2,1.8-4.8,2.8l-3.2,1.6l-2.5,0.6
		c-2,0.4-4,1.2-5.8,2.2l-0.7,0.1c-1.4,0.2-2.7,0.5-4,1c-0.9,0-1.8,0.2-2.6,0.3l-0.1,0c-1.5,0-3,0.1-4.5,0.3c-2,0-4,0.2-5.9,0.7
		c-3.9-6.3-10.8-10.5-18.7-10.5h-3c-1.8,0-3.6,0.2-5.3,0.7l-0.6,0.1c-1.2,0.3-2.3,0.6-3.5,1.1c-1.4,0.4-2.8,0.7-4.1,1.3l-1.2,0.5
		l0,0c-0.3,0.1-0.5,0.2-0.8,0.3c-1,0.4-2,0.9-3,1.4l-4.2,2.1c-1,0.5-1.9,1-2.8,1.6c-1.7,1.2-3.4,2.4-5,3.6l2.2-0.7
		c-2.6,0.9-5.1,2.3-7.2,4.3c-1,0.9-2.1,1.8-3,2.7l-3.2,3.2c-1.8,1.7-3.3,3.8-4.5,6.1l-0.2,0.3c-0.6,0.8-1.1,1.6-1.5,2.3
		c-2.5,3.6-4,8-4,12.7v0.2c0,6,2.4,11.5,6.4,15.4c0,0.5,0.1,1,0.1,1.4c-1.5,1.4-2.9,3-4,4.8c-1.2,1.9-2.5,3.8-3.4,5.9l-0.6,1.5
		c-1.2,2.2-2.3,4.3-3.5,6.5c-0.7,1.4-1.2,2.7-1.7,4.1l-1.5,2.8l-0.4,0.5c-1.9,2.1-3.4,4.5-4.5,7.3l-0.3,0.7l-0.8,1.3
		c-0.8,1.2-1.4,2.5-1.9,3.9l-0.5,1.4l-0.8,2.2c-0.4,1-0.8,1.9-1.2,2.9c-1.5,2-2.7,4.4-3.4,6.9c-0.5,0.7-0.9,1.5-1.2,2.2
		c-0.1,0.1-0.2,0.3-0.3,0.4l-54,5.2c0.1,1.8-1.1,3.4-2.8,3.8c0-0.1-1.5-1.4-4.3-4c0,0-0.1-0.1-0.1-0.1v0c-0.6-0.5-0.9-1.3-0.9-2.2
		l4.4-148.9C311.7,291.7,313.2,290,315,289.8"/>
	<path class="st54" d="M318.1,293.3l211-20.4c0.9-0.1,1.6,0.6,1.6,1.5l-1.1,35.6c0,1.2,0,1.8,0,1.8c-32.7,26.3-75,37.7-116.5,31.3
		c-1.7,36.3-14.7,71.2-37.1,99.9c0,0-2.5,0.2-7.5,0.7l-55,5.3c-0.9,0.1-1.6-0.6-1.6-1.5l4.5-152.2
		C316.4,294.2,317.2,293.4,318.1,293.3"/>
	<path class="st55" d="M112.5,365.4c18-1,35.5,6.5,47.2,20.2c6.2-10.6,16.1-29.2,18.5-41c3.1-15.1-10.5-61.1-28.7-47.1
		C138.4,306.1,123.2,341.2,112.5,365.4"/>
	<path class="st19" d="M196.7,424.8c0,0.9-0.3,1.9-1,2.9c0,0,1.2,1.7,3.5,5.2c0.6,1,0.7,2.3,0.1,3.4c-0.5,1.1-1.5,1.9-2.7,2.1
		c0,0-0.8-0.2-2.4-0.5c0.3,1.4,0,3-0.9,4.1c-0.9,1.2-2.3,1.8-3.8,1.8c0,0-1.6-0.1-4.4-0.9c-1.1,2.8-2.7,4.6-5.7,4.9
		c-0.6,0.9-4.1,2.4-7.2,2.1c0,0-4.8-0.9-14.4-2.7c-5.3-1.6-7.2-6.7-10-11c-7.3-4.8-39.5-19.9-39.7-26.8c-5.7-8.3-1.8-18.6,4.5-26.4
		c6.3-7.8,17-10.6,26.3-6.8c9.3,3.8,17.7,10.2,16.7,20.2c7.4,9,12.1,14.9,12.1,14.9c2.5-0.2,13.5-1.7,16.2-1.1c1.3,0.3,2.4,1,3.4,2
		C188.7,413.9,196.6,422.5,196.7,424.8"/>
	<path class="st56" d="M194.8,437c0.5,0.3,0.6,0.9,0.3,1.4c-0.3,0.5-0.9,0.6-1.4,0.3l-8.2-5.1c0,0-0.1,0-0.1-0.1l-11.5-8.1
		c-0.5-0.3-0.6-0.9-0.2-1.4c0.3-0.5,0.9-0.6,1.4-0.2l11.5,8.1l0,0L194.8,437z"/>
	<path class="st56" d="M184.9,441.8c0.5,0.3,0.6,0.9,0.3,1.4c-0.3,0.5-0.9,0.6-1.4,0.3l-7-4.2c0,0,0,0-0.1,0l0,0l-6.9-4.8
		c-0.5-0.3-0.6-1-0.2-1.4c0.3-0.5,1-0.6,1.4-0.2l6.8,4.8L184.9,441.8z"/>
	<path class="st56" d="M179.1,446.5c0.5,0.3,0.7,0.9,0.4,1.4c-0.3,0.5-0.9,0.7-1.4,0.4l-5.6-3c-0.1,0-0.1-0.1-0.2-0.1l-4.7-3.4
		c-0.4-0.3-0.5-1-0.2-1.4c0.3-0.4,1-0.5,1.4-0.2l4.6,3.4L179.1,446.5z"/>
	<path class="st57" d="M181.7,390.3c1.3-0.4,2.7,0.3,3.1,1.6l11.2,34.6c0.2,0.6,0.1,1.3-0.1,1.8c-0.7-0.7-1.5-1.4-2.3-2.1
		c-1.2-1.3-2.6-2.5-4-3.6l-9.5-29.2C179.7,392.1,180.4,390.7,181.7,390.3"/>
	<defs>
		
			<filter id="Adobe_OpacityMaskFilter_00000061444087147200267490000001556764435781226120_" filterUnits="userSpaceOnUse" x="107.4" y="384.4" width="63.7" height="64.1">
			<feColorMatrix  type="matrix" values="1 0 0 0 0  0 1 0 0 0  0 0 1 0 0  0 0 0 1 0"/>
		</filter>
	</defs>
	
		<mask maskUnits="userSpaceOnUse" x="107.4" y="384.4" width="63.7" height="64.1" id="SVGID_00000137115364968900336260000012238254432355453068_">
		<g style="filter:url(#Adobe_OpacityMaskFilter_00000061444087147200267490000001556764435781226120_);">
			
				<linearGradient id="SVGID_00000086679049807299001480000004378459336587036831_" gradientUnits="userSpaceOnUse" x1="-213.6507" y1="654.4821" x2="-242.7207" y2="682.8121" gradientTransform="matrix(1 0 0 1 367.7074 -252.4377)">
				<stop  offset="0" style="stop-color:#000000"/>
				<stop  offset="1" style="stop-color:#FFFFFF"/>
			</linearGradient>
			
				<rect x="107.4" y="384.4" style="fill:url(#SVGID_00000086679049807299001480000004378459336587036831_);" width="63.7" height="64.1"/>
		</g>
	</mask>
	
		<path style="mask:url(#SVGID_00000137115364968900336260000012238254432355453068_);fill-rule:evenodd;clip-rule:evenodd;fill:#EB3C16;" d="
		M144.5,415.4c-1.8,5.2-0.7,10.9,3,15.1c3.6,4.1,9.2,5.9,14.6,4.7l9.1,13.3l-12.3-2.4c-2.7-0.7-5.7-4.4-9.1-10.9
		c-16.8-10.2-27.3-14.9-41.9-27.6c-1.5-8.9,2-17.8,9.1-23.3L144.5,415.4z"/>
	<defs>
		
			<filter id="Adobe_OpacityMaskFilter_00000012469687859878271090000004986982197560247940_" filterUnits="userSpaceOnUse" x="107.4" y="379.3" width="42.7" height="40.3">
			<feColorMatrix  type="matrix" values="1 0 0 0 0  0 1 0 0 0  0 0 1 0 0  0 0 0 1 0"/>
		</filter>
	</defs>
	
		<mask maskUnits="userSpaceOnUse" x="107.4" y="379.3" width="42.7" height="40.3" id="SVGID_00000108990983947193005570000008933715805315775161_">
		<g style="filter:url(#Adobe_OpacityMaskFilter_00000012469687859878271090000004986982197560247940_);">
			
				<linearGradient id="SVGID_00000014627405190492857780000004089145590604602257_" gradientUnits="userSpaceOnUse" x1="-217.9472" y1="673.5971" x2="-295.1772" y2="700.1871" gradientTransform="matrix(1 0 0 1 367.7088 -281.3828)">
				<stop  offset="0" style="stop-color:#000000"/>
				<stop  offset="1" style="stop-color:#FFFFFF"/>
			</linearGradient>
			
				<rect x="107.4" y="379.3" style="fill:url(#SVGID_00000014627405190492857780000004089145590604602257_);" width="42.7" height="40.3"/>
		</g>
	</mask>
	
		<path style="mask:url(#SVGID_00000108990983947193005570000008933715805315775161_);fill-rule:evenodd;clip-rule:evenodd;fill:#BF0200;" d="
		M107.8,407.7c4.8,4.2,10,8.2,15.6,11.9c-6.2-8-6.1-19.2,0.3-27c6.4-7.8,17.3-10.2,26.4-5.7c-3-3.1-6.7-5.4-10.8-6.6
		c-4.6-1.2-9.4-1.3-14-0.1c-3.6,1-6.9,2.8-9.7,5.2C109.4,391,106.4,399.4,107.8,407.7"/>
	<defs>
		
			<filter id="Adobe_OpacityMaskFilter_00000036948067150321135470000002747382212699622314_" filterUnits="userSpaceOnUse" x="133.8" y="379.3" width="51.2" height="43.3">
			<feColorMatrix  type="matrix" values="1 0 0 0 0  0 1 0 0 0  0 0 1 0 0  0 0 0 1 0"/>
		</filter>
	</defs>
	
		<mask maskUnits="userSpaceOnUse" x="133.8" y="379.3" width="51.2" height="43.3" id="SVGID_00000012471607587912488260000008365635415750810767_">
		<g style="filter:url(#Adobe_OpacityMaskFilter_00000036948067150321135470000002747382212699622314_);">
			
				<linearGradient id="SVGID_00000152969060297466682170000012306998670408326276_" gradientUnits="userSpaceOnUse" x1="-245.8925" y1="703.5969" x2="-229.6925" y2="668.4669" gradientTransform="matrix(1 0 0 1 394.0699 -278.2757)">
				<stop  offset="0" style="stop-color:#000000"/>
				<stop  offset="1" style="stop-color:#FFFFFF"/>
			</linearGradient>
			
				<rect x="133.8" y="379.3" style="fill:url(#SVGID_00000152969060297466682170000012306998670408326276_);" width="51.2" height="43.3"/>
		</g>
	</mask>
	
		<path style="mask:url(#SVGID_00000012471607587912488260000008365635415750810767_);fill-rule:evenodd;clip-rule:evenodd;fill:#FFC89E;" d="
		M181.5,410.1c1.6-0.1,2.7,0.1,3.5,0.5c-1.7,7-7.9,11.9-15,12.1c-7.2,0.1-13.5-4.6-15.4-11.6c0,0-6.9-10.6-20.7-31.8
		c10.2,0.5,18.9,7.4,22,17.1c5.5,6.7,9.5,11.6,12.1,14.9c3.5-0.4,6.2-0.7,8.1-0.9C177.8,410.3,179.7,410.1,181.5,410.1"/>
	<path class="st56" d="M196.4,427c0.4,0.4,0.4,1,0.1,1.4c-0.4,0.4-1,0.4-1.4,0.1l-7.2-6.5l-12.3-8c-0.5-0.3-0.6-0.9-0.3-1.4
		c0.3-0.5,0.9-0.6,1.4-0.3l12.3,8.1l0,0c0,0,0.1,0.1,0.1,0.1L196.4,427z"/>
	<path class="st26" d="M108.1,409.4c-1-0.4-1.9-1-2.7-1.6c-5-13.8-3.6-32.1,6.7-43.4c17.8-6.9,44,4,48.5,21.6
		c-0.5,3.1-2.6,7.3-4.9,10.5c-3.1-9.9-12.3-17.1-23.2-17.1h-0.8c-13.4,0-24.3,10.9-24.3,24.3C107.4,405.6,107.7,407.6,108.1,409.4"
		/>
	<defs>
		
			<filter id="Adobe_OpacityMaskFilter_00000146478657014940358650000016089319305222870458_" filterUnits="userSpaceOnUse" x="119.2" y="299.4" width="49" height="68.2">
			<feColorMatrix  type="matrix" values="1 0 0 0 0  0 1 0 0 0  0 0 1 0 0  0 0 0 1 0"/>
		</filter>
	</defs>
	
		<mask maskUnits="userSpaceOnUse" x="119.2" y="299.4" width="49" height="68.2" id="SVGID_00000165945698919133286230000000357152804161716649_">
		<g style="filter:url(#Adobe_OpacityMaskFilter_00000146478657014940358650000016089319305222870458_);">
			
				<linearGradient id="SVGID_00000014635821222339971830000012134679298105106366_" gradientUnits="userSpaceOnUse" x1="-195.5415" y1="665.9968" x2="-256.4515" y2="667.2867" gradientTransform="matrix(1 0 0 1 379.4272 -333.3237)">
				<stop  offset="0" style="stop-color:#000000"/>
				<stop  offset="1" style="stop-color:#FFFFFF"/>
			</linearGradient>
			
				<rect x="119.2" y="299.4" style="fill:url(#SVGID_00000014635821222339971830000012134679298105106366_);" width="49" height="68.2"/>
		</g>
	</mask>
	
		<path style="mask:url(#SVGID_00000165945698919133286230000000357152804161716649_);fill-rule:evenodd;clip-rule:evenodd;fill:#002992;" d="
		M119.2,362.6c8.7,6.1,14.3,6.6,17,1.5c9.3-18.4,14-27.6,14-27.6c-5.2-5.6-5.8-14-1.5-20.3c4.4-6.3,12.5-8.6,19.6-5.7
		c-11.1-19.2-18.2-10.4-27,4.1C133.6,327.2,126.3,343.2,119.2,362.6"/>
	<defs>
		
			<filter id="Adobe_OpacityMaskFilter_00000166664649196883681920000002356869546227211959_" filterUnits="userSpaceOnUse" x="146.5" y="313.7" width="32.1" height="71">
			<feColorMatrix  type="matrix" values="1 0 0 0 0  0 1 0 0 0  0 0 1 0 0  0 0 0 1 0"/>
		</filter>
	</defs>
	
		<mask maskUnits="userSpaceOnUse" x="146.5" y="313.7" width="32.1" height="71" id="SVGID_00000069395230042738390720000016025011361632820413_">
		<g style="filter:url(#Adobe_OpacityMaskFilter_00000166664649196883681920000002356869546227211959_);">
			
				<linearGradient id="SVGID_00000046340087349010488000000000360841486851780769_" gradientUnits="userSpaceOnUse" x1="-286.1998" y1="670.724" x2="-230.6698" y2="663.784" gradientTransform="matrix(1 0 0 1 406.7637 -316.3343)">
				<stop  offset="0" style="stop-color:#000000"/>
				<stop  offset="1" style="stop-color:#FFFFFF"/>
			</linearGradient>
			
				<rect x="146.5" y="313.7" style="fill:url(#SVGID_00000046340087349010488000000000360841486851780769_);" width="32.1" height="71"/>
		</g>
	</mask>
	
		<path style="mask:url(#SVGID_00000069395230042738390720000016025011361632820413_);fill-rule:evenodd;clip-rule:evenodd;fill:#5988E4;" d="
		M160.3,384.6c-9.2-10.7-13.8-16-13.8-16c8.7-19.1,13-28.6,13-28.6c-5.1-4.7-6.4-12.3-3.1-18.4c3.3-6.1,10.4-9.2,17.1-7.5
		c2.5,7.4,4,13.2,4.5,17.4c0.8,5.3,0.8,9.7,0.2,13.1c-0.8,4.2-2.8,9.7-5.9,16.8C168.3,370,164.3,377.7,160.3,384.6"/>
	<path class="st26" d="M108.1,409.4c-1-0.4-1.9-1-2.7-1.6c-5-13.8-3.6-32.1,6.7-43.4c17.8-6.9,44,4,48.5,21.6
		c-0.5,3.1-2.6,7.3-4.9,10.5c-3.1-9.9-12.3-17.1-23.2-17.1h-0.8c-13.4,0-24.3,10.9-24.3,24.3C107.4,405.6,107.7,407.6,108.1,409.4"
		/>
	<defs>
		
			<filter id="Adobe_OpacityMaskFilter_00000070097768452773824470000012571229466698510469_" filterUnits="userSpaceOnUse" x="105.4" y="364.8" width="24.7" height="34.3">
			<feColorMatrix  type="matrix" values="1 0 0 0 0  0 1 0 0 0  0 0 1 0 0  0 0 0 1 0"/>
		</filter>
	</defs>
	
		<mask maskUnits="userSpaceOnUse" x="105.4" y="364.8" width="24.7" height="34.3" id="SVGID_00000090988389607784326420000002693194936471645592_">
		<g style="filter:url(#Adobe_OpacityMaskFilter_00000070097768452773824470000012571229466698510469_);">
			
				<linearGradient id="SVGID_00000045590594328046196100000016410922343072977827_" gradientUnits="userSpaceOnUse" x1="-219.1724" y1="661.5405" x2="-267.6024" y2="699.0605" gradientTransform="matrix(1 0 0 1 365.6968 -301.9133)">
				<stop  offset="0" style="stop-color:#000000"/>
				<stop  offset="1" style="stop-color:#FFFFFF"/>
			</linearGradient>
			
				<rect x="105.4" y="364.8" style="fill:url(#SVGID_00000045590594328046196100000016410922343072977827_);" width="24.7" height="34.3"/>
		</g>
	</mask>
	
		<path style="mask:url(#SVGID_00000090988389607784326420000002693194936471645592_);fill-rule:evenodd;clip-rule:evenodd;fill:#0D3EA3;" d="
		M113.3,366.7c-6.5,9.5-9.2,21-7.4,32.4c2-10.9,10.6-19.4,21.6-21.1c0,0,0.9-4.2,2.6-12.7C124.5,364.3,118.7,364.8,113.3,366.7"/>
	<defs>
		
			<filter id="Adobe_OpacityMaskFilter_00000121256184330728180090000007752523879635038897_" filterUnits="userSpaceOnUse" x="142.1" y="370" width="18.6" height="26.4">
			<feColorMatrix  type="matrix" values="1 0 0 0 0  0 1 0 0 0  0 0 1 0 0  0 0 0 1 0"/>
		</filter>
	</defs>
	
		<mask maskUnits="userSpaceOnUse" x="142.1" y="370" width="18.6" height="26.4" id="SVGID_00000131344386718476708880000004388891716992442038_">
		<g style="filter:url(#Adobe_OpacityMaskFilter_00000121256184330728180090000007752523879635038897_);">
			
				<linearGradient id="SVGID_00000152248814836538869140000015073632177026007696_" gradientUnits="userSpaceOnUse" x1="-288.9992" y1="689.1987" x2="-241.7092" y2="687.3687" gradientTransform="matrix(1 0 0 1 402.3672 -304.5059)">
				<stop  offset="0" style="stop-color:#000000"/>
				<stop  offset="1" style="stop-color:#FFFFFF"/>
			</linearGradient>
			
				<rect x="142.1" y="370" style="fill:url(#SVGID_00000152248814836538869140000015073632177026007696_);" width="18.6" height="26.4"/>
		</g>
	</mask>
	
		<path style="mask:url(#SVGID_00000131344386718476708880000004388891716992442038_);fill-rule:evenodd;clip-rule:evenodd;fill:#A1ADF8;" d="
		M148.6,370c5.9,4.1,10.4,9.6,12,15.9c-0.5,3.1-2.6,7.3-4.9,10.5c-2.1-6.8-7.2-12.4-13.7-15.2c4.1-0.4,7.2-3.9,7.2-8.1
		C149.3,372.1,149.1,371,148.6,370"/>
	<path class="st26" d="M220.4,316.7c1-16.9-14.4,5.7-16.7,7.2c-6.8,4.3-11.8-41.6,6.3-56.8c2.1-1.6,4.8-2.5,7.5-2.5
		c-5,17.3-3.3,26.3,3.1,41.2C222.1,309.7,223.3,313.6,220.4,316.7"/>
	<defs>
		
			<filter id="Adobe_OpacityMaskFilter_00000019659318459949682810000001912931210309972626_" filterUnits="userSpaceOnUse" x="256.9" y="283.3" width="13.1" height="21">
			<feColorMatrix  type="matrix" values="1 0 0 0 0  0 1 0 0 0  0 0 1 0 0  0 0 0 1 0"/>
		</filter>
	</defs>
	
		<mask maskUnits="userSpaceOnUse" x="256.9" y="283.3" width="13.1" height="21" id="SVGID_00000134950198572085558210000002031979431808628133_">
		<g style="filter:url(#Adobe_OpacityMaskFilter_00000019659318459949682810000001912931210309972626_);">
			
				<linearGradient id="SVGID_00000111179128322726402440000003865428052822957189_" gradientUnits="userSpaceOnUse" x1="-244.3748" y1="694.8981" x2="-261.9348" y2="686.5681" gradientTransform="matrix(1 0 0 1 517.1788 -396.6775)">
				<stop  offset="0" style="stop-color:#000000"/>
				<stop  offset="1" style="stop-color:#FFFFFF"/>
			</linearGradient>
			
				<rect x="256.9" y="283.3" style="fill:url(#SVGID_00000111179128322726402440000003865428052822957189_);" width="13.1" height="21"/>
		</g>
	</mask>
	
		<path style="mask:url(#SVGID_00000134950198572085558210000002031979431808628133_);fill-rule:evenodd;clip-rule:evenodd;fill:#1948A8;" d="
		M260.6,294.7c-0.3-4.3,2.3-8.1,7.9-11.4c0.6,2.3,1.1,4.4,1.4,6.2c-0.3,7.4-5.8,13.6-13.1,14.8C258.9,301.4,260.1,298.1,260.6,294.7
		"/>
	<path class="st19" d="M273.3,228.1c-10.9-8.8-26.4-9.1-37.7-0.8c-11.3,8.3-15.6,23.2-10.4,36.2c-4.4,15.3,14.5,29.2,27.4,31.8
		c6.9,1.4,12.6-1.2,15.2-10.5c2-4.9,5.7-11.4,7.4-17.5c1.4-5.1,0.3-7.6,0.3-10.9C275.6,244.5,282.1,243.6,273.3,228.1"/>
	<defs>
		
			<filter id="Adobe_OpacityMaskFilter_00000038386864797157184160000015568271868826936244_" filterUnits="userSpaceOnUse" x="261.8" y="222.3" width="16.1" height="71.7">
			<feColorMatrix  type="matrix" values="1 0 0 0 0  0 1 0 0 0  0 0 1 0 0  0 0 0 1 0"/>
		</filter>
	</defs>
	
		<mask maskUnits="userSpaceOnUse" x="261.8" y="222.3" width="16.1" height="71.7" id="SVGID_00000177470400887615274040000000301886785955801243_">
		<g style="filter:url(#Adobe_OpacityMaskFilter_00000038386864797157184160000015568271868826936244_);">
			
				<linearGradient id="SVGID_00000101086619533186938690000017523309363567005375_" gradientUnits="userSpaceOnUse" x1="-236.725" y1="684.1575" x2="-259.165" y2="656.5475" gradientTransform="matrix(1 0 0 1 522.1199 -406.9128)">
				<stop  offset="0" style="stop-color:#000000"/>
				<stop  offset="1" style="stop-color:#FFFFFF"/>
			</linearGradient>
			
				<rect x="261.8" y="222.3" style="fill:url(#SVGID_00000101086619533186938690000017523309363567005375_);" width="16.1" height="71.7"/>
		</g>
	</mask>
	
		<path style="mask:url(#SVGID_00000177470400887615274040000000301886785955801243_);fill-rule:evenodd;clip-rule:evenodd;fill:#FFC89E;" d="
		M273.3,228.1c-3.4-2.7-7.3-4.7-11.3-5.7c9,14.2,12.4,31.9,8,49.5c-0.3,1.1-0.6,2.1-0.9,3.1c-1.4,6.8-4,13.3-7.4,19.1
		c2.7-1.6,4.8-4.6,6.1-9.3c2-4.9,5.7-11.4,7.4-17.5c1.4-5.1,0.3-7.6,0.3-10.9C275.6,244.5,282.1,243.6,273.3,228.1"/>
	<defs>
		
			<filter id="Adobe_OpacityMaskFilter_00000138559128894765739770000002632924168199049623_" filterUnits="userSpaceOnUse" x="226.6" y="226" width="34" height="62.2">
			<feColorMatrix  type="matrix" values="1 0 0 0 0  0 1 0 0 0  0 0 1 0 0  0 0 0 1 0"/>
		</filter>
	</defs>
	
		<mask maskUnits="userSpaceOnUse" x="226.6" y="226" width="34" height="62.2" id="SVGID_00000121978242143246624150000017537741917030158526_">
		<g style="filter:url(#Adobe_OpacityMaskFilter_00000138559128894765739770000002632924168199049623_);">
			
				<linearGradient id="SVGID_00000157306694208412246950000009080698350563529653_" gradientUnits="userSpaceOnUse" x1="-226.0413" y1="690.6307" x2="-259.2013" y2="650.6807" gradientTransform="matrix(1 0 0 1 486.8501 -412.7153)">
				<stop  offset="0" style="stop-color:#000000"/>
				<stop  offset="1" style="stop-color:#FFFFFF"/>
			</linearGradient>
			
				<rect x="226.6" y="226" style="fill:url(#SVGID_00000157306694208412246950000009080698350563529653_);" width="34" height="62.2"/>
		</g>
	</mask>
	
		<path style="mask:url(#SVGID_00000121978242143246624150000017537741917030158526_);fill-rule:evenodd;clip-rule:evenodd;fill:#E4320B;" d="
		M227.5,265.2c-4.4-35.7,6.6-47,33-33.9c-4.6-0.8-9.2,1.2-11.7,5.1c-4.1,6.5-0.3,11,1.6,16c5.4,14.5-20.3,18.8-8.9,35.8
		C231.1,280.6,226.4,273,227.5,265.2"/>
	<defs>
		
			<filter id="Adobe_OpacityMaskFilter_00000011735396519684354710000001610255667150339988_" filterUnits="userSpaceOnUse" x="228.4" y="252.2" width="26.8" height="14.8">
			<feColorMatrix  type="matrix" values="1 0 0 0 0  0 1 0 0 0  0 0 1 0 0  0 0 0 1 0"/>
		</filter>
	</defs>
	
		<mask maskUnits="userSpaceOnUse" x="228.4" y="252.2" width="26.8" height="14.8" id="SVGID_00000134934140060245330730000015507025528315203473_">
		<g style="filter:url(#Adobe_OpacityMaskFilter_00000011735396519684354710000001610255667150339988_);">
			
				<linearGradient id="SVGID_00000156582750290844119740000014420354562052752780_" gradientUnits="userSpaceOnUse" x1="-230.0981" y1="704.5145" x2="-258.2082" y2="686.1145" gradientTransform="matrix(1 0 0 1 488.6909 -433.9508)">
				<stop  offset="0" style="stop-color:#000000"/>
				<stop  offset="1" style="stop-color:#FFFFFF"/>
			</linearGradient>
			
				<rect x="228.4" y="252.2" style="fill:url(#SVGID_00000156582750290844119740000014420354562052752780_);" width="26.8" height="14.8"/>
		</g>
	</mask>
	
		<path style="mask:url(#SVGID_00000134934140060245330730000015507025528315203473_);fill-rule:evenodd;clip-rule:evenodd;fill:#B50000;" d="
		M233,252.2c-3.2,4.1-4.7,5.9-4.6,5.5c-0.2,0.2,2.8,0.7,9,1.5c1.4,3.3,4.1,5.9,7.5,7.1s7.2,0.9,10.3-0.8c-3.2,0.3-6.3-0.8-8.6-3
		c-2.3-2.2-3.6-5.2-3.5-8.4C236.4,252.8,233,252.2,233,252.2"/>
	<path class="st91" d="M225.3,263.4c-0.9-6.9-2.6-11.8-9.6-11.7c-9.8-9-11.5-23.7-2.4-29.8c-1-6.7,2.1-13.4,7.8-17
		c4.5-2.7,5.7-0.9,3.6,5.6c12.8-9.2,31.6-8.8,43.8-2.6c8.9,4.6,14.1,9.5,15,13.7c3.2,14.3-32.8,8.9-40.8,8.1
		c-5.1-0.5-6.7,0.7-2.7,9.4c2.4,5.1,0.8,7.1-1.4,9.4c-4.2,4.3-4.9,5.6-5,12C233.5,266.6,228.3,266.9,225.3,263.4"/>
	<path class="st92" d="M259.6,241.7c0.6,0.1,1,0.6,1,1.1c-0.1,0.6-0.6,1-1.1,1c-1.9-0.2-3.7,0-5.5,0.5c-1.8,0.5-3.5,1.2-5,2.3
		c-0.5,0.3-1.1,0.2-1.5-0.3c-0.3-0.5-0.2-1.1,0.3-1.5c1.7-1.2,3.6-2.1,5.6-2.6C255.4,241.7,257.5,241.5,259.6,241.7"/>
	<path class="st92" d="M271,244.8c-0.6,0-1-0.5-1-1.1c0-0.6,0.5-1,1.1-1c1.4,0.1,2.7,0.4,4,0.8c1.3,0.5,2.5,1.1,3.6,1.9
		c0.5,0.3,0.6,1,0.2,1.5c-0.3,0.5-1,0.6-1.5,0.2c-1-0.7-2-1.2-3.1-1.6C273.3,245.1,272.2,244.9,271,244.8"/>
	<path class="st57" d="M253.9,252.3L253.9,252.3c0.7,0,1.2,0.6,1.2,1.2v1.3c0,0.7-0.6,1.2-1.2,1.2h0c-0.7,0-1.2-0.6-1.2-1.2v-1.3
		C252.7,252.9,253.2,252.3,253.9,252.3"/>
	<path class="st57" d="M273.9,253.1L273.9,253.1c0.6,0,1.1,0.5,1.1,1.1v1.1c0,0.6-0.5,1.1-1.1,1.1c-0.6,0-1.1-0.5-1.1-1.1v-1.1
		C272.8,253.6,273.3,253.1,273.9,253.1"/>
	<path class="st4" d="M277.9,250.6c1,0,1.8,0.8,1.8,1.8c0,1-0.8,1.8-1.8,1.8s-1.8-0.8-1.8-1.8C276,251.4,276.9,250.6,277.9,250.6"/>
	<path class="st4" d="M257.5,250.3c1,0,1.8,0.8,1.8,1.8c0,1-0.8,1.8-1.8,1.8c-1,0-1.8-0.8-1.8-1.8
		C255.8,251.1,256.6,250.3,257.5,250.3"/>
	<path class="st93" d="M255.2,275.5c-0.3-0.3-0.3-0.8,0-1.1c0.3-0.3,0.8-0.3,1.1,0c1.7,1.7,3.9,2.7,6.1,2.9c2.3,0.3,4.6-0.2,6.7-1.4
		c0.4-0.2,0.9-0.1,1.1,0.3c0.2,0.4,0.1,0.9-0.3,1.1c-2.4,1.4-5.1,1.9-7.6,1.6C259.6,278.5,257.2,277.4,255.2,275.5"/>
	<path class="st93" d="M258.5,280c-0.1-0.1-0.1-0.4,0-0.5c0.1-0.1,0.4-0.1,0.5,0c0.8,0.8,1.8,1.2,2.8,1.3c1,0.1,2.1-0.1,3-0.6
		c0.2-0.1,0.4,0,0.5,0.1c0.1,0.2,0,0.4-0.1,0.5c-1.1,0.6-2.3,0.9-3.5,0.7C260.5,281.4,259.4,280.8,258.5,280"/>
	<defs>
		
			<filter id="Adobe_OpacityMaskFilter_00000018196188698481976400000017815280738527178154_" filterUnits="userSpaceOnUse" x="207.3" y="203.6" width="33.9" height="62">
			<feColorMatrix  type="matrix" values="1 0 0 0 0  0 1 0 0 0  0 0 1 0 0  0 0 0 1 0"/>
		</filter>
	</defs>
	
		<mask maskUnits="userSpaceOnUse" x="207.3" y="203.6" width="33.9" height="62" id="SVGID_00000170263070751899909100000014560287325657226152_">
		<g style="filter:url(#Adobe_OpacityMaskFilter_00000018196188698481976400000017815280738527178154_);">
			
				<linearGradient id="SVGID_00000063604631650208896180000006199897975567187623_" gradientUnits="userSpaceOnUse" x1="-230.5538" y1="634.7005" x2="-245.8338" y2="676.8105" gradientTransform="matrix(1 0 0 1 467.6017 -435.2975)">
				<stop  offset="0" style="stop-color:#000000"/>
				<stop  offset="1" style="stop-color:#FFFFFF"/>
			</linearGradient>
			
				<rect x="207.3" y="203.6" style="fill:url(#SVGID_00000063604631650208896180000006199897975567187623_);" width="33.9" height="62"/>
		</g>
	</mask>
	
		<path style="mask:url(#SVGID_00000170263070751899909100000014560287325657226152_);fill-rule:evenodd;clip-rule:evenodd;fill:#0B0000;" d="
		M225.3,263.4c-0.9-6.9-2.6-11.8-9.6-11.7c-9.8-9-11.5-23.7-2.4-29.8c-1-6.7,2.1-13.4,7.8-17c4.5-2.7,5.7-0.9,3.6,5.6
		c4.2-3,9.1-5,14.2-6.1c-5.5,3.8-9.2,10.2-9.2,17.4c0,7.9,4.3,14.8,10.8,18.4c1.7,4.3,0.2,6.2-1.9,8.3c-4.2,4.3-4.9,5.6-5,12
		C233.5,266.6,228.3,266.9,225.3,263.4"/>
	<path class="st97" d="M258.8,249.6c-1.6-1.6-3.7-2.5-6.1-2.5c-2.4,0-4.6,1-6.1,2.5c-1.6,1.6-2.5,3.7-2.5,6.1c0,2.4,1,4.6,2.5,6.1
		c1.6,1.6,3.7,2.5,6.1,2.5c2.4,0,4.6-1,6.1-2.5c1.6-1.6,2.5-3.7,2.5-6.1C261.3,253.3,260.3,251.2,258.8,249.6 M280.6,250.6
		c-1.3-1.4-3.1-2.2-5.1-2.2c-2,0-3.8,0.9-5.1,2.2c-1.3,1.4-2.1,3.3-2.1,5.5s0.8,4.1,2.1,5.5c1.3,1.4,3.1,2.2,5.1,2.2
		c2,0,3.8-0.9,5.1-2.2c1.3-1.4,2.1-3.3,2.1-5.5S281.9,252,280.6,250.6z M252.6,245.7c2.8,0,5.3,1.1,7.1,2.9c1.1,1.1,2,2.5,2.5,4
		c0.2-0.1,0.4-0.3,0.6-0.4c0.6-0.3,1.3-0.5,2-0.5h0c0.7,0,1.4,0.1,2,0.4c0.3,0.1,0.5,0.3,0.8,0.4c0.4-1.1,1.1-2.1,1.9-3
		c1.6-1.7,3.7-2.7,6.1-2.7c2.4,0,4.5,1,6.1,2.7c1.5,1.6,2.5,3.9,2.5,6.4c0,2.5-1,4.8-2.5,6.4c-1.6,1.7-3.7,2.7-6.1,2.7
		c-2.4,0-4.5-1-6.1-2.7c-1.5-1.6-2.5-3.9-2.5-6.4c0-0.7,0.1-1.3,0.2-2c-0.3-0.3-0.6-0.5-0.9-0.6c-0.4-0.2-0.9-0.3-1.4-0.3
		c-0.5,0-1,0.1-1.4,0.3c-0.3,0.2-0.6,0.4-0.9,0.7c0.1,0.5,0.1,1,0.1,1.6c0,2.8-1.1,5.3-2.9,7.1c-1.8,1.8-4.3,2.9-7.1,2.9
		c-2.8,0-5.3-1.1-7.1-2.9c-1.8-1.8-2.9-4.3-2.9-7.1c0-0.4,0-0.8,0.1-1.1l-24.3-4l-6.9,7.5c-0.3,0.3-0.8,0.3-1.1,0
		c-0.3-0.3-0.3-0.8,0-1.1l7.2-7.7c0.2-0.2,0.5-0.3,0.8-0.3l24.7,4.1c0.5-1.7,1.4-3.2,2.6-4.4C247.3,246.8,249.8,245.7,252.6,245.7z"
		/>
	<path class="st98" d="M216.4,248.3c3.5-1.8,8.3,0.6,10.7,5.3c2.4,4.8,1.6,10.1-1.9,11.9c-3.5,1.8-8.3-0.6-10.7-5.3
		C212.1,255.5,212.9,250.1,216.4,248.3"/>
	<path class="st99" d="M217.7,252.8c2-1.1,4.8,0.3,6.3,3.1c1.4,2.8,0.9,5.9-1.1,7c-2,1.1-4.8-0.3-6.3-3.1
		C215.1,257,215.6,253.9,217.7,252.8"/>
	<path class="st100" d="M220,253.7c1.2-0.7,3,0.2,3.8,1.9c0.9,1.7,0.6,3.6-0.7,4.3c-1.2,0.7-3-0.2-3.8-1.9
		C218.4,256.2,218.7,254.3,220,253.7"/>
	<path class="st99" d="M272.9,264.4c1.8,3.9,1.5,7-6,5.2c-1-1-2.1-1.1-3.4-0.2c-1.3,0.2-2.5-0.4-3.1-1.6c-0.6-1.2-0.3-2.5,0.6-3.4
		c0.9-0.9,2.3-1,3.5-0.4C263.2,249.5,265.4,248.3,272.9,264.4"/>
	<defs>
		
			<filter id="Adobe_OpacityMaskFilter_00000108309248000383680710000002768843004755774120_" filterUnits="userSpaceOnUse" x="259.1" y="204.5" width="24.6" height="26.8">
			<feColorMatrix  type="matrix" values="1 0 0 0 0  0 1 0 0 0  0 0 1 0 0  0 0 0 1 0"/>
		</filter>
	</defs>
	
		<mask maskUnits="userSpaceOnUse" x="259.1" y="204.5" width="24.6" height="26.8" id="SVGID_00000085942055108166336820000004871949167906334116_">
		<g style="filter:url(#Adobe_OpacityMaskFilter_00000108309248000383680710000002768843004755774120_);">
			
				<linearGradient id="SVGID_00000111891244263091763550000016296544607730661789_" gradientUnits="userSpaceOnUse" x1="-268.6912" y1="699.7825" x2="-243.1611" y2="684.7026" gradientTransform="matrix(1 0 0 1 519.4057 -469.6393)">
				<stop  offset="0" style="stop-color:#000000"/>
				<stop  offset="1" style="stop-color:#FFFFFF"/>
			</linearGradient>
			
				<rect x="259.1" y="204.5" style="fill:url(#SVGID_00000111891244263091763550000016296544607730661789_);" width="24.6" height="26.8"/>
		</g>
	</mask>
	
		<path style="mask:url(#SVGID_00000085942055108166336820000004871949167906334116_);fill-rule:evenodd;clip-rule:evenodd;fill:#713B24;" d="
		M259.1,204.5c3.4,0.8,6.5,1.9,9.4,3.4c8.9,4.6,14.1,9.5,15,13.7c1.6,7.1-6.4,9.3-15.9,9.7c1.2-2.6,1.8-5.5,1.8-8.6
		C269.5,215,265.3,208.2,259.1,204.5"/>
	<path class="st4" d="M278.2,449.4c3.5,0,6.3,3.3,6.3,7.5c0,4.1-2.8,7.5-6.3,7.5c-3.5,0-6.3-3.3-6.3-7.5
		C271.8,452.8,274.7,449.4,278.2,449.4"/>
	<path class="st104" d="M280.8,449.4c-3.4,2.2-2.6,4.7-1.8,7.2c1,3.1,2,6.2-2.8,8.8l-0.7-1.4c3.7-2,2.9-4.4,2-6.9
		c-1-3.1-2-6.2,2.4-9L280.8,449.4z"/>
	<path class="st105" d="M274.1,422.4c-2.4,5.3-3.3,10.9-0.7,13.2c2.3,1.9,4.5,0.1,4.8-2.4c0.2-1.9,0.2-4.3,1.2-6.8
		c1.4-3.4,4.1-5.3,6.8-7.5c8.4-6.8,9.3-17.9,3.8-25.7c-3.5-5-10.4-6.4-9.2-13.1c1.3-7.2,12-8,11.7-21.4c-0.2-7.1-5.9-13.5-13.7-15.3
		c-5.6-1.3-11.6,0.3-15.8,5.6c-5.6,7.1-7.5,19-4.7,28.6c2.3,7.8,7.6,12,14.5,15.8c3.9,2.2,7.4,4.5,8.8,9.6
		C284.3,412.6,277.4,415,274.1,422.4"/>
	<defs>
		
			<filter id="Adobe_OpacityMaskFilter_00000062891699028024497910000006535294225945192886_" filterUnits="userSpaceOnUse" x="311.9" y="272.9" width="218.8" height="176">
			<feColorMatrix  type="matrix" values="1 0 0 0 0  0 1 0 0 0  0 0 1 0 0  0 0 0 1 0"/>
		</filter>
	</defs>
	
		<mask maskUnits="userSpaceOnUse" x="311.9" y="272.9" width="218.8" height="176" id="SVGID_00000117673904372611940270000005267792624229658036_">
		<g style="filter:url(#Adobe_OpacityMaskFilter_00000062891699028024497910000006535294225945192886_);">
			
				<linearGradient id="SVGID_00000083064350157665719940000013034296759968734629_" gradientUnits="userSpaceOnUse" x1="-167.1" y1="459.6663" x2="-145.47" y2="664.2463" gradientTransform="matrix(1 0 0 1 572.142 -252.0371)">
				<stop  offset="0" style="stop-color:#000000"/>
				<stop  offset="1" style="stop-color:#FFFFFF"/>
			</linearGradient>
			
				<rect x="311.9" y="272.9" style="fill:url(#SVGID_00000083064350157665719940000013034296759968734629_);" width="218.8" height="176"/>
		</g>
	</mask>
	
		<path style="mask:url(#SVGID_00000117673904372611940270000005267792624229658036_);fill-rule:evenodd;clip-rule:evenodd;fill:#684EA1;" d="
		M506.7,275.1l22.4-2.2c0.9-0.1,1.6,0.6,1.6,1.5l-1.1,35.6c0,1.2,0,1.8,0,1.8c-28.9,23.3-65.4,34.9-102.1,32.8L506.7,275.1z
		 M411.6,358.4c-4.2,30.7-16.5,59.9-35.7,84.5c0,0-2.5,0.2-7.5,0.7l-55,5.3c-0.9,0.1-1.6-0.6-1.6-1.5l0-1.6L411.6,358.4z"/>
	<defs>
		
			<filter id="Adobe_OpacityMaskFilter_00000155866163795846246120000009288367179378463927_" filterUnits="userSpaceOnUse" x="313.6" y="281.8" width="123.8" height="106">
			<feColorMatrix  type="matrix" values="1 0 0 0 0  0 1 0 0 0  0 0 1 0 0  0 0 0 1 0"/>
		</filter>
	</defs>
	
		<mask maskUnits="userSpaceOnUse" x="313.6" y="281.8" width="123.8" height="106" id="SVGID_00000142174146836512653470000014926656901846348980_">
		<g style="filter:url(#Adobe_OpacityMaskFilter_00000155866163795846246120000009288367179378463927_);">
			
				<linearGradient id="SVGID_00000156581937096794277560000003524787141774820287_" gradientUnits="userSpaceOnUse" x1="-251.3346" y1="736.4205" x2="-162.6946" y2="588.2805" gradientTransform="matrix(1 0 0 1 573.9038 -313.1572)">
				<stop  offset="0" style="stop-color:#000000"/>
				<stop  offset="1" style="stop-color:#FFFFFF"/>
			</linearGradient>
			
				<rect x="313.6" y="281.8" style="fill:url(#SVGID_00000156581937096794277560000003524787141774820287_);" width="123.8" height="106"/>
		</g>
	</mask>
	
		<path style="mask:url(#SVGID_00000142174146836512653470000014926656901846348980_);fill-rule:evenodd;clip-rule:evenodd;fill:#B9A6E4;" d="
		M318.1,293.3l119.3-11.6l-123.8,106l2.7-92.6C316.4,294.2,317.2,293.4,318.1,293.3"/>
	<path class="st53" d="M408.9,327.6l36.3-3.6c1-0.1,1.9,0.7,1.9,1.7v13.8l0,2.9c-5-5.2-12.5-7.8-20.1-6.3c-5,1-9.2,3.6-12.3,7.2
		c-0.5-0.1-1.1-0.2-1.6-0.2c0,0.9-0.1,1.7-0.1,2.6c-0.6,3.2-2.3,6.7-2.7,11.5c-0.1,1.5-0.8,2.8-0.5,4.8l0.2,0.9
		c0.2,0.8,0.4,1.6,0.6,2.4c-1,5.5-2.2,10.9-3.7,16.3l0.1-7.1v-44.9C407,328.6,407.8,327.7,408.9,327.6"/>
	<path class="st112" d="M411.4,329.6l36.3-3.6c1-0.1,1.9,0.7,1.9,1.7v9.8c0.1,4.5,0.1,6.7,0.1,6.7c-12.2,1.2-24.5,0.8-36.6-1.1
		c-0.5,9.5-1.7,18.9-3.6,28.2l0.2-9l-0.1,0.2v-30.9C409.5,330.6,410.4,329.7,411.4,329.6"/>
	<path class="st10" d="M341,103.6h1.8c1.2,0,2.2,1,2.2,2.2v1.8c0,1.2-1,2.2-2.2,2.2H341c-1.2,0-2.2-1-2.2-2.2v-1.8
		C338.8,104.6,339.8,103.6,341,103.6"/>
	<g>
		<path d="M431.8,96.4l-0.1,0.5h-0.9l0.8-4.3h0.9l0.8,4.3h-0.9l-0.1-0.5H431.8z M431.9,95.7h0.4l-0.2-1.5L431.9,95.7z"/>
		<path d="M433.6,92.6h1.7l0.1,0.8h-0.9v1h0.7v0.8h-0.7v1.8h-0.9V92.6z"/>
		<path d="M437.4,92.6l0.2,0.8h-0.6v3.5h-0.9v-3.5h-0.6l0.2-0.8H437.4z"/>
		<path d="M437.9,92.6h1.7l0.1,0.8h-0.9v1h0.7v0.8h-0.7v0.9h0.9l-0.2,0.8h-1.7V92.6z"/>
		<path d="M442.3,95.2c0,0.2-0.1,0.4-0.4,0.4l0.5,1.4h-0.9l-0.4-1.4h-0.1v1.4H440v-4.3h1.6c0.4,0,0.6,0.2,0.6,0.6V95.2z M440.9,93.4
			v1.5h0.4c0.1,0,0.1,0,0.1-0.1v-1.3c0-0.1,0-0.1-0.1-0.1H440.9z"/>
		<path d="M443.4,92.6h1.7l0.1,0.8h-0.9v1h0.7v0.8h-0.7v0.9h0.9l-0.2,0.8h-1.7V92.6z"/>
		<path d="M445.5,92.6h1.7l0.1,0.8h-0.9v1h0.7v0.8h-0.7v1.8h-0.9V92.6z"/>
		<path d="M447.6,92.6h1.7l0.1,0.8h-0.9v1h0.7v0.8h-0.7v1.8h-0.9V92.6z"/>
		<path d="M449.8,92.6h1.7l0.1,0.8h-0.9v1h0.7v0.8h-0.7v0.9h0.9l-0.2,0.8h-1.7V92.6z"/>
		<path d="M452.6,96.9c-0.5,0-0.7-0.2-0.7-0.7v-3.1c0-0.3,0.2-0.5,0.5-0.5h1.1l0.2,0.8h-0.8c-0.1,0-0.1,0-0.1,0.1V96
			c0,0.1,0,0.1,0.1,0.1h0.8l-0.2,0.8H452.6z"/>
		<path d="M455.7,92.6l0.2,0.8h-0.6v3.5h-0.9v-3.5h-0.6l0.2-0.8H455.7z"/>
		<path d="M456.4,96.9l-0.2-0.8h0.9c0.1,0,0.1,0,0.1-0.1v-0.8c0-0.1,0-0.1-0.2-0.1h-0.4c-0.3,0-0.5-0.1-0.5-0.5v-1.5
			c0-0.3,0.2-0.6,0.6-0.6h1.2l0.2,0.8h-1c-0.1,0-0.1,0-0.1,0.1v0.8c0,0.1,0,0.1,0.1,0.1h0.5c0.3,0,0.4,0.1,0.4,0.4v1.4
			c0,0.5-0.2,0.7-0.7,0.7H456.4z"/>
	</g>
</g>
</svg>
