<svg width="302" height="69" viewBox="0 0 302 69" fill="none" xmlns="http://www.w3.org/2000/svg">
<path d="M218.004 65.4263C219.01 64.6756 219.43 63.6746 219.43 62.4233C219.43 61.1721 219.01 60.1711 218.171 59.2535C217.501 58.5028 216.577 58.0857 215.571 58.0857H212.635C210.37 58.0857 208.441 57.1681 206.931 55.4164C205.422 53.5811 204.666 51.3289 204.666 48.6596V25.3862H213.39C214.564 25.3862 215.487 24.9691 216.242 24.3018C216.601 23.9841 216.866 23.6286 217.044 23.2352C217.24 22.8025 217.333 22.3237 217.333 21.7993C217.333 20.6315 216.997 19.7139 216.242 19.0466C215.487 18.3792 214.564 18.0456 213.39 18.0456H204.666V4.44859C204.666 3.2808 204.247 2.1964 203.492 1.44556C202.653 0.694889 201.647 0.277771 200.305 0.277771C199.505 0.277771 198.782 0.432865 198.137 0.796068C197.836 0.965539 197.552 1.1803 197.285 1.44556C196.53 2.1964 196.111 3.19741 196.111 4.44859V18.129H191.33C190.155 18.129 189.233 18.4627 188.478 19.13C187.723 19.7973 187.387 20.7149 187.387 21.8827C187.387 22.8837 187.723 23.7179 188.478 24.3852C189.233 25.1361 190.155 25.4696 191.33 25.4696H196.111V48.743C196.111 52.163 196.866 55.2494 198.292 57.9189C199.802 60.5882 201.731 62.6736 204.247 64.2585C206.763 65.8434 209.532 66.5943 212.719 66.5943H214.48C215.907 66.5943 217.081 66.2605 218.004 65.4263Z" fill="#DE28D8"/>
<path d="M183.528 21.2988C183.277 22.133 182.857 22.8003 182.354 23.2174C181.851 23.6344 181.18 23.8847 180.425 23.9681C180.223 23.9904 180.022 24.0008 179.817 24.0008C179.589 24.001 179.358 23.9882 179.118 23.9651C179.035 23.957 178.951 23.9476 178.866 23.9372L178.666 23.9108C178.45 23.8806 178.227 23.8437 177.993 23.8013C174.134 23.2174 170.779 23.3008 167.759 24.0515C164.739 24.8857 162.391 26.2205 160.713 28.0555C159.036 29.8908 158.113 32.3933 158.113 35.2294V62.3399C158.113 63.6746 157.777 64.759 157.023 65.5097C156.267 66.2605 155.261 66.5941 153.835 66.5941C152.493 66.5941 151.403 66.2605 150.648 65.5097C149.893 64.8424 149.557 63.758 149.557 62.3399V20.4646C149.557 19.13 149.893 18.0456 150.648 17.2948C151.403 16.5441 152.409 16.2104 153.835 16.2104C155.261 16.2104 156.351 16.5441 157.023 17.2948C157.777 17.962 158.113 19.0466 158.113 20.4646V22.8837C159.707 21.0485 161.552 19.4636 163.733 18.2958C166.752 16.6275 170.108 15.7099 173.799 15.7099C177.237 15.7099 179.754 16.2104 181.516 17.2948C183.277 18.3792 183.948 19.7139 183.528 21.2988Z" fill="#DE28D8"/>
<path d="M71.4658 62.4249V35.9819C71.4658 31.7275 70.7104 28.1405 69.2011 25.0541C67.6072 22.0511 65.5102 19.7155 62.7417 18.1306C59.974 16.5457 56.8708 15.7115 53.2638 15.7115C49.3213 15.7115 45.7982 16.6291 42.695 18.2974C40.3465 19.6321 38.4172 21.3004 36.8233 23.3858C35.3971 21.1337 33.5517 19.3818 31.3709 18.1306C28.6031 16.5457 25.4992 15.7115 21.8929 15.7115C18.202 15.7115 15.0143 16.6291 12.1626 18.2974C11.3639 18.7936 10.6251 19.3193 9.94566 19.892C9.48304 20.2822 9.04716 20.6943 8.63948 21.1337V20.6331C8.63948 19.2984 8.30407 18.2974 7.46557 17.4632C6.62634 16.7125 5.53629 16.2954 4.27781 16.2954C3.01933 16.2954 1.92928 16.6291 1.17463 17.4632C0.419252 18.2974 0 19.3818 0 20.6331V62.3415C0 63.5929 0.335401 64.5937 1.17463 65.4279C1.92928 66.2622 2.93548 66.6793 4.27781 66.6793C5.62014 66.6793 6.62634 66.2622 7.46557 65.4279C8.22022 64.5937 8.63948 63.5929 8.63948 62.3415V35.8983C8.63948 32.3114 9.8141 29.3919 11.9949 27.0561C14.1758 24.804 17.0274 23.636 20.3829 23.636C23.6537 23.636 26.3384 24.637 28.3515 26.806C30.3647 28.9748 31.3709 31.9778 31.3709 35.9819V62.4249C31.3709 63.6762 31.7063 64.6772 32.5455 65.5113C33.384 66.3455 34.4748 66.7627 35.7325 66.7627C36.4612 66.7627 37.1334 66.6228 37.7167 66.343C38.1411 66.1398 38.5184 65.8625 38.8364 65.5113C39.5911 64.6772 40.0103 63.6762 40.0103 62.4249V36.1486C40.0103 32.4783 41.1011 29.4753 43.282 27.1395C45.4628 24.804 48.3144 23.636 51.6699 23.636C54.9415 23.636 57.6254 24.7206 59.6385 26.806C61.7355 28.9748 62.7417 31.9778 62.7417 35.9819V62.4249C62.7417 63.6762 63.1617 64.6772 64.0002 65.5113C64.8387 66.3455 65.8456 66.7627 67.1041 66.7627C68.4457 66.7627 69.4527 66.3455 70.2912 65.5113C71.0458 64.6772 71.4658 63.6762 71.4658 62.4249Z" fill="#DE28D8"/>
<path fill-rule="evenodd" clip-rule="evenodd" d="M123.052 19.2134C126.91 21.4656 129.93 24.552 132.194 28.3891C134.459 32.3097 135.634 36.6475 135.634 41.4856V62.3399C135.634 63.5911 135.214 64.5921 134.459 65.4263C133.621 66.2604 132.614 66.6775 131.272 66.6775C130.014 66.6775 129.007 66.2604 128.168 65.4263C127.33 64.5921 126.91 63.5911 126.91 62.3399V58.1691C125.233 60.4212 123.22 62.1729 120.787 63.6744C117.264 65.8434 113.154 66.9278 108.624 66.9278C104.011 66.9278 99.9004 65.8434 96.2942 63.5911C92.6033 61.4223 89.7517 58.3358 87.6547 54.4986C85.4731 50.5781 84.4669 46.2403 84.4669 41.4022C84.4669 36.4806 85.5577 32.143 87.8224 28.3057C90.0871 24.4686 93.1064 21.4656 96.965 19.2134C100.824 16.961 105.185 15.8766 109.966 15.8766C114.832 15.8766 119.193 16.961 123.052 19.2134ZM118.858 57.0011C121.458 55.4162 123.471 53.2474 124.981 50.5781C126.49 47.9088 127.246 44.8224 127.246 41.4856C127.246 38.0655 126.49 34.979 124.981 32.3097C123.471 29.5571 121.374 27.4716 118.858 25.8867C116.341 24.3017 113.405 23.551 110.05 23.551C106.863 23.551 103.927 24.3017 101.327 25.8867C98.7265 27.4716 96.6296 29.6404 95.1195 32.3097C93.6095 34.979 92.8548 38.0655 92.8548 41.4856C92.8548 44.8224 93.6095 47.9088 95.1195 50.5781C96.6296 53.3308 98.7265 55.4162 101.327 57.0011C103.927 58.586 106.863 59.3368 110.05 59.3368C113.322 59.3368 116.257 58.586 118.858 57.0011Z" fill="#DE28D8"/>
<path fill-rule="evenodd" clip-rule="evenodd" d="M276.048 28.3891C273.784 24.552 270.764 21.4656 266.906 19.2134C263.047 16.961 258.686 15.8766 253.82 15.8766C249.039 15.8766 244.677 16.961 240.819 19.2134C236.96 21.4656 233.941 24.4686 231.676 28.3057C229.412 32.143 228.321 36.4806 228.321 41.4022C228.321 46.2403 229.328 50.5781 231.509 54.4986C233.606 58.3358 236.457 61.4223 240.148 63.5911C243.755 65.8434 247.865 66.9278 252.478 66.9278C257.008 66.9278 261.118 65.8434 264.641 63.6744C267.073 62.1729 269.087 60.4212 270.764 58.1691V62.3399C270.764 63.5911 271.184 64.5921 272.022 65.4263C272.861 66.2604 273.867 66.6775 275.126 66.6775C276.384 66.6775 277.474 66.2604 278.313 65.4263C279.152 64.5921 279.488 63.5911 279.488 62.3399V41.4856C279.488 36.6475 278.313 32.3097 276.048 28.3891ZM268.835 50.5781C267.325 53.2474 265.312 55.4162 262.712 57.0011C260.195 58.586 257.175 59.3368 253.904 59.3368C250.717 59.3368 247.781 58.586 245.181 57.0011C242.58 55.4162 240.483 53.3308 238.973 50.5781C237.463 47.9088 236.709 44.8224 236.709 41.4856C236.709 38.0655 237.463 34.979 238.973 32.3097C240.483 29.6404 242.58 27.4716 245.181 25.8867C247.781 24.3017 250.717 23.551 253.904 23.551C257.259 23.551 260.195 24.3017 262.712 25.8867C265.228 27.4716 267.325 29.5571 268.835 32.3097C270.344 34.979 271.1 38.0655 271.1 41.4856C271.1 44.8224 270.344 47.9088 268.835 50.5781Z" fill="#DE28D8"/>
<path d="M291.65 66.2616C292.825 67.513 294.251 68.097 295.845 68.097C297.607 68.097 299.033 67.513 300.207 66.2616C301.381 65.0936 301.969 63.6753 301.969 62.0903C301.969 60.4218 301.381 58.9201 300.207 57.7521C299.033 56.5008 297.607 55.9167 295.845 55.9167C294.251 55.9167 292.825 56.5842 291.65 57.7521C290.476 58.9201 289.889 60.3384 289.889 62.0903C289.889 63.6753 290.476 65.0936 291.65 66.2616Z" fill="#DE28D8"/>
</svg>
