<?xml version="1.0" encoding="utf-8"?>
<!-- Generator: Adobe Illustrator 26.0.2, SVG Export Plug-In . SVG Version: 6.00 Build 0)  -->
<svg version="1.1" id="Layer_1" xmlns="http://www.w3.org/2000/svg" xmlns:xlink="http://www.w3.org/1999/xlink" x="0px" y="0px"
	 viewBox="0 0 700 509.8" style="enable-background:new 0 0 700 509.8;" xml:space="preserve">
<style type="text/css">
	.st0{fill-rule:evenodd;clip-rule:evenodd;fill:#DFECF0;}
	.st1{filter:url(#Adobe_OpacityMaskFilter);}
	.st2{fill:url(#SVGID_00000041283894714980241660000008432365421654996393_);}
	.st3{mask:url(#SVGID_1_);fill-rule:evenodd;clip-rule:evenodd;fill:#6B9FC3;}
	.st4{filter:url(#Adobe_OpacityMaskFilter_00000146486663137449679870000015831981036519388061_);}
	.st5{fill:url(#SVGID_00000042720567096462542540000015796389270746774693_);}
	.st6{mask:url(#SVGID_00000183208717316647178210000015948426129574126492_);fill-rule:evenodd;clip-rule:evenodd;fill:#B2CFDB;}
	.st7{filter:url(#Adobe_OpacityMaskFilter_00000144325569502463477770000007654686609880522650_);}
	.st8{fill:url(#SVGID_00000163780021962807630900000006303797722584901817_);}
	.st9{mask:url(#SVGID_00000101073370696099343330000010366420019667991427_);fill-rule:evenodd;clip-rule:evenodd;fill:#5489AE;}
	.st10{fill-rule:evenodd;clip-rule:evenodd;fill:#A65A0D;}
	.st11{fill-rule:evenodd;clip-rule:evenodd;fill:#864300;}
	.st12{fill-rule:evenodd;clip-rule:evenodd;fill:#FFFFFF;}
	.st13{fill-rule:evenodd;clip-rule:evenodd;fill:#DCEEF9;}
	.st14{filter:url(#Adobe_OpacityMaskFilter_00000065074862479132171840000001200104618340378258_);}
	.st15{fill:url(#SVGID_00000111172164626110028680000004115647082565229749_);}
	.st16{mask:url(#SVGID_00000028293716866251427620000002801512844297687200_);fill-rule:evenodd;clip-rule:evenodd;fill:#98CCF0;}
	.st17{opacity:0.37;fill-rule:evenodd;clip-rule:evenodd;fill:#FFFFFF;}
	.st18{fill-rule:evenodd;clip-rule:evenodd;fill:#1A8898;}
	.st19{filter:url(#Adobe_OpacityMaskFilter_00000147937782527255867170000015945312216255201665_);}
	.st20{fill:url(#SVGID_00000013901496802617812060000016053228284534037643_);}
	.st21{mask:url(#SVGID_00000176013443212062969980000006847167807137506458_);fill-rule:evenodd;clip-rule:evenodd;fill:#005260;}
	.st22{filter:url(#Adobe_OpacityMaskFilter_00000015337738601497915640000002912457675632447139_);}
	.st23{fill:url(#SVGID_00000169558489143473881620000015701012545470207362_);}
	.st24{mask:url(#SVGID_00000054949050344981433610000010162992388204691842_);fill-rule:evenodd;clip-rule:evenodd;fill:#6B9FC3;}
	.st25{fill-rule:evenodd;clip-rule:evenodd;fill:#007080;}
	.st26{filter:url(#Adobe_OpacityMaskFilter_00000127749307651612022160000007259991476588450191_);}
	.st27{fill:url(#SVGID_00000143595091080296559260000013543199455302742970_);}
	.st28{mask:url(#SVGID_00000026135966779180819410000009362260584457840772_);fill-rule:evenodd;clip-rule:evenodd;fill:#2A95A6;}
	.st29{filter:url(#Adobe_OpacityMaskFilter_00000013893005159521362850000003483402963748076942_);}
	.st30{fill:url(#SVGID_00000012442445089644316630000013355163726047061684_);}
	.st31{mask:url(#SVGID_00000152231455579612806220000001622034052407446712_);fill-rule:evenodd;clip-rule:evenodd;fill:#003D4E;}
	.st32{filter:url(#Adobe_OpacityMaskFilter_00000023239666393185695030000011367944578278102419_);}
	.st33{fill:url(#SVGID_00000058554853007040403000000017927853865308712839_);}
	.st34{mask:url(#SVGID_00000111879197853251011340000015367772049078323382_);fill-rule:evenodd;clip-rule:evenodd;fill:#6B9FC3;}
	.st35{fill-rule:evenodd;clip-rule:evenodd;fill:#FBBD70;}
	.st36{filter:url(#Adobe_OpacityMaskFilter_00000044865787019160648740000016683885452494298250_);}
	.st37{fill:url(#SVGID_00000021099052033052412810000003464043396855210152_);}
	.st38{mask:url(#SVGID_00000122000199247422307400000014958273277606586784_);fill-rule:evenodd;clip-rule:evenodd;fill:#D13916;}
	.st39{filter:url(#Adobe_OpacityMaskFilter_00000072996340207331769080000004592387440373839805_);}
	.st40{fill:url(#SVGID_00000142871935177884956330000002299764091730771846_);}
	.st41{mask:url(#SVGID_00000182513179173099287950000009871749643035718065_);fill-rule:evenodd;clip-rule:evenodd;fill:#C51605;}
	.st42{fill-rule:evenodd;clip-rule:evenodd;fill:#FFBD6B;}
	.st43{filter:url(#Adobe_OpacityMaskFilter_00000142133986942711593880000000177121523549874361_);}
	.st44{fill:url(#SVGID_00000036938853400890379670000016983304627160664749_);}
	.st45{mask:url(#SVGID_00000049915364946929427480000015866092316808611487_);fill-rule:evenodd;clip-rule:evenodd;fill:#FFEBAD;}
	.st46{filter:url(#Adobe_OpacityMaskFilter_00000170985632775848331770000008850368234520753305_);}
	.st47{fill:url(#SVGID_00000009586244875968177840000014372748067682486156_);}
	.st48{mask:url(#SVGID_00000038412822946699440000000011879786579024062619_);fill-rule:evenodd;clip-rule:evenodd;fill:#EC6B1C;}
	.st49{filter:url(#Adobe_OpacityMaskFilter_00000136406971399065655200000014980468975266809731_);}
	.st50{fill:url(#SVGID_00000029743476940825510120000000213287075395664016_);}
	.st51{mask:url(#SVGID_00000070110091145989005520000009783075783409313702_);fill-rule:evenodd;clip-rule:evenodd;fill:#D13916;}
	.st52{fill-rule:evenodd;clip-rule:evenodd;fill:#894A00;}
	.st53{filter:url(#Adobe_OpacityMaskFilter_00000175298699649752635680000013801124861740280723_);}
	.st54{fill:url(#SVGID_00000083052169268904426050000000172936131855217081_);}
	.st55{mask:url(#SVGID_00000047770419756216602170000001906011709117935037_);fill-rule:evenodd;clip-rule:evenodd;fill:#5B2800;}
	.st56{fill:#894A00;}
	.st57{fill:#9E5800;}
	.st58{fill-rule:evenodd;clip-rule:evenodd;}
	.st59{fill:#FFFFFF;}
	.st60{fill-rule:evenodd;clip-rule:evenodd;fill:#FFCE93;}
	.st61{fill:#C00D00;}
	.st62{fill-rule:evenodd;clip-rule:evenodd;fill:#5E5E5E;}
	.st63{fill-rule:evenodd;clip-rule:evenodd;fill:#AEAEAE;}
	.st64{filter:url(#Adobe_OpacityMaskFilter_00000171681852276215746550000009631035110209582780_);}
	.st65{fill:url(#SVGID_00000064322713935664220970000015187823376026161536_);}
	.st66{mask:url(#SVGID_00000018201648234945716180000001405054678846544292_);fill-rule:evenodd;clip-rule:evenodd;fill:#D8912D;}
	.st67{fill-rule:evenodd;clip-rule:evenodd;fill:#E1DBBE;}
	.st68{fill-rule:evenodd;clip-rule:evenodd;fill:#C07426;}
	.st69{fill:#763A00;}
	.st70{fill:#5E2E00;}
	.st71{fill-rule:evenodd;clip-rule:evenodd;fill:#0E0E0E;}
	.st72{fill-rule:evenodd;clip-rule:evenodd;fill:#B16A24;}
	.st73{fill-rule:evenodd;clip-rule:evenodd;fill:#444444;}
	.st74{fill-rule:evenodd;clip-rule:evenodd;fill:#D8A860;}
	.st75{filter:url(#Adobe_OpacityMaskFilter_00000073698064389524944950000012867963695150911630_);}
	.st76{fill:url(#SVGID_00000006691459612717111610000010653831267872040334_);}
	.st77{mask:url(#SVGID_00000011746766882611296480000010323707729461099164_);fill-rule:evenodd;clip-rule:evenodd;fill:#44ACC3;}
	.st78{fill-rule:evenodd;clip-rule:evenodd;fill:#FBEABE;}
	.st79{opacity:0.23;fill-rule:evenodd;clip-rule:evenodd;fill:#FFFFFF;}
	.st80{fill-rule:evenodd;clip-rule:evenodd;fill:#FBC413;}
	.st81{filter:url(#Adobe_OpacityMaskFilter_00000141426817881706354840000009225344910461237635_);}
	.st82{fill:url(#SVGID_00000047031298568017330330000012688564975184602000_);}
	.st83{mask:url(#SVGID_00000054973945531777370380000009410099114865697204_);fill-rule:evenodd;clip-rule:evenodd;fill:#006676;}
	.st84{filter:url(#Adobe_OpacityMaskFilter_00000155138457780830616540000018194450948878083982_);}
	.st85{fill:url(#SVGID_00000039832000469634952590000012991256154087960739_);}
	.st86{mask:url(#SVGID_00000057112708661277839880000013250760190232659094_);fill-rule:evenodd;clip-rule:evenodd;fill:#BEB78E;}
	.st87{filter:url(#Adobe_OpacityMaskFilter_00000157276943091085248550000007762275050425295292_);}
	.st88{fill:url(#SVGID_00000115497309048926482770000008844310713862556080_);}
	.st89{mask:url(#SVGID_00000183951354667987318970000006114033986374990525_);fill-rule:evenodd;clip-rule:evenodd;fill:#FBFAF2;}
	.st90{fill:#FBC413;}
	.st91{fill:#477B9E;}
	.st92{fill:#386895;}
	.st93{fill:#273B7A;}
	.st94{fill:#121149;}
	.st95{opacity:0.1;fill:#99CCFF;enable-background:new    ;}
	.st96{fill:#FDE085;}
	.st97{fill:#FFC91B;}
	.st98{fill-rule:evenodd;clip-rule:evenodd;fill:#EC6B1C;}
</style>
<g>
	<path class="st0" d="M404.9,34.4L404.9,34.4l0.2,0c0.8-0.1,1.5-0.2,2.3-0.3l0.1,0v0c13.2-1.4,27.9-1.2,44.5,1.2
		c131.4,18.8,198.3,182.8,137.3,305.6c-7.7,15.5-16.6,29.6-26.5,42.4H407.5h-2.6H133.3c-2.8-3.1-5.4-6.2-7.9-9.4l0,0
		c-6.5-8.2-12.3-16.7-17.2-25.5l0,0c-0.2-0.4-0.5-0.9-0.7-1.3l0,0c-0.2-0.4-0.5-0.9-0.7-1.3l0,0c-14.5-26.9-21.2-56-18-85.4
		c5.5-50.5,39.2-91.9,88.8-117.7c35.3-18.4,71.6-21.5,107.3-44.7C323.1,73.1,352.8,40.9,404.9,34.4"/>
	<defs>
		<filter id="Adobe_OpacityMaskFilter" filterUnits="userSpaceOnUse" x="125.3" y="240.4" width="256.5" height="160.6">
			<feColorMatrix  type="matrix" values="1 0 0 0 0  0 1 0 0 0  0 0 1 0 0  0 0 0 1 0"/>
		</filter>
	</defs>
	<mask maskUnits="userSpaceOnUse" x="125.3" y="240.4" width="256.5" height="160.6" id="SVGID_1_">
		<g class="st1">
			
				<linearGradient id="SVGID_00000044164782630329663090000000043559947536156323_" gradientUnits="userSpaceOnUse" x1="-234.5827" y1="476.9971" x2="-67.3527" y2="681.347" gradientTransform="matrix(1 0 0 1 387.5519 -279.2633)">
				<stop  offset="0" style="stop-color:#000000"/>
				<stop  offset="1" style="stop-color:#FFFFFF"/>
			</linearGradient>
			
				<rect x="125.3" y="240.4" style="fill:url(#SVGID_00000044164782630329663090000000043559947536156323_);" width="256.5" height="160.6"/>
		</g>
	</mask>
	<path class="st3" d="M142.8,393.4c103.1,14.5,158,8.3,164.8-18.7c0,0,24.7-37.3,74.2-111.9c0,0-46-7.5-138.1-22.4
		c0,0-39.5,44.5-118.4,133.5C133.3,383.4,139.1,389.9,142.8,393.4"/>
	<defs>
		
			<filter id="Adobe_OpacityMaskFilter_00000034065852206836086290000002917951787704133299_" filterUnits="userSpaceOnUse" x="250" y="88.2" width="362.1" height="295">
			<feColorMatrix  type="matrix" values="1 0 0 0 0  0 1 0 0 0  0 0 1 0 0  0 0 0 1 0"/>
		</filter>
	</defs>
	
		<mask maskUnits="userSpaceOnUse" x="250" y="88.2" width="362.1" height="295" id="SVGID_00000083792045653238480140000004192309132198456252_">
		<g style="filter:url(#Adobe_OpacityMaskFilter_00000034065852206836086290000002917951787704133299_);">
			
				<linearGradient id="SVGID_00000084511211301945149830000009685557013580576433_" gradientUnits="userSpaceOnUse" x1="-186.0316" y1="391.2912" x2="-42.0816" y2="585.4712" gradientTransform="matrix(1 0 0 1 512.2621 -296.9487)">
				<stop  offset="0" style="stop-color:#000000"/>
				<stop  offset="1" style="stop-color:#FFFFFF"/>
			</linearGradient>
			
				<rect x="250" y="88.2" style="fill:url(#SVGID_00000084511211301945149830000009685557013580576433_);" width="362.1" height="295"/>
		</g>
	</mask>
	
		<path style="mask:url(#SVGID_00000083792045653238480140000004192309132198456252_);fill-rule:evenodd;clip-rule:evenodd;fill:#B2CFDB;" d="
		M552.9,88.2c59.5,62.6,78.7,167.5,36.5,252.6c-7.7,15.5-16.6,29.6-26.5,42.4H407.5h-2.6H250L552.9,88.2z"/>
	<defs>
		
			<filter id="Adobe_OpacityMaskFilter_00000127029222792144097570000006522877288263364540_" filterUnits="userSpaceOnUse" x="437.1" y="145.7" width="172.2" height="251.2">
			<feColorMatrix  type="matrix" values="1 0 0 0 0  0 1 0 0 0  0 0 1 0 0  0 0 0 1 0"/>
		</filter>
	</defs>
	
		<mask maskUnits="userSpaceOnUse" x="437.1" y="145.7" width="172.2" height="251.2" id="SVGID_00000078762955064720578100000001043332131066168498_">
		<g style="filter:url(#Adobe_OpacityMaskFilter_00000127029222792144097570000006522877288263364540_);">
			
				<linearGradient id="SVGID_00000058575260893041211230000018399414839213588132_" gradientUnits="userSpaceOnUse" x1="-82.6262" y1="514.1542" x2="-221.6562" y2="574.3742" gradientTransform="matrix(1 0 0 1 699.3558 -283.3492)">
				<stop  offset="0" style="stop-color:#000000"/>
				<stop  offset="1" style="stop-color:#FFFFFF"/>
			</linearGradient>
			
				<rect x="437.1" y="145.7" style="fill:url(#SVGID_00000058575260893041211230000018399414839213588132_);" width="172.2" height="251.2"/>
		</g>
	</mask>
	
		<path style="mask:url(#SVGID_00000078762955064720578100000001043332131066168498_);fill-rule:evenodd;clip-rule:evenodd;fill:#5489AE;" d="
		M535.6,232.8c-2.5-1-6.7-2.8-10.1-3.7l-9-4.6l-0.6-2.5c0.2,0-1.1,0,0.6,0s6.7-2.5,8.9-6.3c2.5-2,4.5-4.8,5.7-8.1
		c2.3-5,2.3-11.4-0.7-16.2c-0.7-1.3-1.5-2.5-2.5-3.6c3.6-12.7-1.5-22.7-12.1-24.4c-4.4-12.5-13.6-17.9-27.7-16.4
		c-0.4-0.1-0.8-0.3-1.3-0.4c-3.6-1-5.3-1.1-9.1-0.3c-1.2,0.3-2.3,0.6-3.4,1c-3.4,1.2-4.6,1.9-4.6,2.4l0,0c-0.8,0.8-1.5,1.8-1,2.1
		c0.1,0.1,0.3,0.1,0.6,0.2c-2.7,1.1-5.5,2.3-8.5,3.7c0.6-1.5,1.3-4.1,0.9-5.8c-0.7-2.9-4.1-2.2-6.2-1.3c-1.2,0.5-2.2,1.1-3.3,1.8
		c-5.1,3.5-10.9,10.6-8.9,17.2c1.2,3.9,4.2,6.6,8.1,7.8c0.1,0,0.3,0.1,0.4,0.1l0,0c-0.6,1-1.1,2.1-1.6,3.2c-1,2.2-1.7,4.5-2.2,6.9h0
		c-0.1,0.8-0.2,1.5-0.3,2.3c0,0.2,0,0.5-0.1,0.7c-0.1,1.3-0.1,2.7,0,4.1c-0.3,0.1-0.6,0.3-0.8,0.4c-0.6,0.3-0.8,1-0.5,1.6
		c0.3,0.6,1,0.8,1.6,0.6l0.1,0.7h0l0.1,0.7l0,0.4l0,0.4l0,0c-1.4,0.6-2.7,1.5-3.8,2.7c-3.1,3.4-3.9,8.4-2.3,12.7
		c1.1,3,3.3,5.4,6.3,6.6l0,0.1h0l0.1,0.4l0.1,0.4c0.1,0.4,0.1,0.7,0.2,1.1l0.1,0.4l0.1,0.4h0c0.5,2.1,1.2,4.1,1.9,6.1h0
		c0.7,1.9,1.4,3.7,2.1,5.5h0c0.5,1.2,1,2.5,1.5,3.7h0c0.8,2,1.7,3.9,2.4,5.9c1,2.6,2.3,5.1,4.3,7.1h0c-30,10.2-25.9,29.2-20.3,56.2
		l15.5,75c0.9,6.5,3.9,12.2,7.5,15.2c13.8-0.3,55.9-2.5,81.3-5.1c2.6-0.3,5.8-0.6,9.4-0.9c0.6-1.9,1.3-3.7,2.2-5.6
		c0.5-1,1-2.1,1.6-3.1c0.1-0.1,0.1-0.3,0.2-0.4c2.1-0.6,4.4-1.4,6.9-2.4c23.5-31.8,38-65.6,43.5-101.4c-0.2-1.7-0.4-2.5-0.4-2.5
		c-5.9-18.1-15.1-26.3-23.9-26.7l0,0L535.6,232.8z"/>
	<path class="st10" d="M565.8,379.4c-7.7,10.4-16.2,19.9-25.2,28.6l0,0l-0.1,0.1l-0.6,0.5l-0.3,0.2l-0.6,0.6l-0.1,0.1
		c-0.2,0.2-0.4,0.3-0.5,0.5h0c-6.3,5.9-12.9,11.4-19.7,16.5l0,0c-6.6,4.9-13.4,9.5-20.5,13.7h-290c-11.8-6.1-23.2-13-33.9-20.7
		c-17-12.1-31.9-25.6-44.4-40.3H565.8z"/>
	<path class="st11" d="M504.8,436.3c-6.1,3.9-12.5,7.6-18.9,10.9c-84.8,44-199,37-285.2-10.9H504.8z"/>
	<path class="st12" d="M87.9,274.6c0-4.7,0.3-9.5,0.8-14.3c5.5-50.5,39.2-91.9,88.8-117.7c35.3-18.4,71.6-21.5,107.3-44.7
		c31.1-20.2,56.5-45.1,92.8-57.4v234H87.9z"/>
	<path class="st13" d="M88.7,260.6l0-0.2c5.5-50.5,39.2-91.9,88.8-117.7c35.3-18.4,71.6-21.5,107.3-44.7
		c26.8-17.4,49.4-38.4,78.4-51.7v214.3H88.7z"/>
	<defs>
		
			<filter id="Adobe_OpacityMaskFilter_00000158749778425583148540000014537091460053597056_" filterUnits="userSpaceOnUse" x="88.7" y="46.3" width="274.5" height="214.3">
			<feColorMatrix  type="matrix" values="1 0 0 0 0  0 1 0 0 0  0 0 1 0 0  0 0 0 1 0"/>
		</filter>
	</defs>
	
		<mask maskUnits="userSpaceOnUse" x="88.7" y="46.3" width="274.5" height="214.3" id="SVGID_00000106869421341273432650000017141622984547395213_">
		<g style="filter:url(#Adobe_OpacityMaskFilter_00000158749778425583148540000014537091460053597056_);">
			
				<linearGradient id="SVGID_00000144335314488626923640000000906253469905899653_" gradientUnits="userSpaceOnUse" x1="-210.1169" y1="509.5098" x2="-33.0169" y2="641.7397" gradientTransform="matrix(1 0 0 1 350.8852 -419.6225)">
				<stop  offset="0" style="stop-color:#000000"/>
				<stop  offset="1" style="stop-color:#FFFFFF"/>
			</linearGradient>
			
				<rect x="88.7" y="46.3" style="fill:url(#SVGID_00000144335314488626923640000000906253469905899653_);" width="274.5" height="214.3"/>
		</g>
	</mask>
	
		<path style="mask:url(#SVGID_00000106869421341273432650000017141622984547395213_);fill-rule:evenodd;clip-rule:evenodd;fill:#98CCF0;" d="
		M88.7,260.6l0-0.2c5.5-50.5,39.2-91.9,88.8-117.7c35.3-18.4,71.6-21.5,107.3-44.7c26.8-17.4,49.4-38.4,78.4-51.7v214.3H88.7z"/>
	<path class="st12" d="M243.8,117.7c4.5-1.6,8.9-3.3,13.4-5.2v148.1h-13.4V117.7z"/>
	<polygon class="st17" points="363.2,106.7 363.2,155.1 246.6,260.6 200.8,260.6 	"/>
	<path class="st18" d="M226.7,288.5c-3.7,6.6-4.7,14-3.1,19.1c11.7,7.2,48.4,28.1,71.2,39.6c13.4,6.8,45.3,24.2,60.1,22.5
		c14-1.6,21.7-14.5,30.9-29.8c9-15.1,16-31.5,20-41.2c15.6-37.2,4.5-55.3-12.7-53.4c-23.9,2.7-48,46.7-60.9,66.9
		c-25.4-9.3-48.1-17.5-65-23.5l1.8,1.2l1.8,1.1c0.4,0.3,0.8,0.5,1.2,0.8c6.4,3.8,8.9,12,5.5,18.8c-3.5,7.1-12.2,10-19.3,6.4
		l-0.8-0.4c-1.3-0.7-2.5-1.5-3.5-2.5l0.6,0.6c-1.3-0.8-2.5-1.6-3.7-2.4c-0.2-0.1-0.4-0.3-0.7-0.5l-3.4-2.5c-0.5-0.4-1.1-0.9-1.5-1.3
		l-6.8-6.8c-0.1-0.1-0.3-0.3-0.4-0.4l-9.5-10.3L226.7,288.5z"/>
	<defs>
		
			<filter id="Adobe_OpacityMaskFilter_00000031172451937948153580000008725392401430951552_" filterUnits="userSpaceOnUse" x="359.2" y="250.3" width="35.4" height="99.5">
			<feColorMatrix  type="matrix" values="1 0 0 0 0  0 1 0 0 0  0 0 1 0 0  0 0 0 1 0"/>
		</filter>
	</defs>
	
		<mask maskUnits="userSpaceOnUse" x="359.2" y="250.3" width="35.4" height="99.5" id="SVGID_00000140735582907221871720000011263933954468437647_">
		<g style="filter:url(#Adobe_OpacityMaskFilter_00000031172451937948153580000008725392401430951552_);">
			
				<linearGradient id="SVGID_00000165915599009058306290000005284480430153842054_" gradientUnits="userSpaceOnUse" x1="-273.3743" y1="626.9836" x2="-224.8843" y2="632.9136" gradientTransform="matrix(1 0 0 1 621.3858 -330.5112)">
				<stop  offset="0" style="stop-color:#000000"/>
				<stop  offset="1" style="stop-color:#FFFFFF"/>
			</linearGradient>
			
				<rect x="359.2" y="250.3" style="fill:url(#SVGID_00000165915599009058306290000005284480430153842054_);" width="35.4" height="99.5"/>
		</g>
	</mask>
	
		<path style="mask:url(#SVGID_00000140735582907221871720000011263933954468437647_);fill-rule:evenodd;clip-rule:evenodd;fill:#005260;" d="
		M359.2,331.5c11.2,12.1,16.9,18.2,16.9,18.2c12.4-21.3,18.5-31.9,18.5-31.9c-3.1-46-3.2-67.6-3.2-67.6
		C351.9,275.4,394.6,313.7,359.2,331.5"/>
	<defs>
		
			<filter id="Adobe_OpacityMaskFilter_00000152961696201748575400000007343111492113516990_" filterUnits="userSpaceOnUse" x="442.4" y="90.7" width="103" height="44.6">
			<feColorMatrix  type="matrix" values="1 0 0 0 0  0 1 0 0 0  0 0 1 0 0  0 0 0 1 0"/>
		</filter>
	</defs>
	
		<mask maskUnits="userSpaceOnUse" x="442.4" y="90.7" width="103" height="44.6" id="SVGID_00000018929201836249545550000004915059107648274346_">
		<g style="filter:url(#Adobe_OpacityMaskFilter_00000152961696201748575400000007343111492113516990_);">
			
				<linearGradient id="SVGID_00000038371281876989679380000017261837592709234853_" gradientUnits="userSpaceOnUse" x1="-174.9829" y1="597.4827" x2="-242.6829" y2="712.0627" gradientTransform="matrix(1 0 0 1 704.5801 -544.9311)">
				<stop  offset="0" style="stop-color:#000000"/>
				<stop  offset="1" style="stop-color:#FFFFFF"/>
			</linearGradient>
			
				<rect x="442.4" y="90.7" style="fill:url(#SVGID_00000038371281876989679380000017261837592709234853_);" width="103" height="44.6"/>
		</g>
	</mask>
	
		<path style="mask:url(#SVGID_00000018929201836249545550000004915059107648274346_);fill-rule:evenodd;clip-rule:evenodd;fill:#6B9FC3;" d="
		M444.6,90.7h98.5c1.2,0,2.2,1,2.2,2.2v40.1c0,1.2-1,2.2-2.2,2.2h-98.5c-1.2,0-2.2-1-2.2-2.2V93C442.4,91.7,443.4,90.7,444.6,90.7"
		/>
	<path class="st25" d="M528.2,242.2c10.2,93.9-32.6,138.2-128.4,132.9c0,0-5.2-25-15.5-75c-5.6-27-9.7-46,20.3-56.2
		c0,0,24.8-5.9,74.3-17.7C511.7,236.9,528.2,242.2,528.2,242.2"/>
	<defs>
		
			<filter id="Adobe_OpacityMaskFilter_00000029739515162207011790000001297911545054110622_" filterUnits="userSpaceOnUse" x="380.3" y="252.7" width="41.6" height="109.8">
			<feColorMatrix  type="matrix" values="1 0 0 0 0  0 1 0 0 0  0 0 1 0 0  0 0 0 1 0"/>
		</filter>
	</defs>
	
		<mask maskUnits="userSpaceOnUse" x="380.3" y="252.7" width="41.6" height="109.8" id="SVGID_00000095320619003246375640000011595510853189497984_">
		<g style="filter:url(#Adobe_OpacityMaskFilter_00000029739515162207011790000001297911545054110622_);">
			
				<linearGradient id="SVGID_00000137126172593211543940000010435852051433605033_" gradientUnits="userSpaceOnUse" x1="-204.2159" y1="608.0806" x2="-258.6759" y2="633.3706" gradientTransform="matrix(1 0 0 1 642.5073 -317.7904)">
				<stop  offset="0" style="stop-color:#000000"/>
				<stop  offset="1" style="stop-color:#FFFFFF"/>
			</linearGradient>
			
				<rect x="380.3" y="252.7" style="fill:url(#SVGID_00000137126172593211543940000010435852051433605033_);" width="41.6" height="109.8"/>
		</g>
	</mask>
	
		<path style="mask:url(#SVGID_00000095320619003246375640000011595510853189497984_);fill-rule:evenodd;clip-rule:evenodd;fill:#2A95A6;" d="
		M396.8,360.8c1,2.3,1.5,2.2,1.4-0.2c3-0.9,5.4-3.1,6.8-5.9c4.5-9.3-7.6-18.7-0.1-38.6c6.5-17.2,24.5-25.7,13.8-47.4
		c-5.6-11.4-18.1-17.8-30.7-15.6c-2.6,2.4-4.7,5.6-6.1,9.6c-1.8,5.1-2,12.4-0.5,21.9c1,5.8,1.9,10.6,2.8,14.5
		c3.8,18.3,7.2,34.7,10.2,49.3C395.9,356.7,396.8,360.8,396.8,360.8"/>
	<defs>
		
			<filter id="Adobe_OpacityMaskFilter_00000168082540594001532560000010803567169526253744_" filterUnits="userSpaceOnUse" x="412.4" y="229.5" width="117.3" height="135">
			<feColorMatrix  type="matrix" values="1 0 0 0 0  0 1 0 0 0  0 0 1 0 0  0 0 0 1 0"/>
		</filter>
	</defs>
	
		<mask maskUnits="userSpaceOnUse" x="412.4" y="229.5" width="117.3" height="135" id="SVGID_00000093174210697831751720000007137287852089695388_">
		<g style="filter:url(#Adobe_OpacityMaskFilter_00000168082540594001532560000010803567169526253744_);">
			
				<linearGradient id="SVGID_00000070101495905371897060000016536686204299871138_" gradientUnits="userSpaceOnUse" x1="-293.3523" y1="599.4229" x2="-146.2023" y2="621.2828" gradientTransform="matrix(1 0 0 1 674.6295 -315.7963)">
				<stop  offset="0" style="stop-color:#000000"/>
				<stop  offset="1" style="stop-color:#FFFFFF"/>
			</linearGradient>
			
				<rect x="412.4" y="229.5" style="fill:url(#SVGID_00000070101495905371897060000016536686204299871138_);" width="117.3" height="135"/>
		</g>
	</mask>
	
		<path style="mask:url(#SVGID_00000093174210697831751720000007137287852089695388_);fill-rule:evenodd;clip-rule:evenodd;fill:#003D4E;" d="
		M523.5,247.4c22,82.8-14.6,121.6-109.9,116.6c-10.3-26.9,45.4-36.5,47.4-66.8c0.8-12.4-5.6-24.1-16.4-30.1
		c19.9-25.1,29.8-37.6,29.8-37.6C507.2,241.4,523.5,247.4,523.5,247.4"/>
	<defs>
		
			<filter id="Adobe_OpacityMaskFilter_00000106141367639002198210000011820355197064514955_" filterUnits="userSpaceOnUse" x="443.5" y="199.7" width="5.1" height="17.5">
			<feColorMatrix  type="matrix" values="1 0 0 0 0  0 1 0 0 0  0 0 1 0 0  0 0 0 1 0"/>
		</filter>
	</defs>
	
		<mask maskUnits="userSpaceOnUse" x="443.5" y="199.7" width="5.1" height="17.5" id="SVGID_00000109013630387337761630000007130699516234086556_">
		<g style="filter:url(#Adobe_OpacityMaskFilter_00000106141367639002198210000011820355197064514955_);">
			
				<linearGradient id="SVGID_00000144332249071406134170000017428480302070980496_" gradientUnits="userSpaceOnUse" x1="-256.548" y1="670.9564" x2="-260.268" y2="671.5964" gradientTransform="matrix(1 0 0 1 705.712 -463.064)">
				<stop  offset="0" style="stop-color:#000000"/>
				<stop  offset="1" style="stop-color:#FFFFFF"/>
			</linearGradient>
			
				<rect x="443.5" y="199.7" style="fill:url(#SVGID_00000144332249071406134170000017428480302070980496_);" width="5.1" height="17.5"/>
		</g>
	</mask>
	
		<path style="mask:url(#SVGID_00000109013630387337761630000007130699516234086556_);fill-rule:evenodd;clip-rule:evenodd;fill:#6B9FC3;" d="
		M447.2,203.7c0.9,0,1,0.2,1.4,0.5l0-0.2h0l0-1h0l0-0.3l0-0.7h0l0-0.4l0-0.4h0l0-0.4l0-0.4h0l0-0.4h0l0-0.4l0-0.1
		c-3.2,1.7-5,5.2-5,8.8c0,3.5,1.7,7,4.9,8.7c0-0.4,0-0.8,0-1.2h0l0-0.7h0c0-1.6,0-3.2,0.1-4.8h0l0-0.3h0l0.1-1.6h0l0-0.3h0l0-0.1
		c-1.6,1-3.7-0.1-3.7-2C444.8,204.8,446.2,203.7,447.2,203.7"/>
	<path class="st12" d="M444.7,214.7l-35.3,31.6c-2.9,41,40.3,45.9,69.4-20.1c-2.5-1-6.7-2.8-10.1-3.7
		C460.5,220.1,452.3,218.4,444.7,214.7"/>
	<path class="st35" d="M456.9,205.8c-28.2,25.2-42.2,37.8-42.2,37.8c-2.2,31.6,32.6,34.3,54-21.2c-6-3.1-9-4.6-9-4.6
		C457.8,209.8,456.9,205.8,456.9,205.8"/>
	<defs>
		
			<filter id="Adobe_OpacityMaskFilter_00000088827512772858589270000013672970198146227597_" filterUnits="userSpaceOnUse" x="414.7" y="208.4" width="42.7" height="55.2">
			<feColorMatrix  type="matrix" values="1 0 0 0 0  0 1 0 0 0  0 0 1 0 0  0 0 0 1 0"/>
		</filter>
	</defs>
	
		<mask maskUnits="userSpaceOnUse" x="414.7" y="208.4" width="42.7" height="55.2" id="SVGID_00000130616679224606617810000010954008694773391025_">
		<g style="filter:url(#Adobe_OpacityMaskFilter_00000088827512772858589270000013672970198146227597_);">
			
				<linearGradient id="SVGID_00000168082148213311564060000005363324844249553558_" gradientUnits="userSpaceOnUse" x1="-263.9799" y1="665.2164" x2="-221.3799" y2="642.0565" gradientTransform="matrix(1 0 0 1 676.9307 -416.6229)">
				<stop  offset="0" style="stop-color:#000000"/>
				<stop  offset="1" style="stop-color:#FFFFFF"/>
			</linearGradient>
			
				<rect x="414.7" y="208.4" style="fill:url(#SVGID_00000168082148213311564060000005363324844249553558_);" width="42.7" height="55.2"/>
		</g>
	</mask>
	
		<path style="mask:url(#SVGID_00000130616679224606617810000010954008694773391025_);fill-rule:evenodd;clip-rule:evenodd;fill:#D13916;" d="
		M414.7,247c24.4-35.3,38.6-46.3,42.7-33.2c-13.4,55.2-35.6,58.5-42.2,38.9C414.8,250.8,414.6,248.9,414.7,247"/>
	<defs>
		
			<filter id="Adobe_OpacityMaskFilter_00000083061207722967725310000009610183997518327484_" filterUnits="userSpaceOnUse" x="414.6" y="218.5" width="39.8" height="37.7">
			<feColorMatrix  type="matrix" values="1 0 0 0 0  0 1 0 0 0  0 0 1 0 0  0 0 0 1 0"/>
		</filter>
	</defs>
	
		<mask maskUnits="userSpaceOnUse" x="414.6" y="218.5" width="39.8" height="37.7" id="SVGID_00000170267923089492369380000005196091134848635013_">
		<g style="filter:url(#Adobe_OpacityMaskFilter_00000083061207722967725310000009610183997518327484_);">
			
				<linearGradient id="SVGID_00000042694770479954238900000014920924007206156176_" gradientUnits="userSpaceOnUse" x1="-261.4189" y1="665.2961" x2="-223.0689" y2="657.4561" gradientTransform="matrix(1 0 0 1 676.8283 -424.0672)">
				<stop  offset="0" style="stop-color:#000000"/>
				<stop  offset="1" style="stop-color:#FFFFFF"/>
			</linearGradient>
			
				<rect x="414.6" y="218.5" style="fill:url(#SVGID_00000042694770479954238900000014920924007206156176_);" width="39.8" height="37.7"/>
		</g>
	</mask>
	
		<path style="mask:url(#SVGID_00000170267923089492369380000005196091134848635013_);fill-rule:evenodd;clip-rule:evenodd;fill:#C51605;" d="
		M414.6,247c13.4-24,26.6-32.8,39.8-26.6c-15.6,32.2-34.6,41.7-39.2,32.3C414.8,250.8,414.6,248.9,414.6,247"/>
	<path class="st42" d="M456.1,211.8c14.4-46.8-4.9-62.8-57.7-47.8c-8.1,11.2-7.8,18.2-7,26.2c0.9,8.4-0.3,14.3,0.2,21.5
		c0.4,7,5.9,18.1,8.6,25.1c3.6,9.6,9.9,11.6,19,9.4C434.8,242.5,456,230,456.1,211.8"/>
	<defs>
		
			<filter id="Adobe_OpacityMaskFilter_00000083082999464475521440000011446512078227990451_" filterUnits="userSpaceOnUse" x="390.9" y="160.5" width="21.8" height="86.5">
			<feColorMatrix  type="matrix" values="1 0 0 0 0  0 1 0 0 0  0 0 1 0 0  0 0 0 1 0"/>
		</filter>
	</defs>
	
		<mask maskUnits="userSpaceOnUse" x="390.9" y="160.5" width="21.8" height="86.5" id="SVGID_00000091010155459657109440000007626629615604538294_">
		<g style="filter:url(#Adobe_OpacityMaskFilter_00000083082999464475521440000011446512078227990451_);">
			
				<linearGradient id="SVGID_00000160870035605339513400000017923306045030576307_" gradientUnits="userSpaceOnUse" x1="-222.3443" y1="646.0547" x2="-270.9643" y2="630.8647" gradientTransform="matrix(1 0 0 1 653.1591 -433.2345)">
				<stop  offset="0" style="stop-color:#000000"/>
				<stop  offset="1" style="stop-color:#FFFFFF"/>
			</linearGradient>
			
				<rect x="390.9" y="160.5" style="fill:url(#SVGID_00000160870035605339513400000017923306045030576307_);" width="21.8" height="86.5"/>
		</g>
	</mask>
	
		<path style="mask:url(#SVGID_00000091010155459657109440000007626629615604538294_);fill-rule:evenodd;clip-rule:evenodd;fill:#FFEBAD;" d="
		M412.7,160.5c-4.5,0.9-9.3,2-14.4,3.5c-8.1,11.2-7.8,18.2-7,26.2c0.9,8.4-0.3,14.3,0.2,21.5c0.4,7,5.9,18.1,8.6,25.1
		c2.5,6.9,6.5,9.9,11.8,10.2c-5.4-13.1-8.4-27.4-8.4-42.4C403.7,188.9,406.9,174,412.7,160.5"/>
	<defs>
		
			<filter id="Adobe_OpacityMaskFilter_00000155127779713076532210000007017992122863050150_" filterUnits="userSpaceOnUse" x="399.7" y="159.8" width="59.5" height="79.8">
			<feColorMatrix  type="matrix" values="1 0 0 0 0  0 1 0 0 0  0 0 1 0 0  0 0 0 1 0"/>
		</filter>
	</defs>
	
		<mask maskUnits="userSpaceOnUse" x="399.7" y="159.8" width="59.5" height="79.8" id="SVGID_00000016057131747913902150000008155218927845884051_">
		<g style="filter:url(#Adobe_OpacityMaskFilter_00000155127779713076532210000007017992122863050150_);">
			
				<linearGradient id="SVGID_00000091721394762020829290000002968554613875614103_" gradientUnits="userSpaceOnUse" x1="-247.7131" y1="651.3408" x2="-215.0931" y2="627.7508" gradientTransform="matrix(1 0 0 1 661.9303 -440.5989)">
				<stop  offset="0" style="stop-color:#000000"/>
				<stop  offset="1" style="stop-color:#FFFFFF"/>
			</linearGradient>
			
				<rect x="399.7" y="159.8" style="fill:url(#SVGID_00000091721394762020829290000002968554613875614103_);" width="59.5" height="79.8"/>
		</g>
	</mask>
	
		<path style="mask:url(#SVGID_00000016057131747913902150000008155218927845884051_);fill-rule:evenodd;clip-rule:evenodd;fill:#EC6B1C;" d="
		M399.7,169.6c12.6-12.1,32.2-13.1,46-2.3c13.8,10.8,17.5,30,8.8,45.2c-1.7,11.6-9.4,20.6-23.2,27.1c19.2-19.9-7.5-25-7.7-36
		c-0.1-7.9,5.1-19.3-3.5-28.6C414.9,169.4,407,167.3,399.7,169.6"/>
	<defs>
		
			<filter id="Adobe_OpacityMaskFilter_00000087408487297376179710000008769296737704440978_" filterUnits="userSpaceOnUse" x="416.3" y="193" width="36.7" height="23.3">
			<feColorMatrix  type="matrix" values="1 0 0 0 0  0 1 0 0 0  0 0 1 0 0  0 0 0 1 0"/>
		</filter>
	</defs>
	
		<mask maskUnits="userSpaceOnUse" x="416.3" y="193" width="36.7" height="23.3" id="SVGID_00000144331275497262844650000013782583344980467626_">
		<g style="filter:url(#Adobe_OpacityMaskFilter_00000087408487297376179710000008769296737704440978_);">
			
				<linearGradient id="SVGID_00000059286652495578726660000012806516392682885784_" gradientUnits="userSpaceOnUse" x1="-263.132" y1="677.9856" x2="-230.632" y2="662.1056" gradientTransform="matrix(1 0 0 1 678.4903 -463.9073)">
				<stop  offset="0" style="stop-color:#000000"/>
				<stop  offset="1" style="stop-color:#FFFFFF"/>
			</linearGradient>
			
				<rect x="416.3" y="193" style="fill:url(#SVGID_00000059286652495578726660000012806516392682885784_);" width="36.7" height="23.3"/>
		</g>
	</mask>
	
		<path style="mask:url(#SVGID_00000144331275497262844650000013782583344980467626_);fill-rule:evenodd;clip-rule:evenodd;fill:#D13916;" d="
		M449.9,193c2.1,5.1,3.1,7.6,3.1,7.6s-4.1,0.6-12.4,1.8c-0.3,5.6-3.8,10.6-8.9,12.7c-5.2,2.2-11.2,1.2-15.4-2.6
		c4.6,2.5,10.3,1.8,14.2-1.8c3.9-3.6,5-9.2,2.8-14C445.2,194.1,450.8,192.8,449.9,193"/>
	<path class="st52" d="M465.8,192.6c-5.3,3.3-8.7,7.3-10.1,12c0,1.4-0.7,2.7-2,3.4c-1.2,0.7-2.7,0.6-3.9-0.2c-1.2-0.8-1.6-2-1.6-3.6
		c0.5-17.7-14.8-14.7-16.5-26c-0.4-2.4-0.1-5.2,0.8-8.4c-5.6,3-9.9,1.6-14.9,0.3c-7.8-2-11.9-0.2-19.2-0.7
		c-6.4-0.4-10.6-4.1-11.9-8.7c-3.6-13.3,24.1-29.6,17.5-11.6c29.8-14.2,48.1-11.7,54.9,7.6C472.6,159,477.2,174.8,465.8,192.6"/>
	<defs>
		
			<filter id="Adobe_OpacityMaskFilter_00000085930300148903278460000012578998516829934728_" filterUnits="userSpaceOnUse" x="423.7" y="145.4" width="46.7" height="61.9">
			<feColorMatrix  type="matrix" values="1 0 0 0 0  0 1 0 0 0  0 0 1 0 0  0 0 0 1 0"/>
		</filter>
	</defs>
	
		<mask maskUnits="userSpaceOnUse" x="423.7" y="145.4" width="46.7" height="61.9" id="SVGID_00000087390929735399752670000015860944893144353194_">
		<g style="filter:url(#Adobe_OpacityMaskFilter_00000085930300148903278460000012578998516829934728_);">
			
				<linearGradient id="SVGID_00000075857660837506453920000009312521107125897122_" gradientUnits="userSpaceOnUse" x1="-281.312" y1="622.1346" x2="-229.2421" y2="655.4547" gradientTransform="matrix(1 0 0 1 685.8924 -472.9107)">
				<stop  offset="0" style="stop-color:#000000"/>
				<stop  offset="1" style="stop-color:#FFFFFF"/>
			</linearGradient>
			
				<rect x="423.7" y="145.4" style="fill:url(#SVGID_00000075857660837506453920000009312521107125897122_);" width="46.7" height="61.9"/>
		</g>
	</mask>
	
		<path style="mask:url(#SVGID_00000087390929735399752670000015860944893144353194_);fill-rule:evenodd;clip-rule:evenodd;fill:#5B2800;" d="
		M464.5,193c-4.8,3-7.9,6.6-9.2,10.9c0,1.3-0.7,2.4-1.8,3.1c-1.1,0.6-2.5,0.5-3.5-0.2s-1.5-1.8-1.5-3.2c0.2-8.4-3.5-11.6-7.3-14.3
		c0.3-2,0.4-4.1,0.4-6.2c0-14.5-7.1-27.4-18.1-35.2c18.2-5.4,29.8-1.2,34.7,12.8C470.7,162.5,474.9,176.9,464.5,193"/>
	<path class="st56" d="M415.5,186.5c-0.7,0.1-1.3-0.4-1.3-1.1c-0.1-0.7,0.4-1.3,1.1-1.3c2.6-0.3,5.1-0.1,7.6,0.4
		c2.5,0.6,4.9,1.5,7.1,2.9c0.6,0.4,0.8,1.1,0.4,1.7c-0.4,0.6-1.1,0.8-1.7,0.4c-2-1.2-4.1-2.1-6.3-2.6
		C420.1,186.4,417.8,186.3,415.5,186.5"/>
	<path class="st57" d="M398.3,184.4c0.7,0,1.2,0.5,1.3,1.2c0,0.7-0.5,1.2-1.2,1.3c-1.2,0.1-2.5,0.3-3.7,0.6
		c-1.2,0.3-2.4,0.8-3.5,1.3c-0.6,0.3-1.3,0.1-1.6-0.5c-0.3-0.6-0.1-1.3,0.5-1.6c1.3-0.6,2.6-1.2,4-1.5
		C395.5,184.7,396.9,184.5,398.3,184.4"/>
	<path class="st58" d="M421.6,198.8c1,0,1.8,1.2,1.8,2.7c0,1.5-0.8,2.7-1.8,2.7s-1.8-1.2-1.8-2.7C419.8,200,420.6,198.8,421.6,198.8
		"/>
	<path class="st58" d="M395.3,198.8c0.9,0,1.7,1.1,1.7,2.4s-0.8,2.4-1.7,2.4s-1.7-1.1-1.7-2.4S394.4,198.8,395.3,198.8"/>
	<path class="st59" d="M401.3,195c-0.8-0.9-1.7-1.6-2.8-2.1c-1-0.5-2.1-0.7-3.3-0.7c-1.2,0-2.3,0.3-3.3,0.7c-1,0.5-2,1.2-2.8,2.1
		c-0.8,0.9-1.4,2-1.9,3.1c-0.4,1.1-0.7,2.4-0.7,3.7c0,1.3,0.2,2.6,0.7,3.7c0.4,1.2,1.1,2.3,1.9,3.1c0.8,0.9,1.7,1.6,2.8,2.1
		c1,0.5,2.1,0.7,3.3,0.7c1.2,0,2.3-0.3,3.3-0.7c1-0.5,2-1.2,2.8-2.1c0.8-0.9,1.4-2,1.9-3.1c0.4-1.1,0.7-2.4,0.7-3.7
		c0-1.3-0.2-2.6-0.7-3.7C402.7,197,402.1,195.9,401.3,195 M430.6,195.1c-1-1-2.1-1.7-3.4-2.2c-1.2-0.5-2.6-0.8-4-0.8
		c-2.9,0-5.4,1.2-7.3,3c-1.9,1.9-3,4.5-3,7.3c0,2.9,1.2,5.4,3,7.3c1.9,1.9,4.5,3,7.3,3c2.9,0,5.4-1.2,7.3-3c1.9-1.9,3-4.5,3-7.3
		c0-1.4-0.3-2.7-0.8-4C432.3,197.2,431.5,196,430.6,195.1z M395.2,190.2c1.7,0,3.4,0.5,4.8,1.3c1.4,0.8,2.7,2,3.7,3.4
		c1.5-0.9,3.2-1.3,4.8-1.3c1.7,0.1,3.3,0.6,4.7,1.6c1.1-1.6,2.6-2.8,4.3-3.7c1.7-0.9,3.7-1.4,5.7-1.4c2,0,4,0.5,5.7,1.4
		c1.7,0.9,3.2,2.2,4.4,3.8l26.8-3.6l0.2,0l0,0.2l0.2,1.6l0,0.2l-0.2,0l-25.9,3.5c0.4,0.8,0.7,1.6,0.9,2.4c0.2,0.9,0.3,1.9,0.3,2.8
		c0,3.4-1.4,6.5-3.6,8.8c-2.2,2.2-5.3,3.6-8.8,3.6c-3.4,0-6.5-1.4-8.8-3.6c-2.2-2.2-3.6-5.3-3.6-8.8c0-1,0.1-2,0.3-2.9
		c0.2-0.9,0.5-1.8,1-2.6c-1.1-0.8-2.4-1.2-3.7-1.3c-1.3,0-2.6,0.3-3.8,1c0.4,0.8,0.7,1.7,0.9,2.6c0.2,1,0.3,2,0.3,2.9l0,0.1l0,0.1
		c0,0,0,0-0.1,0.1c0,0,0,0.1-0.1,0.1v0c0,0-0.1,0.1-0.1,0.1v0c-0.1,0.2-0.2,0.3-0.3,0.5l-0.2,0.5l0,0l-0.2,0.5l0,0l0,0l-0.1,0.2v0
		c-0.1,0.1-0.2,0.3-0.2,0.4h0l-0.1,0.1c-0.2,0.4-0.5,0.9-0.7,1.3c0,0.1-0.1,0.2-0.1,0.3v0l0,0l0,0l0,0c-0.1,0.1-0.1,0.2-0.2,0.3
		c0,0.1-0.1,0.2-0.1,0.3l0,0l0,0l0,0l0,0c-0.1,0.1-0.1,0.2-0.1,0.3c0,0.1-0.1,0.2-0.1,0.3l0,0l0,0c0,0.1-0.1,0.2-0.1,0.3
		c0,0.1-0.1,0.2-0.1,0.3l0,0l0,0c0,0.1-0.1,0.1-0.1,0.2c0,0.1,0,0.1-0.1,0.2l0,0l0,0c-0.1,0.2-0.2,0.4-0.2,0.6c0,0.2,0,0.5,0,0.7
		l0,0.1l-0.1,0.1c-1,1-2.1,1.8-3.4,2.3c-1.2,0.5-2.5,0.8-3.9,0.8c-1.4,0-2.8-0.3-4.1-0.9c-1.3-0.6-2.5-1.5-3.5-2.6
		c-1-1.1-1.7-2.4-2.3-3.8c-0.5-1.4-0.8-2.9-0.8-4.4c0-1.6,0.3-3.1,0.8-4.4c0.5-1.4,1.3-2.7,2.3-3.8c1-1.1,2.2-2,3.5-2.6
		C392.4,190.5,393.8,190.2,395.2,190.2z"/>
	<path class="st60" d="M464,190.3c5,0,8.1,5.6,6.9,12.5c-1.2,6.9-6.2,12.5-11.2,12.5c-5,0-8.1-5.6-6.9-12.5
		C454,195.9,459,190.3,464,190.3"/>
	<path class="st12" d="M390.3,197.2c1.3,0,2.4,1.1,2.4,2.4c0,1.3-1.1,2.4-2.4,2.4c-1.3,0-2.4-1.1-2.4-2.4
		C387.9,198.2,389,197.2,390.3,197.2"/>
	<path class="st12" d="M416.7,197.2c1.3,0,2.4,1.1,2.4,2.4c0,1.3-1.1,2.4-2.4,2.4c-1.3,0-2.4-1.1-2.4-2.4
		C414.3,198.2,415.4,197.2,416.7,197.2"/>
	<path class="st61" d="M412.4,234.2c4.8-0.7,6.2-10.4,5.8-10.8c-0.4-0.4-1-0.4-1.4,0.1c-1.5,1.6-3.5,2.7-6,3.3
		c-2.6,0.6-5.6,0.7-9.2,0.2c-0.5-0.1-1.1,0.3-1.1,0.9C400.3,228.3,404.8,235.3,412.4,234.2z"/>
	<path class="st62" d="M454.1,187.7c5.1-4.4,7.7-6.6,7.7-6.6c-1.9-18.7-15-34.2-32.8-39.3c-3.6-1-5.3-1.1-9.1-0.3
		c-1.2,0.3-2.3,0.6-3.4,1c-1,0.4-3,0-3.5,0.5c-0.8,0.7-1.5,1.8-1,2.1c0.6,0.4,2.9,0.5,4.9,0.7C437.5,148.2,453.1,166.5,454.1,187.7"
		/>
	<path class="st12" d="M464.9,195.9c3,0,4.8,3.4,4.1,7.5c-0.7,4.1-3.7,7.5-6.7,7.5s-4.8-3.4-4.1-7.5
		C458.9,199.2,461.9,195.9,464.9,195.9"/>
	<path class="st12" d="M462.9,197.2c1.8,0,2.9,2,2.5,4.5c-0.4,2.5-2.2,4.5-4,4.5c-1.8,0-2.9-2-2.5-4.5
		C459.3,199.2,461.1,197.2,462.9,197.2"/>
	<path class="st12" d="M465.8,183.3c4.4,0,7.7,4.4,7.4,9.8c-0.3,5.4-4.1,9.8-8.5,9.8c-4.4,0-7.7-4.4-7.4-9.8
		C457.6,187.7,461.4,183.3,465.8,183.3"/>
	<path class="st63" d="M456.1,185.9c5-4.4,7.5-6.6,7.5-6.6c-2.3-18.7-15.7-34.2-33.6-39.3c-3.6-1-5.3-1.1-9.1-0.3
		c-1.2,0.3-2.3,0.6-3.4,1c-8.4,3.1-3.6,2.9,0.5,3.3C438.7,146.3,454.7,164.6,456.1,185.9"/>
	<path class="st62" d="M462.4,177.3c7.8,0,13.7,7.8,13.2,17.4c-0.5,9.6-7.3,17.4-15.1,17.4c-7.8,0-13.7-7.8-13.2-17.4
		C447.9,185.1,454.6,177.3,462.4,177.3"/>
	<path class="st63" d="M464.8,179.7c6.6,0,11.6,6.6,11.1,14.6c-0.4,8.1-6.1,14.6-12.7,14.6c-6.6,0-11.6-6.6-11.1-14.6
		C452.6,186.2,458.3,179.7,464.8,179.7"/>
	<path class="st59" d="M466.1,185.1c-0.1,0-0.2,0-0.3,0c-2,0-3.9,1-5.3,2.7c-1.5,1.7-2.4,4-2.6,6.6c0,0.2,0,0.4,0,0.6
		c0,2.3,0.7,4.4,1.9,6c1.2,1.5,2.8,2.5,4.6,2.6c0.1,0,0.2,0,0.3,0c2,0,3.9-1,5.3-2.7c1.5-1.7,2.4-4,2.6-6.6c0-0.2,0-0.4,0-0.6
		c0-2.3-0.7-4.4-1.9-6C469.5,186.2,467.9,185.2,466.1,185.1 M465.8,183.9c0.1,0,0.2,0,0.4,0c2.2,0.1,4.1,1.2,5.5,3
		c1.4,1.7,2.2,4.1,2.2,6.7c0,0.2,0,0.4,0,0.7c-0.2,2.8-1.2,5.4-2.9,7.3c-1.6,1.9-3.9,3.1-6.2,3.1c-0.1,0-0.2,0-0.4,0
		c-2.2-0.1-4.1-1.2-5.5-3c-1.4-1.7-2.2-4.1-2.2-6.7c0-0.2,0-0.4,0-0.7c0.2-2.8,1.2-5.4,2.9-7.3C461.2,185.1,463.4,183.9,465.8,183.9
		z"/>
	<defs>
		
			<filter id="Adobe_OpacityMaskFilter_00000116228945395300525040000012762496635317380500_" filterUnits="userSpaceOnUse" x="386.3" y="141.2" width="36.9" height="30.2">
			<feColorMatrix  type="matrix" values="1 0 0 0 0  0 1 0 0 0  0 0 1 0 0  0 0 0 1 0"/>
		</filter>
	</defs>
	
		<mask maskUnits="userSpaceOnUse" x="386.3" y="141.2" width="36.9" height="30.2" id="SVGID_00000034804683359002887620000005052115863300137907_">
		<g style="filter:url(#Adobe_OpacityMaskFilter_00000116228945395300525040000012762496635317380500_);">
			
				<linearGradient id="SVGID_00000157274874340508400090000013952559630012931714_" gradientUnits="userSpaceOnUse" x1="-225.7307" y1="655.2306" x2="-258.7707" y2="673.3906" gradientTransform="matrix(1 0 0 1 648.4703 -508.8107)">
				<stop  offset="0" style="stop-color:#000000"/>
				<stop  offset="1" style="stop-color:#FFFFFF"/>
			</linearGradient>
			
				<rect x="386.3" y="141.2" style="fill:url(#SVGID_00000157274874340508400090000013952559630012931714_);" width="36.9" height="30.2"/>
		</g>
	</mask>
	
		<path style="mask:url(#SVGID_00000034804683359002887620000005052115863300137907_);fill-rule:evenodd;clip-rule:evenodd;fill:#D8912D;" d="
		M408.5,169.2c-3.1,0.1-6.1,0.5-10.1,0.3c-6.4-0.4-10.6-4.1-11.9-8.7c-3.4-12.5,21-27.6,18.4-14.4c-2.1,2.7-3.3,6.1-3.3,9.8
		C401.6,161.6,404.3,166.4,408.5,169.2 M423.2,171.4l-0.2,0"/>
	<path class="st60" d="M382.9,363.4c4.4,17.5,9.5,25.5,9.5,25.5s4.1-0.5,12.2-1.4c0,0-0.6-9.3-1.7-27.8
		C391.5,361.7,382.9,363.4,382.9,363.4"/>
	<path class="st18" d="M402.5,358.3c-6.3,12.2-1.9,26.5,4.7,32.1c13.8-0.3,55.9-2.5,81.3-5.1c14.9-1.5,51.2-4.1,62.7-13.5
		c10.9-8.9,10.5-23.9,9.9-41.7c-0.5-17.5-3.6-35.2-5.3-45.5c-7-39.8-26.1-49-39.5-38.1c-18.6,15.1-15.2,65.2-15.2,89.2
		C445.4,348,402.5,358.3,402.5,358.3"/>
	<path class="st67" d="M346.3,396.6h113.9c1.3,0,2.4-1.1,2.4-2.4v-2c0-1.3-1.1-2.4-2.4-2.4H346.3c-1.3,0-2.4,1.1-2.4,2.4v2
		C343.9,395.5,345,396.6,346.3,396.6"/>
	<path class="st12" d="M164.1,282.6h186.4c1.5,0,3.2,1.2,3.8,2.7l41.2,105.3c0.3,0.9,0.2,1.6-0.2,2.1l0,0l0,0l0,0l0,0l0,0
		c-0.1,0.1-0.9,1.1-2.5,2.8c-1.2-0.1-2-1.1-2.1-2.3H207.5c-1.5,0-3.2-1.2-3.8-2.7l-40.2-102.7c-0.2,0.1-0.5,0.2-0.8,0.3
		c-1.2,0.2-2.4-0.5-2.7-1.7c0.1-0.1,1-1.1,2.7-3.2h0C162.9,282.9,163.5,282.6,164.1,282.6"/>
	<path class="st67" d="M161.4,285.9h186.4c1.5,0,3.2,1.2,3.8,2.7l41.2,105.3c0.6,1.5-0.2,2.7-1.6,2.7H204.7c-1.5,0-3.2-1.2-3.8-2.7
		l-41.2-105.3C159.2,287.1,159.9,285.9,161.4,285.9"/>
	<path class="st68" d="M504.8,436.3c-5.3,3.4-10.6,6.5-16.1,9.5H219.2c-6.3-3-12.5-6.1-18.5-9.5H504.8z"/>
	<path class="st69" d="M201.2,201c-1.6,1.3-4,1-5.2-0.6c-1.3-1.6-1-4,0.6-5.2l54.3-42.4c1.6-1.3,4-1,5.2,0.6c1.3,1.6,1,4-0.6,5.2
		L201.2,201z"/>
	<path class="st70" d="M223.8,200.6c-1.6,1.3-4,1-5.2-0.6c-1.3-1.6-1-4,0.6-5.2l54.3-42.4c1.6-1.3,4-1,5.2,0.6c1.3,1.6,1,4-0.6,5.2
		L223.8,200.6z"/>
	<path class="st71" d="M357.5,193L357.5,193c-4.3,2.7-5.6,8.4-2.9,12.7l18,28.6c2.7,4.3,8.4,5.6,12.7,2.9c4.3-2.7,5.6-8.4,2.9-12.7
		l-18-28.6C367.5,191.6,361.8,190.3,357.5,193"/>
	<path class="st70" d="M260.3,153.9c-2-0.2-3.5-2.1-3.3-4.1c0.2-2,2.1-3.5,4.1-3.3l68.4,8.2c2,0.2,3.5,2.1,3.3,4.1
		c-0.2,2-2.1,3.5-4.1,3.3L260.3,153.9z"/>
	<path class="st72" d="M244,144h37c4,0,7.3,3.3,7.3,7.3c0,4-3.3,7.3-7.3,7.3h-37c-4,0-7.3-3.3-7.3-7.3C236.7,147.3,240,144,244,144"
		/>
	<path class="st70" d="M336,153.5l22.5,35.1c1.1,1.7,0.6,4-1.1,5.1c-1.7,1.1-4,0.6-5.1-1.1l-21.6-33.7
		C332.6,157.3,334.4,155.5,336,153.5"/>
	<path class="st62" d="M352.6,185.2L352.6,185.2c-3.8,2.4-4.9,7.4-2.5,11.1l10.1,16c2.4,3.8,7.4,4.9,11.1,2.5
		c3.8-2.4,4.9-7.4,2.5-11.1l-10.1-16C361.4,184,356.4,182.8,352.6,185.2"/>
	<path class="st73" d="M362,190.2l-8.9,5.6c-2.6,1.6-3.4,5.1-1.8,7.7l12.7,20.2c1.6,2.6,5.1,3.4,7.7,1.8l8.9-5.6
		c2.6-1.6,3.4-5.1,1.8-7.7l-12.7-20.2C368.1,189.3,364.6,188.5,362,190.2"/>
	<path class="st72" d="M334.2,146.7c6.4,0,11.5,5.2,11.5,11.5c0,6.4-5.2,11.5-11.5,11.5s-11.5-5.2-11.5-11.5
		C322.7,151.8,327.9,146.7,334.2,146.7"/>
	<path class="st74" d="M334.2,153c2.8,0,5.1,2.3,5.1,5.1c0,2.8-2.3,5.1-5.1,5.1c-2.8,0-5.1-2.3-5.1-5.1
		C329.1,155.3,331.4,153,334.2,153"/>
	<defs>
		
			<filter id="Adobe_OpacityMaskFilter_00000028289375063356640620000014053134809474466443_" filterUnits="userSpaceOnUse" x="449.5" y="251.7" width="78.7" height="112.3">
			<feColorMatrix  type="matrix" values="1 0 0 0 0  0 1 0 0 0  0 0 1 0 0  0 0 0 1 0"/>
		</filter>
	</defs>
	
		<mask maskUnits="userSpaceOnUse" x="449.5" y="251.7" width="78.7" height="112.3" id="SVGID_00000036934549483541152630000017544009644918597302_">
		<g style="filter:url(#Adobe_OpacityMaskFilter_00000028289375063356640620000014053134809474466443_);">
			
				<linearGradient id="SVGID_00000025443640775157541420000009611592640870030489_" gradientUnits="userSpaceOnUse" x1="-176.7467" y1="664.9261" x2="-254.1767" y2="596.3561" gradientTransform="matrix(1 0 0 1 711.7064 -316.1761)">
				<stop  offset="0" style="stop-color:#000000"/>
				<stop  offset="1" style="stop-color:#FFFFFF"/>
			</linearGradient>
			
				<rect x="449.5" y="251.7" style="fill:url(#SVGID_00000025443640775157541420000009611592640870030489_);" width="78.7" height="112.3"/>
		</g>
	</mask>
	
		<path style="mask:url(#SVGID_00000036934549483541152630000017544009644918597302_);fill-rule:evenodd;clip-rule:evenodd;fill:#44ACC3;" d="
		M449.5,347.3c34.5-7.8,51.7-11.7,51.7-11.7c-0.1-7.7-0.2-16.3-0.3-25.8c-0.1-7.8,0.4-17.1,1.4-27.6c1.2-9.6,2.9-17.1,5.1-22.5
		c10-25.7,20.7,18.4,20.7,27.7c0,15.7-8.3,27.2-12.5,46c-3.6,16.2-5.6,30.5-33.4,30.7C469.3,364.1,457,357.9,449.5,347.3"/>
	<path class="st12" d="M457.6,421.8c14.6,0,27.2,1.3,33.4,3.2c0.9-1,3.3-1.6,7.3-1.8c0,0-1.1,1.6-3.2,4.7h0
		c-2.1,3-17.4,5.6-37.5,5.6c-20.1,0-35.5-2.6-37.5-5.5h0c-2.2-3.2-3.2-4.9-3.2-4.9c5.5,0.1,8.3,0.6,8.5,1.6
		C431.8,422.9,443.9,421.8,457.6,421.8"/>
	<path class="st78" d="M457.6,416.2c22.6,0,40.9,2.8,40.9,6.4s-18.3,6.4-40.9,6.4c-22.6,0-40.9-2.8-40.9-6.4S435,416.2,457.6,416.2"
		/>
	<path class="st79" d="M478.5,313.1c1.5,0,2.8,1.2,2.8,2.8c0,1.5-1.2,2.8-2.8,2.8c-1.5,0-2.8-1.2-2.8-2.8
		C475.7,314.3,476.9,313.1,478.5,313.1"/>
	<path class="st79" d="M463.6,374.9c-0.5,1.5-2,2.5-3.6,2.5c-1.6,0-3-1-3.6-2.5c-3.8-2.7-6.2-6.9-6.7-11.6
		c-1.4-13.8,20.3-21.6-0.2-39.1c-1.8-1.5-3.6-3-5.4-4.7c-26.7-24.9,13.3-63.9,36.7-44c10.6,9.1,6.8,28.3-6.8,31.7
		c-2.9,0.7-5.8,0.8-8.2,1.3c-4.7,1-7.2,5.4-4.5,9.5c1.5,2.3,3.2,3.9,4.7,5.5c17.8,17.7-8.8,30.5-8.2,41.4
		C458.1,369,460.2,372.7,463.6,374.9"/>
	<path class="st80" d="M440.6,374.1c5.6,0,11.2,0,16.8,0c5.6,0,11.2,0,16.8,0c2.6,0,4.5,2,4.3,4.5c-0.6,6.7-1.3,13.4-1.9,20.2
		c-0.6,6.7-1.3,13.4-1.9,20.1c-0.2,2.5-2.1,4.5-4.1,4.5c-4.4,0-8.7,0-13.1,0c-4.4,0-8.7,0-13.1,0c-2,0-3.9-2-4.1-4.5
		c-0.6-6.7-1.3-13.4-1.9-20.1c-0.6-6.7-1.3-13.4-1.9-20.2C436.1,376.2,438,374.1,440.6,374.1"/>
	<defs>
		
			<filter id="Adobe_OpacityMaskFilter_00000142151228477462047330000005307441524981326001_" filterUnits="userSpaceOnUse" x="507" y="257" width="51.5" height="122.8">
			<feColorMatrix  type="matrix" values="1 0 0 0 0  0 1 0 0 0  0 0 1 0 0  0 0 0 1 0"/>
		</filter>
	</defs>
	
		<mask maskUnits="userSpaceOnUse" x="507" y="257" width="51.5" height="122.8" id="SVGID_00000039831640822566142150000009329369096261852853_">
		<g style="filter:url(#Adobe_OpacityMaskFilter_00000142151228477462047330000005307441524981326001_);">
			
				<linearGradient id="SVGID_00000090274292321013643680000018288958042047630474_" gradientUnits="userSpaceOnUse" x1="-258.1884" y1="609.4961" x2="-206.8384" y2="631.6161" gradientTransform="matrix(1 0 0 1 769.2279 -300.4733)">
				<stop  offset="0" style="stop-color:#000000"/>
				<stop  offset="1" style="stop-color:#FFFFFF"/>
			</linearGradient>
			
				<rect x="507" y="257" style="fill:url(#SVGID_00000090274292321013643680000018288958042047630474_);" width="51.5" height="122.8"/>
		</g>
	</mask>
	
		<path style="mask:url(#SVGID_00000039831640822566142150000009329369096261852853_);fill-rule:evenodd;clip-rule:evenodd;fill:#006676;" d="
		M542.8,257c7.9,13.1,11.5,34.2,13.5,49.3c2.7,19.6,3.5,42.2-1.6,53.7c-3.4,7.6-9.4,12-19.6,14.7c-8,2-17.4,3.7-28.1,5.1
		c16.6-4.3,16.6-26.3,26.3-39.9c11-15.3,26.1-26.1,11.2-46.3C534.4,280,533.8,267.8,542.8,257"/>
	<defs>
		
			<filter id="Adobe_OpacityMaskFilter_00000147934412732963483970000006107528083711127231_" filterUnits="userSpaceOnUse" x="205.8" y="289.8" width="179" height="101.8">
			<feColorMatrix  type="matrix" values="1 0 0 0 0  0 1 0 0 0  0 0 1 0 0  0 0 0 1 0"/>
		</filter>
	</defs>
	
		<mask maskUnits="userSpaceOnUse" x="205.8" y="289.8" width="179" height="101.8" id="SVGID_00000003801790214864268380000014212637627939817896_">
		<g style="filter:url(#Adobe_OpacityMaskFilter_00000147934412732963483970000006107528083711127231_);">
			
				<linearGradient id="SVGID_00000041998261273478386400000011481503602044602035_" gradientUnits="userSpaceOnUse" x1="-262.2176" y1="629.3476" x2="-83.2466" y2="629.3476" gradientTransform="matrix(1 0 0 1 468.055 -288.6687)">
				<stop  offset="0" style="stop-color:#000000"/>
				<stop  offset="1" style="stop-color:#FFFFFF"/>
			</linearGradient>
			
				<rect x="205.8" y="289.8" style="fill:url(#SVGID_00000041998261273478386400000011481503602044602035_);" width="179" height="101.8"/>
		</g>
	</mask>
	
		<path style="mask:url(#SVGID_00000003801790214864268380000014212637627939817896_);fill-rule:evenodd;clip-rule:evenodd;fill:#BEB78E;" d="
		M323.4,289.8h19.8c1.4,0,2.9,1.1,3.5,2.5l37.9,96.8c0.5,1.4-0.1,2.5-1.5,2.5H211.7c-1.4,0-2.9-1.1-3.5-2.5l-2.4-6.1
		c47,15,97.6-10.5,113.2-57.5C323,313.6,324.4,301.5,323.4,289.8"/>
	<path class="st12" d="M271.8,328c6.9,0,13.2,5.6,14,12.4c0.9,6.9-4,12.4-10.9,12.4c-6.9,0-13.2-5.6-14-12.4
		C260,333.5,264.9,328,271.8,328"/>
	<defs>
		
			<filter id="Adobe_OpacityMaskFilter_00000080205656477718162110000000151946920209592197_" filterUnits="userSpaceOnUse" x="159.5" y="285.9" width="113.5" height="87.9">
			<feColorMatrix  type="matrix" values="1 0 0 0 0  0 1 0 0 0  0 0 1 0 0  0 0 0 1 0"/>
		</filter>
	</defs>
	
		<mask maskUnits="userSpaceOnUse" x="159.5" y="285.9" width="113.5" height="87.9" id="SVGID_00000011753478981554031900000012665433273904545725_">
		<g style="filter:url(#Adobe_OpacityMaskFilter_00000080205656477718162110000000151946920209592197_);">
			
				<linearGradient id="SVGID_00000179629093741199246890000003129524751907999915_" gradientUnits="userSpaceOnUse" x1="-184.9726" y1="669.0922" x2="-241.9826" y2="577.8522" gradientTransform="matrix(1 0 0 1 421.7658 -306.4734)">
				<stop  offset="0" style="stop-color:#000000"/>
				<stop  offset="1" style="stop-color:#FFFFFF"/>
			</linearGradient>
			
				<rect x="159.5" y="285.9" style="fill:url(#SVGID_00000179629093741199246890000003129524751907999915_);" width="113.5" height="87.9"/>
		</g>
	</mask>
	
		<path style="mask:url(#SVGID_00000011753478981554031900000012665433273904545725_);fill-rule:evenodd;clip-rule:evenodd;fill:#FBFAF2;" d="
		M161.4,285.9h111.7c-23.1,52.6-70.3,34.3-78.3,74.2c-0.9,4.6-1.5,9.1-1.7,13.6l-33.3-85.2C159.2,287.1,159.9,285.9,161.4,285.9"/>
	<path class="st69" d="M195.5,202.8c0.4-2,2.4-3.3,4.5-2.8c2,0.4,3.3,2.4,2.8,4.5l-44.6,202.3c-0.1,0.4-0.1,0.6-0.1,0.6
		c-2.9-2.5-5.1-4.3-6.5-5.6c0,0,0-0.1,0.1-0.2L195.5,202.8z"/>
	<path class="st70" d="M214.7,202.8c0.4-2,2.4-3.3,4.5-2.8c2,0.4,3.3,2.4,2.8,4.5l-47.4,215.1c0,0,0,0.1,0,0.4
		c-1.9-1.3-4.1-2.9-6.6-4.8L214.7,202.8z"/>
	<path class="st72" d="M190,195h37c4,0,7.3,3.3,7.3,7.3v0c0,4-3.3,7.3-7.3,7.3h-37c-4,0-7.3-3.3-7.3-7.3v0
		C182.7,198.3,186,195,190,195"/>
	<path class="st90" d="M472.7,383.6c3.3-1.2,6.7-1.2,9.9-0.2c3.2,0.9,6,2.9,8.1,5.6c2.1,2.8,3.2,6,3.2,9.3c0,3.3-0.9,6.6-2.9,9.4
		c-2,2.8-4.8,4.8-7.9,5.9c-3.1,1-6.6,1.1-9.9,0l1.3-4c2.4,0.8,5,0.7,7.3,0c2.3-0.8,4.4-2.2,5.8-4.3c1.5-2.1,2.2-4.5,2.2-6.9
		c0-2.4-0.8-4.8-2.4-6.9c-1.5-2-3.6-3.4-6-4.1c-2.3-0.7-4.9-0.7-7.3,0.2L472.7,383.6z"/>
	<path class="st59" d="M564.4,163.4h-44.2c-0.3,0-0.5,0.1-0.7,0.3l0,0c-0.2,0.2-0.3,0.4-0.3,0.7v12.6c0,0.3,0.1,0.5,0.3,0.7l0,0
		c0.2,0.2,0.4,0.3,0.7,0.3h44.2c0.3,0,0.5-0.1,0.7-0.3l0,0c0.2-0.2,0.3-0.4,0.3-0.7v-12.6c0-0.3-0.1-0.5-0.3-0.7l0,0
		C564.9,163.6,564.6,163.4,564.4,163.4 M520.2,162h44.2c0.7,0,1.3,0.3,1.7,0.7l0,0c0.4,0.4,0.7,1,0.7,1.7v12.6
		c0,0.7-0.3,1.3-0.7,1.7l0,0c-0.4,0.4-1,0.7-1.7,0.7h-44.2c-0.7,0-1.3-0.3-1.7-0.7l0,0l0,0c-0.4-0.4-0.7-1-0.7-1.7v-12.6
		c0-0.7,0.3-1.3,0.7-1.7l0,0l0,0C518.9,162.3,519.5,162,520.2,162z"/>
	<path class="st59" d="M587.3,182.9h-44.2c-0.3,0-0.5,0.1-0.7,0.3c-0.2,0.2-0.3,0.4-0.3,0.7v12.6c0,0.3,0.1,0.5,0.3,0.7
		c0.2,0.2,0.4,0.3,0.7,0.3h44.2c0.3,0,0.5-0.1,0.7-0.3l0,0c0.2-0.2,0.3-0.4,0.3-0.7V184c0-0.3-0.1-0.5-0.3-0.7l0,0
		C587.8,183,587.6,182.9,587.3,182.9 M543.1,181.5h44.2c0.7,0,1.3,0.3,1.7,0.7h0c0.4,0.4,0.7,1,0.7,1.7v12.6c0,0.7-0.3,1.3-0.7,1.7
		l0,0c-0.4,0.4-1,0.7-1.7,0.7h-44.2c-0.7,0-1.3-0.3-1.7-0.7c-0.4-0.4-0.7-1-0.7-1.7V184c0-0.7,0.3-1.3,0.7-1.7
		C541.8,181.8,542.4,181.5,543.1,181.5z"/>
	<path class="st59" d="M535.5,182.9h-44.2c-0.3,0-0.5,0.1-0.7,0.3l0,0c-0.2,0.2-0.3,0.4-0.3,0.7v12.6c0,0.3,0.1,0.5,0.3,0.7l0,0
		c0.2,0.2,0.4,0.3,0.7,0.3h44.2c0.3,0,0.5-0.1,0.7-0.3l0,0c0.2-0.2,0.3-0.4,0.3-0.7V184c0-0.3-0.1-0.5-0.3-0.7l0,0
		C536,183,535.8,182.9,535.5,182.9 M491.3,181.5h44.2c0.7,0,1.3,0.3,1.7,0.7l0,0c0.4,0.4,0.7,1,0.7,1.7v12.6c0,0.7-0.3,1.3-0.7,1.7
		l0,0l0,0c-0.4,0.4-1,0.7-1.7,0.7h-44.2c-0.7,0-1.3-0.3-1.7-0.7l0,0l0,0c-0.4-0.4-0.7-1-0.7-1.7V184c0-0.7,0.3-1.3,0.7-1.7l0,0
		C490,181.8,490.6,181.5,491.3,181.5z"/>
	<path class="st59" d="M564.4,203.4h-44.2c-0.3,0-0.5,0.1-0.7,0.3l0,0c-0.2,0.2-0.3,0.4-0.3,0.7V217c0,0.3,0.1,0.5,0.3,0.7l0,0
		c0.2,0.2,0.4,0.3,0.7,0.3h44.2c0.3,0,0.5-0.1,0.7-0.3l0,0c0.2-0.2,0.3-0.4,0.3-0.7v-12.6c0-0.3-0.1-0.5-0.3-0.7l0,0
		C564.9,203.5,564.6,203.4,564.4,203.4 M520.2,202h44.2c0.7,0,1.3,0.3,1.7,0.7l0,0c0.4,0.4,0.7,1,0.7,1.7V217c0,0.7-0.3,1.3-0.7,1.7
		l0,0c-0.4,0.4-1,0.7-1.7,0.7h-44.2c-0.7,0-1.3-0.3-1.7-0.7l0,0l0,0c-0.4-0.4-0.7-1-0.7-1.7v-12.6c0-0.7,0.3-1.3,0.7-1.7l0,0l0,0
		C518.9,202.2,519.5,202,520.2,202z"/>
	<path class="st79" d="M491.3,307.3c0.9,0,1.6,0.7,1.6,1.6c0,0.9-0.7,1.6-1.6,1.6c-0.9,0-1.6-0.7-1.6-1.6
		C489.7,308,490.4,307.3,491.3,307.3"/>
	<path class="st79" d="M358.4,267.8c0.9,0,1.6,0.7,1.6,1.6s-0.7,1.6-1.6,1.6c-0.9,0-1.6-0.7-1.6-1.6S357.6,267.8,358.4,267.8"/>
	<path class="st25" d="M317.8,98.4H331v3.4h-10v8.7h0c0,0.1,0,0.2,0,0.3c0,1.6-1.3,2.9-2.9,2.9c-1.6,0-2.9-1.3-2.9-2.9
		c0-1.6,1.3-2.9,2.9-2.9c0.5,0,1,0.1,1.4,0.4v-6.5h-1.8V98.4z"/>
	<path class="st25" d="M357.5,135.5c0.8,0,1.6,0.2,2.3,0.6v-10.5h-2.9v-5.5h21.5v5.5h-1.6v14.2h0c0,0.2,0,0.3,0,0.5
		c0,2.6-2.1,4.8-4.8,4.8c-2.6,0-4.8-2.1-4.8-4.8c0-2.6,2.1-4.8,4.8-4.8c0.8,0,1.6,0.2,2.3,0.6v-10.5h-12.2v14.2h0c0,0.2,0,0.3,0,0.5
		c0,2.6-2.1,4.8-4.8,4.8c-2.6,0-4.8-2.1-4.8-4.8C352.7,137.6,354.9,135.5,357.5,135.5"/>
	<path class="st25" d="M407.9,88.9c-0.5,0-1,0.1-1.4,0.4V83h1.7v-3.2h-12.6V83h1v8.3c0,0.1,0,0.2,0,0.3c0,1.5,1.3,2.8,2.8,2.8
		c1.5,0,2.8-1.3,2.8-2.8c0-1.5-1.3-2.8-2.8-2.8c-0.5,0-1,0.1-1.4,0.4V83h7.1v8.3h0c0,0.1,0,0.2,0,0.3c0,1.5,1.3,2.8,2.8,2.8
		c1.5,0,2.8-1.3,2.8-2.8C410.7,90.1,409.4,88.9,407.9,88.9"/>
	<g>
		<path class="st91" d="M464.8,410.2h-15.6v-12.8l8.5-7.9l8.7,7.9v11.1C466.4,409.5,465.7,410.2,464.8,410.2z"/>
		<path class="st92" d="M457.8,389.6v20.6h8.6v-12.8L457.8,389.6z"/>
		<path class="st93" d="M457.8,390.3l7.6,7.6c1.3,1.3,3.3,1.3,4.6,0l0,0l-12.2-12.2l-12.2,12.2l1.9,1.9c0.2,0.2,0.6,0.2,0.9,0
			L457.8,390.3z"/>
		<path class="st94" d="M457.8,385.7L457.8,385.7l0,4.6l0,0l9.5,9.5c0.2,0.2,0.6,0.2,0.9,0l1.9-1.9L457.8,385.7z"/>
		<g>
			<circle class="st95" cx="457.8" cy="401.6" r="7.3"/>
			<path class="st93" d="M455.2,405l3.8,3.8c2.5-0.4,4.5-2.1,5.5-4.3l-3.2-3.2L455.2,405z"/>
			<path class="st96" d="M455.9,398.1l5.2,3c0.4,0.2,0.4,0.7,0,1l-5.2,3c-0.4,0.2-0.8-0.1-0.8-0.5v-6
				C455.1,398.2,455.5,397.9,455.9,398.1z"/>
			<path class="st97" d="M455.1,401.6v3c0,0.4,0.5,0.7,0.8,0.5l5.2-3c0.2-0.1,0.3-0.3,0.3-0.5L455.1,401.6L455.1,401.6L455.1,401.6z
				"/>
		</g>
		<rect x="451" y="388.1" class="st93" width="3.1" height="4.7"/>
		<rect x="450.6" y="387.4" class="st93" width="3.8" height="0.8"/>
	</g>
	<path class="st98" d="M400.2,213.3c7.5-16.1,9.7-14.9,8.4-0.4c1.2-0.6,2.6-0.5,3.5,0.4s1.2,2.2,0.6,3.4s-1.8,1.8-3.1,1.6
		c-1.3-0.9-2.4-0.8-3.4,0.2C398.7,220.3,398.4,217.2,400.2,213.3"/>
</g>
</svg>
